<svg width="24" height="28" viewBox="0 0 24 28" fill="none" xmlns="http://www.w3.org/2000/svg">
<path d="M19.9301 14.7964C19.9176 12.5023 20.9553 10.7707 23.0557 9.49548C21.8805 7.81392 20.1052 6.88875 17.761 6.70747C15.5418 6.53244 13.1164 8.00146 12.2287 8.00146C11.2911 8.00146 9.14068 6.76998 7.45287 6.76998C3.96474 6.82624 0.257812 9.55174 0.257812 15.0965C0.257812 16.7343 0.557867 18.4263 1.15798 20.1724C1.95812 22.4666 4.84615 28.0926 7.85919 27.9988C9.43448 27.9613 10.5472 26.8799 12.5976 26.8799C14.5854 26.8799 15.6169 27.9988 17.3734 27.9988C20.4115 27.9551 23.0245 22.8417 23.7871 20.5412C19.7114 18.6221 19.9301 14.9152 19.9301 14.7964ZM16.392 4.53207C18.0986 2.50671 17.9423 0.662621 17.8923 0C16.3857 0.0875159 14.6417 1.02519 13.6477 2.18165C12.5538 3.41937 11.9099 4.9509 12.0475 6.67621C13.679 6.80124 15.1668 5.96358 16.392 4.53207Z" fill="#FCFAF2"/>
</svg>
