<svg width="28" height="33" viewBox="0 0 28 33" fill="none" xmlns="http://www.w3.org/2000/svg">
<path d="M23.0569 17.0615C23.0426 14.4396 24.2285 12.4606 26.629 11.0032C25.2859 9.08144 23.2569 8.02411 20.5779 7.81693C18.0417 7.61689 15.2697 9.29577 14.2553 9.29577C13.1837 9.29577 10.7261 7.88837 8.79714 7.88837C4.8107 7.95266 0.574219 11.0675 0.574219 17.4044C0.574219 19.2762 0.917138 21.2098 1.60298 23.2054C2.51743 25.8273 5.81803 32.2571 9.26151 32.1499C11.0618 32.1071 12.3335 30.8711 14.6768 30.8711C16.9486 30.8711 18.1274 32.1499 20.1349 32.1499C23.607 32.0999 26.5932 26.256 27.4648 23.6269C22.8068 21.4337 23.0569 17.1972 23.0569 17.0615ZM19.0133 5.33076C20.9636 3.01605 20.785 0.908526 20.7279 0.151245C19.0061 0.251263 17.0129 1.32289 15.877 2.64456C14.6268 4.0591 13.8909 5.80942 14.0481 7.7812C15.9127 7.92409 17.613 6.96677 19.0133 5.33076Z" fill="#202020"/>
</svg>
