<svg xmlns="http://www.w3.org/2000/svg" width="85" height="18" viewBox="0 0 85 18" fill="none">
<path d="M26.9211 3.64241V4.80032C27.3663 4.35011 27.8983 3.99619 28.4844 3.76028C29.0705 3.52438 29.6984 3.41141 30.3294 3.42843C33.5676 3.42843 35.8672 5.72159 35.8672 9.00142C35.8672 12.2812 33.5676 14.5718 30.3294 14.5718C29.6984 14.5888 29.0705 14.4759 28.4844 14.24C27.8983 14.0041 27.3663 13.6503 26.9211 13.2V18.0001H24.7891V3.65249L26.9211 3.64241ZM26.9211 9.00142C26.9211 11.1636 28.305 12.601 30.3294 12.601C32.3539 12.601 33.7377 11.1636 33.7377 9.00142C33.7377 6.83917 32.3739 5.37921 30.3294 5.37921C28.285 5.37921 26.9211 6.83664 26.9211 9.00142Z" fill="#202020"/>
<path d="M44.6328 0H46.7623V2.14202H44.6328V0ZM44.6328 3.64222H46.7623V14.3577H44.6328V3.64222Z" fill="#202020"/>
<path d="M48.4785 9.00166C48.4785 5.74451 50.7808 3.42871 54.0189 3.42871C57.2568 3.42871 59.5568 5.74451 59.5568 9.00166C59.5568 12.2588 57.2568 14.572 54.0189 14.572C50.7808 14.572 48.4785 12.279 48.4785 9.00166ZM57.4273 9.00166C57.4273 6.83694 56.0634 5.37948 54.0189 5.37948C51.9744 5.37948 50.608 6.83694 50.608 9.00166C50.608 11.1664 51.9944 12.6012 54.0189 12.6012C56.0433 12.6012 57.4273 11.1664 57.4273 9.00166Z" fill="#202020"/>
<path d="M61.2514 3.64261H63.3809V4.60669C63.7337 4.22473 64.1632 3.92235 64.6408 3.7193C65.1178 3.51626 65.6328 3.41712 66.1512 3.42863C68.6861 3.42863 70.4051 5.29392 70.4051 7.92933V14.3581H68.2734V7.92933C68.2734 6.41907 67.3149 5.37941 65.8459 5.37941C64.312 5.37941 63.3736 6.42914 63.3736 7.92933V14.3581H61.2441L61.2514 3.64261Z" fill="#202020"/>
<path d="M23.0974 14.5738H17.5571C16.4606 14.5742 15.3886 14.2476 14.4767 13.6351C13.5648 13.0227 12.854 12.152 12.4341 11.1331C12.0142 10.1142 11.9043 8.99299 12.1181 7.91124C12.3319 6.82944 12.8598 5.83573 13.6352 5.05585C14.4105 4.27596 15.3984 3.74489 16.4738 3.52984C17.5493 3.31479 18.6639 3.4255 19.6768 3.8478C20.6898 4.27011 21.5554 4.98505 22.1643 5.90233C22.7732 6.8196 23.0979 7.89786 23.0974 9.00081V14.5738ZM17.5571 5.69077C17.1175 5.67857 16.6799 5.75518 16.2702 5.91594C15.8605 6.07676 15.487 6.31852 15.1718 6.62694C14.8565 6.93542 14.606 7.30436 14.4348 7.71189C14.2638 8.11937 14.1757 8.55722 14.1757 8.99957C14.1757 9.44192 14.2638 9.87977 14.4348 10.2872C14.606 10.6948 14.8565 11.0637 15.1718 11.3721C15.487 11.6806 15.8605 11.9224 16.2702 12.0832C16.6799 12.244 17.1175 12.3205 17.5571 12.3083H20.8452V9.00081C20.8446 8.12353 20.498 7.28242 19.8816 6.66187C19.2651 6.04132 18.4292 5.69212 17.5571 5.69077Z" fill="#202020"/>
<path d="M8.45062 11.0053C7.88012 12.0122 6.84915 12.6012 5.54037 12.6012C3.51592 12.6012 2.13206 11.1639 2.13206 9.00166C2.13206 6.83947 3.51592 5.37948 5.54037 5.37948C6.84915 5.37948 7.88258 5.98121 8.45314 6.99556H10.7454C10.0097 4.83085 8.05778 3.42871 5.54037 3.42871C2.30225 3.42871 0 5.74451 0 9.00166C0 12.2588 2.30225 14.572 5.54037 14.572C8.0778 14.572 10.0197 13.1826 10.7503 11.0053H8.45062Z" fill="#202020"/>
<path d="M42.7535 5.59299V3.64222H39.4328V0H37.3008V10.7582C37.3008 13.1369 38.4945 14.3577 40.9018 14.3577H42.756V12.3868H41.0519C39.9659 12.3868 39.4328 11.8506 39.4328 10.7582V5.59299H42.7535Z" fill="#202020"/>
<path d="M81.627 5.26128V3.67554H81.0762V3.42383H82.43V3.67554H81.8921V5.26128H81.627Z" fill="#202020"/>
<path d="M84.3573 5.26125V3.71324L83.7438 5.26125H83.5839L82.9682 3.71324V5.26125H82.7031V3.42871H83.1209L83.6666 4.83328L84.2169 3.42871H84.6346V5.26125H84.3573Z" fill="#202020"/>
<path d="M72.2266 12.2529L73.9059 11.319C74.4561 12.409 75.3397 12.8067 76.5308 12.8067C77.7672 12.8067 78.7156 12.3033 78.7156 11.3418C78.7156 9.05619 72.5146 10.788 72.5146 6.63469C72.5146 4.7267 74.1911 3.32715 76.5532 3.32715C78.5551 3.32715 79.9291 4.261 80.6147 5.52459L78.9354 6.48118C78.4729 5.52467 77.5894 5.19238 76.5957 5.19238C75.6025 5.19238 74.6988 5.72603 74.6988 6.59194C74.6988 8.81201 80.8999 7.191 80.8999 11.2964C80.8999 13.363 78.9158 14.6719 76.6186 14.6719C74.6116 14.6719 73.0648 13.8739 72.2266 12.2529Z" fill="#202020"/>
</svg>