<svg xmlns="http://www.w3.org/2000/svg" width="49" height="18" viewBox="0 0 49 18" fill="none">
<g clip-path="url(#clip0_11328_5979)">
<path d="M12.974 5.70645C11.5601 5.70645 10.4102 4.55652 10.4102 3.1426C10.4102 1.72868 11.5601 0.578125 12.974 0.578125C14.388 0.578125 15.5379 1.72805 15.5379 3.14198C15.5379 4.5559 14.388 5.70645 12.974 5.70645ZM12.974 1.47828C12.0566 1.47828 11.3103 2.22451 11.3103 3.14198C11.3103 4.05945 12.0566 4.80567 12.974 4.80567C13.8915 4.80567 14.6377 4.05945 14.6377 3.14198C14.6377 2.22451 13.8915 1.47828 12.974 1.47828Z" fill="#202020"/>
<path d="M35.2017 13.5531C34.9042 13.9633 34.5137 14.2973 34.0622 14.5276C33.6108 14.7578 33.1113 14.8779 32.6044 14.878C30.8338 14.878 29.3927 13.4375 29.3927 11.6662C29.3927 9.89495 30.8332 8.45444 32.6044 8.45444C33.1113 8.4545 33.6108 8.57453 34.0622 8.80486C34.5137 9.03513 34.9042 9.3691 35.2017 9.7793L37.1559 8.14838C36.6189 7.45216 35.9294 6.88844 35.1403 6.50054C34.3513 6.11265 33.4837 5.91096 32.6044 5.91098C29.431 5.91098 26.8498 8.49275 26.8498 11.6656C26.8498 14.8384 29.4316 17.4208 32.6044 17.4208C33.4837 17.4208 34.3513 17.2192 35.1403 16.8313C35.9294 16.4434 36.6189 15.8796 37.1559 15.1834L35.2017 13.5531ZM8.79776 13.5531C8.50025 13.9633 8.10978 14.2973 7.6583 14.5276C7.20688 14.7578 6.70732 14.8779 6.20054 14.878C4.42989 14.878 2.98876 13.4375 2.98876 11.6662C2.98876 9.89495 4.42989 8.45444 6.20054 8.45444C6.70732 8.4545 7.20688 8.57453 7.6583 8.80486C8.10978 9.03513 8.50025 9.3691 8.79776 9.7793L10.752 8.14838C10.2151 7.45216 9.52548 6.88844 8.73643 6.50054C7.94733 6.11265 7.07979 5.91096 6.20054 5.91098C3.0271 5.9116 0.445312 8.4934 0.445312 11.6668C0.445312 14.8403 3.0271 17.4214 6.20054 17.4214C7.07979 17.4215 7.94733 17.2198 8.73643 16.8319C9.52548 16.444 10.2151 15.8802 10.752 15.184L8.79776 13.5531ZM11.7029 6.79195H14.2457V17.2279H11.7029V6.79195ZM25.9565 17.2279H23.4131V11.2946C23.4131 10.9002 23.3568 10.1546 22.979 9.58767C22.5574 8.95523 21.7951 8.64794 20.6476 8.64794C19.4674 8.64794 18.6755 9.0523 18.2928 9.58767C17.9243 10.1027 17.8822 10.7512 17.8822 11.2946V17.2279H15.3388V11.2946C15.3388 10.4019 15.4303 9.0863 16.2235 7.97654C17.1107 6.73448 18.5994 6.10511 20.6476 6.10511C22.0461 6.10511 23.9534 6.46493 25.0953 8.17743C25.8069 9.24515 25.9565 10.4625 25.9565 11.2946V17.2279ZM47.7984 8.17743C46.6565 6.46428 44.7492 6.10511 43.3508 6.10511C42.2713 6.10511 41.3476 6.28007 40.5854 6.6275V3.74219H38.0419V17.2279H40.5854V11.2946C40.5854 10.7518 40.628 10.1027 40.9958 9.58767C41.3785 9.0523 42.1705 8.64794 43.3508 8.64794C44.4982 8.64794 45.2605 8.95523 45.6821 9.58767C46.0599 10.1546 46.1161 10.9002 46.1161 11.2946V17.2279H48.6596V11.2946C48.6596 10.4625 48.51 9.24515 47.7984 8.17743Z" fill="#202020"/>
</g>
<defs>
<clipPath id="clip0_11328_5979">
<rect width="48.2143" height="18" fill="white" transform="translate(0.445312)"/>
</clipPath>
</defs>
</svg>