<svg xmlns="http://www.w3.org/2000/svg" width="77" height="12" viewBox="0 0 77 12" fill="none"><g clip-path="url(#clip0_8009_15175)"><path d="M36.4357 0.814453L30.9357 8.27864L25.4357 0.814453V10.8128H26.8107V4.99858L30.9357 10.5969L35.0607 4.99858V10.8128H36.4357V0.814453ZM41.2482 10.8128H39.8732V1.18777H44.342C45.1625 1.18777 45.9494 1.51371 46.5296 2.0939C47.1098 2.67409 47.4357 3.461 47.4357 4.28152C47.4357 5.10203 47.1098 5.88894 46.5296 6.46913C45.9494 7.04932 45.1625 7.37527 44.342 7.37527H41.2482V10.8128ZM41.2482 6.00027H44.342C44.7978 6.00027 45.235 5.81918 45.5573 5.49686C45.8796 5.17453 46.0607 4.73736 46.0607 4.28152C46.0607 3.82568 45.8796 3.3885 45.5573 3.06618C45.235 2.74385 44.7978 2.56277 44.342 2.56277H41.2482V6.00027ZM56.9665 10.8128H58.5306L53.2795 1.11902L48.029 10.8128H49.5931L50.7103 8.75027H55.8493L56.9665 10.8128ZM51.4542 7.37527L53.2795 4.00652L55.1048 7.37527H51.4542ZM66.6857 8.1212C66.6857 9.75127 65.1904 10.9812 63.207 10.9812C62.5644 10.9686 61.9321 10.8175 61.3533 10.538C60.7745 10.2586 60.2629 9.8575 59.8533 9.36214L60.8227 8.41683C61.1031 8.7861 61.463 9.08753 61.8757 9.29878C62.2885 9.51003 62.7435 9.62567 63.207 9.63714C64.4445 9.63714 65.3107 9.01427 65.3107 8.12464C65.3107 7.36152 64.791 6.84864 63.7226 6.55508L62.5607 6.28902C60.0857 5.68127 60.0857 4.19695 60.0857 3.70883C60.0857 2.17433 61.3232 1.14308 63.1692 1.14308C63.7641 1.14118 64.3525 1.26587 64.8955 1.50886C65.4385 1.75186 65.9236 2.1076 66.3186 2.55245L65.3492 3.49983C64.7828 2.8905 64.0002 2.52723 63.1692 2.48783C62.0836 2.48783 61.4607 2.93264 61.4607 3.70952C61.4607 3.9412 61.5487 4.71464 62.6797 4.95802L63.7336 5.1952C65.6655 5.64758 66.6857 6.66027 66.6857 8.1212ZM76.3107 8.1212C76.3107 9.75127 74.8154 10.9812 72.832 10.9812C72.1894 10.9686 71.5571 10.8175 70.9783 10.538C70.3995 10.2586 69.8879 9.8575 69.4783 9.36214L70.4477 8.41683C70.7281 8.7861 71.088 9.08753 71.5007 9.29878C71.9135 9.51003 72.3685 9.62567 72.832 9.63714C74.0695 9.63714 74.9357 9.01427 74.9357 8.12464C74.9357 7.36152 74.416 6.84864 73.3476 6.55508L72.1857 6.28902C69.7107 5.68127 69.7107 4.19695 69.7107 3.70883C69.7107 2.17433 70.9482 1.14308 72.7942 1.14308C73.3891 1.14118 73.9775 1.26587 74.5205 1.50886C75.0635 1.75186 75.5486 2.1076 75.9436 2.55245L74.9742 3.49983C74.4078 2.8905 73.6252 2.52723 72.7942 2.48783C71.7086 2.48783 71.0857 2.93264 71.0857 3.70952C71.0857 3.9412 71.1737 4.71464 72.3047 4.95802L73.3586 5.1952C75.2905 5.64758 76.3107 6.66027 76.3107 8.1212ZM8.51566 8.6712C7.98685 9.20004 7.3131 9.56018 6.5796 9.7061C5.84611 9.85201 5.08582 9.77714 4.39487 9.49095C3.70393 9.20476 3.11337 8.72011 2.69787 8.09828C2.28238 7.47646 2.06061 6.74538 2.06061 5.99752C2.06061 5.24965 2.28238 4.51858 2.69787 3.89675C3.11337 3.27492 3.70393 2.79027 4.39487 2.50408C5.08582 2.21789 5.84611 2.14302 6.5796 2.28893C7.3131 2.43485 7.98685 2.79499 8.51566 3.32383L8.75904 3.5672L9.73116 2.59714L9.48573 2.35652C8.7646 1.63544 7.84584 1.14439 6.84563 0.945469C5.84543 0.746546 4.8087 0.848679 3.86654 1.23896C2.92438 1.62923 2.11911 2.29012 1.55255 3.13805C0.985993 3.98599 0.683594 4.98288 0.683594 6.00267C0.683594 7.02247 0.985993 8.01936 1.55255 8.86729C2.11911 9.71523 2.92438 10.3761 3.86654 10.7664C4.8087 11.1567 5.84543 11.2588 6.84563 11.0599C7.84584 10.861 8.7646 10.3699 9.48573 9.64883L9.7291 9.40614L8.75698 8.43333L8.51566 8.6712ZM17.5295 0.844016C16.5097 0.844016 15.5128 1.14642 14.6648 1.713C13.8169 2.27958 13.156 3.08487 12.7657 4.02705C12.3755 4.96924 12.2733 6.00599 12.4723 7.0062C12.6713 8.00642 13.1623 8.92517 13.8835 9.64629C14.6046 10.3674 15.5233 10.8585 16.5235 11.0574C17.5238 11.2564 18.5605 11.1543 19.5027 10.764C20.4449 10.3738 21.2502 9.71287 21.8167 8.86493C22.3833 8.01698 22.6857 7.02008 22.6857 6.00027C22.6857 5.32314 22.5524 4.65264 22.2932 4.02705C22.0341 3.40147 21.6543 2.83305 21.1755 2.35425C20.6967 1.87544 20.1283 1.49564 19.5027 1.23651C18.8771 0.977386 18.2066 0.844016 17.5295 0.844016ZM17.5295 9.78152C16.7816 9.78152 16.0505 9.55975 15.4287 9.14426C14.8069 8.72877 14.3222 8.13822 14.0361 7.44729C13.7499 6.75636 13.675 5.99607 13.8209 5.26258C13.9668 4.52909 14.3269 3.85534 14.8557 3.32652C15.3845 2.7977 16.0583 2.43757 16.7918 2.29167C17.5253 2.14577 18.2856 2.22065 18.9765 2.50685C19.6674 2.79304 20.258 3.27769 20.6735 3.89952C21.089 4.52134 21.3107 5.25241 21.3107 6.00027C21.3107 7.00312 20.9123 7.96489 20.2032 8.67402C19.4941 9.38314 18.5323 9.78152 17.5295 9.78152ZM19.7343 4.76758L18.7622 3.79545L15.3247 7.23295L16.2968 8.20508L19.7343 4.76758Z" fill="black"></path></g><defs><clipPath id="clip0_8009_15175"><rect width="77" height="11" fill="white" transform="translate(0 0.5)"></rect></clipPath></defs></svg>