<svg width="699" height="487" viewBox="0 0 699 487" fill="none" xmlns="http://www.w3.org/2000/svg">
<rect width="344.49" height="344.49" transform="matrix(0.707372 -0.706841 0.707372 0.706841 211 243.5)" fill="url(#paint0_linear_1308_286)"/>
<rect width="344.49" height="344.49" transform="matrix(-0.707372 0.706841 -0.707372 -0.706842 487.365 243.5)" fill="url(#paint1_linear_1308_286)"/>
<path d="M349.184 381.58L487.367 243.5L349.184 105.42L211 243.5L349.184 381.58Z" fill="url(#paint2_radial_1308_286)"/>
<path d="M62.8142 244.685H58.8504L58.8289 243.02H62.4275C63.0219 243.02 63.5411 242.919 63.9851 242.719C64.4291 242.518 64.7729 242.232 65.0164 241.859C65.267 241.48 65.3923 241.029 65.3923 240.506C65.3923 239.933 65.2813 239.467 65.0593 239.109C64.8445 238.744 64.5115 238.479 64.0603 238.314C63.6163 238.143 63.0505 238.057 62.363 238.057H59.3123V252H57.239V236.359H62.363C63.1651 236.359 63.8813 236.442 64.5115 236.606C65.1417 236.764 65.6752 237.015 66.1121 237.358C66.5561 237.695 66.8927 238.125 67.1218 238.647C67.351 239.17 67.4656 239.797 67.4656 240.527C67.4656 241.172 67.3009 241.756 66.9714 242.278C66.642 242.794 66.1837 243.216 65.5964 243.546C65.0164 243.875 64.336 244.087 63.5554 244.18L62.8142 244.685ZM62.7175 252H58.0339L59.2048 250.313H62.7175C63.3764 250.313 63.935 250.199 64.3933 249.97C64.8588 249.741 65.2133 249.418 65.4568 249.003C65.7003 248.58 65.822 248.083 65.822 247.51C65.822 246.93 65.7182 246.428 65.5105 246.006C65.3028 245.583 64.977 245.257 64.533 245.028C64.089 244.799 63.516 244.685 62.8142 244.685H59.8601L59.8816 243.02H63.9207L64.3611 243.621C65.113 243.686 65.7504 243.9 66.2732 244.266C66.796 244.624 67.1935 245.082 67.4656 245.641C67.7449 246.199 67.8845 246.815 67.8845 247.488C67.8845 248.462 67.6697 249.286 67.24 249.959C66.8175 250.625 66.2195 251.133 65.4461 251.484C64.6726 251.828 63.7631 252 62.7175 252ZM83.428 243.686V244.674C83.428 245.848 83.2812 246.901 82.9876 247.832C82.694 248.763 82.2715 249.554 81.72 250.206C81.1686 250.858 80.5062 251.355 79.7327 251.699C78.9665 252.043 78.1071 252.215 77.1546 252.215C76.2308 252.215 75.3821 252.043 74.6087 251.699C73.8424 251.355 73.1764 250.858 72.6107 250.206C72.0521 249.554 71.6188 248.763 71.3109 247.832C71.0029 246.901 70.8489 245.848 70.8489 244.674V243.686C70.8489 242.511 70.9993 241.462 71.3001 240.538C71.6081 239.607 72.0413 238.816 72.5999 238.164C73.1585 237.505 73.821 237.004 74.5872 236.66C75.3607 236.316 76.2093 236.145 77.1331 236.145C78.0856 236.145 78.945 236.316 79.7113 236.66C80.4847 237.004 81.1471 237.505 81.6986 238.164C82.2571 238.816 82.6833 239.607 82.9769 240.538C83.2777 241.462 83.428 242.511 83.428 243.686ZM81.3763 244.674V243.664C81.3763 242.733 81.2796 241.91 81.0863 241.193C80.9001 240.477 80.6243 239.876 80.2591 239.389C79.8939 238.902 79.4463 238.533 78.9163 238.282C78.3935 238.032 77.7991 237.906 77.1331 237.906C76.4886 237.906 75.9049 238.032 75.3821 238.282C74.8665 238.533 74.4225 238.902 74.0501 239.389C73.6849 239.876 73.402 240.477 73.2015 241.193C73.001 241.91 72.9007 242.733 72.9007 243.664V244.674C72.9007 245.612 73.001 246.443 73.2015 247.166C73.402 247.882 73.6885 248.487 74.0609 248.981C74.4404 249.468 74.888 249.837 75.4036 250.088C75.9264 250.339 76.5101 250.464 77.1546 250.464C77.8278 250.464 78.4258 250.339 78.9486 250.088C79.4713 249.837 79.9118 249.468 80.2698 248.981C80.6351 248.487 80.9108 247.882 81.097 247.166C81.2832 246.443 81.3763 245.612 81.3763 244.674ZM92.4511 236.359V252H90.41V236.359H92.4511ZM97.4784 236.359V238.057H85.3934V236.359H97.4784ZM106.19 236.359V252H104.149V236.359H106.19ZM111.217 236.359V238.057H99.1323V236.359H111.217ZM125.719 243.686V244.674C125.719 245.848 125.572 246.901 125.278 247.832C124.985 248.763 124.562 249.554 124.011 250.206C123.459 250.858 122.797 251.355 122.023 251.699C121.257 252.043 120.398 252.215 119.445 252.215C118.521 252.215 117.673 252.043 116.899 251.699C116.133 251.355 115.467 250.858 114.901 250.206C114.343 249.554 113.91 248.763 113.602 247.832C113.294 246.901 113.14 245.848 113.14 244.674V243.686C113.14 242.511 113.29 241.462 113.591 240.538C113.899 239.607 114.332 238.816 114.891 238.164C115.449 237.505 116.112 237.004 116.878 236.66C117.651 236.316 118.5 236.145 119.424 236.145C120.376 236.145 121.236 236.316 122.002 236.66C122.775 237.004 123.438 237.505 123.989 238.164C124.548 238.816 124.974 239.607 125.268 240.538C125.568 241.462 125.719 242.511 125.719 243.686ZM123.667 244.674V243.664C123.667 242.733 123.57 241.91 123.377 241.193C123.191 240.477 122.915 239.876 122.55 239.389C122.185 238.902 121.737 238.533 121.207 238.282C120.684 238.032 120.09 237.906 119.424 237.906C118.779 237.906 118.196 238.032 117.673 238.282C117.157 238.533 116.713 238.902 116.341 239.389C115.976 239.876 115.693 240.477 115.492 241.193C115.292 241.91 115.191 242.733 115.191 243.664V244.674C115.191 245.612 115.292 246.443 115.492 247.166C115.693 247.882 115.979 248.487 116.352 248.981C116.731 249.468 117.179 249.837 117.694 250.088C118.217 250.339 118.801 250.464 119.445 250.464C120.118 250.464 120.716 250.339 121.239 250.088C121.762 249.837 122.202 249.468 122.561 248.981C122.926 248.487 123.201 247.882 123.388 247.166C123.574 246.443 123.667 245.612 123.667 244.674ZM129.919 236.359H131.927L137.051 249.11L142.165 236.359H144.184L137.825 252H136.256L129.919 236.359ZM129.263 236.359H131.036L131.326 245.898V252H129.263V236.359ZM143.056 236.359H144.829V252H142.766V245.898L143.056 236.359ZM163.756 236.359H165.818V246.94C165.818 248.115 165.557 249.092 165.034 249.873C164.511 250.654 163.816 251.241 162.95 251.635C162.091 252.021 161.156 252.215 160.146 252.215C159.086 252.215 158.127 252.021 157.267 251.635C156.415 251.241 155.738 250.654 155.237 249.873C154.743 249.092 154.496 248.115 154.496 246.94V236.359H156.548V246.94C156.548 247.757 156.698 248.43 156.999 248.96C157.299 249.49 157.718 249.884 158.256 250.142C158.8 250.399 159.43 250.528 160.146 250.528C160.869 250.528 161.5 250.399 162.037 250.142C162.581 249.884 163.004 249.49 163.304 248.96C163.605 248.43 163.756 247.757 163.756 246.94V236.359ZM175.281 245.866H171.103V244.18H175.281C176.091 244.18 176.746 244.051 177.247 243.793C177.749 243.535 178.114 243.177 178.343 242.719C178.579 242.26 178.697 241.738 178.697 241.15C178.697 240.613 178.579 240.108 178.343 239.636C178.114 239.163 177.749 238.784 177.247 238.497C176.746 238.203 176.091 238.057 175.281 238.057H171.586V252H169.513V236.359H175.281C176.463 236.359 177.462 236.563 178.279 236.972C179.095 237.38 179.714 237.946 180.137 238.669C180.559 239.385 180.771 240.205 180.771 241.129C180.771 242.132 180.559 242.987 180.137 243.696C179.714 244.405 179.095 244.946 178.279 245.318C177.462 245.684 176.463 245.866 175.281 245.866Z" fill="#193E2C"/>
<path d="M326.388 218.911V225.002C326.159 225.296 325.797 225.614 325.303 225.958C324.816 226.302 324.178 226.599 323.391 226.85C322.603 227.093 321.636 227.215 320.49 227.215C319.495 227.215 318.585 227.05 317.762 226.721C316.938 226.384 316.229 225.894 315.635 225.249C315.04 224.604 314.582 223.817 314.26 222.886C313.938 221.955 313.776 220.891 313.776 219.695V218.664C313.776 217.468 313.927 216.405 314.228 215.474C314.535 214.543 314.972 213.755 315.538 213.11C316.111 212.466 316.795 211.975 317.59 211.639C318.392 211.302 319.287 211.134 320.275 211.134C321.6 211.134 322.689 211.352 323.541 211.789C324.4 212.226 325.059 212.827 325.518 213.594C325.976 214.353 326.262 215.227 326.377 216.215H323.498C323.419 215.671 323.262 215.194 323.025 214.786C322.789 214.371 322.452 214.049 322.016 213.819C321.586 213.583 321.027 213.465 320.34 213.465C319.76 213.465 319.248 213.579 318.804 213.809C318.36 214.038 317.987 214.371 317.687 214.808C317.386 215.244 317.157 215.785 316.999 216.43C316.849 217.074 316.773 217.812 316.773 218.643V219.695C316.773 220.533 316.859 221.278 317.031 221.93C317.203 222.574 317.45 223.118 317.772 223.562C318.102 223.999 318.507 224.332 318.986 224.562C319.473 224.784 320.025 224.895 320.641 224.895C321.199 224.895 321.661 224.848 322.026 224.755C322.399 224.655 322.696 224.536 322.918 224.4C323.14 224.264 323.312 224.132 323.434 224.003V221.07H320.329V218.911H326.388ZM339.547 224.68V227H331.232V224.68H339.547ZM332.135 211.359V227H329.181V211.359H332.135ZM338.462 217.815V220.082H331.232V217.815H338.462ZM339.515 211.359V213.69H331.232V211.359H339.515ZM354.167 211.359V227H351.202L344.553 216.15V227H341.599V211.359H344.553L351.224 222.22V211.359H354.167ZM369.84 218.782V219.588C369.84 220.77 369.682 221.833 369.367 222.778C369.052 223.716 368.604 224.515 368.024 225.174C367.444 225.833 366.753 226.338 365.951 226.688C365.149 227.039 364.257 227.215 363.276 227.215C362.31 227.215 361.422 227.039 360.612 226.688C359.81 226.338 359.116 225.833 358.528 225.174C357.941 224.515 357.486 223.716 357.164 222.778C356.842 221.833 356.681 220.77 356.681 219.588V218.782C356.681 217.593 356.842 216.53 357.164 215.592C357.486 214.654 357.938 213.855 358.518 213.196C359.098 212.53 359.789 212.022 360.591 211.671C361.4 211.32 362.288 211.145 363.255 211.145C364.236 211.145 365.128 211.32 365.93 211.671C366.732 212.022 367.423 212.53 368.003 213.196C368.59 213.855 369.041 214.654 369.356 215.592C369.679 216.53 369.84 217.593 369.84 218.782ZM366.854 219.588V218.761C366.854 217.909 366.775 217.16 366.617 216.516C366.46 215.864 366.227 215.316 365.919 214.872C365.611 214.428 365.231 214.095 364.78 213.873C364.329 213.644 363.821 213.529 363.255 213.529C362.682 213.529 362.174 213.644 361.729 213.873C361.293 214.095 360.92 214.428 360.612 214.872C360.304 215.316 360.068 215.864 359.903 216.516C359.746 217.16 359.667 217.909 359.667 218.761V219.588C359.667 220.433 359.746 221.181 359.903 221.833C360.068 222.485 360.304 223.036 360.612 223.487C360.927 223.931 361.307 224.268 361.751 224.497C362.195 224.726 362.703 224.841 363.276 224.841C363.849 224.841 364.358 224.726 364.802 224.497C365.246 224.268 365.618 223.931 365.919 223.487C366.227 223.036 366.46 222.485 366.617 221.833C366.775 221.181 366.854 220.433 366.854 219.588ZM378.326 213.733L373.868 227H370.742L376.586 211.359H378.584L378.326 213.733ZM382.054 227L377.574 213.733L377.306 211.359H379.314L385.19 227H382.054ZM381.85 221.188V223.52H373.46V221.188H381.85ZM253.846 246.68V249H245.531V246.68H253.846ZM246.434 233.359V249H243.479V233.359H246.434ZM252.761 239.815V242.082H245.531V239.815H252.761ZM253.813 233.359V235.69H245.531V233.359H253.813ZM268.466 233.359V249H265.501L258.852 238.15V249H255.897V233.359H258.852L265.522 244.22V233.359H268.466ZM277.865 233.359V249H274.922V233.359H277.865ZM282.721 233.359V235.69H270.12V233.359H282.721ZM284.687 233.359H290.369C291.558 233.359 292.578 233.538 293.431 233.896C294.283 234.255 294.938 234.785 295.396 235.486C295.855 236.188 296.084 237.051 296.084 238.075C296.084 238.884 295.941 239.586 295.654 240.181C295.368 240.775 294.963 241.273 294.44 241.674C293.925 242.075 293.316 242.39 292.614 242.619L291.69 243.092H286.674L286.652 240.761H290.401C291.01 240.761 291.515 240.653 291.916 240.438C292.317 240.224 292.618 239.926 292.818 239.547C293.026 239.167 293.13 238.734 293.13 238.247C293.13 237.724 293.03 237.273 292.829 236.894C292.629 236.507 292.324 236.21 291.916 236.002C291.508 235.794 290.992 235.69 290.369 235.69H287.641V249H284.687V233.359ZM293.517 249L289.896 241.996L293.022 241.985L296.686 248.85V249H293.517ZM309.039 246.68V249H300.725V246.68H309.039ZM301.627 233.359V249H298.673V233.359H301.627ZM307.954 239.815V242.082H300.725V239.815H307.954ZM309.007 233.359V235.69H300.725V233.359H309.007ZM317.106 243.296H313.078V240.976H317.106C317.765 240.976 318.299 240.868 318.707 240.653C319.122 240.431 319.427 240.131 319.62 239.751C319.813 239.364 319.91 238.924 319.91 238.43C319.91 237.95 319.813 237.502 319.62 237.087C319.427 236.672 319.122 236.335 318.707 236.077C318.299 235.819 317.765 235.69 317.106 235.69H314.045V249H311.091V233.359H317.106C318.324 233.359 319.362 233.578 320.222 234.015C321.088 234.444 321.747 235.042 322.198 235.809C322.657 236.568 322.886 237.434 322.886 238.408C322.886 239.418 322.657 240.288 322.198 241.019C321.747 241.749 321.088 242.311 320.222 242.705C319.362 243.099 318.324 243.296 317.106 243.296ZM325.206 233.359H330.889C332.077 233.359 333.098 233.538 333.95 233.896C334.802 234.255 335.458 234.785 335.916 235.486C336.374 236.188 336.604 237.051 336.604 238.075C336.604 238.884 336.46 239.586 336.174 240.181C335.887 240.775 335.483 241.273 334.96 241.674C334.444 242.075 333.836 242.39 333.134 242.619L332.21 243.092H327.193L327.172 240.761H330.921C331.53 240.761 332.035 240.653 332.436 240.438C332.837 240.224 333.137 239.926 333.338 239.547C333.546 239.167 333.649 238.734 333.649 238.247C333.649 237.724 333.549 237.273 333.349 236.894C333.148 236.507 332.844 236.21 332.436 236.002C332.027 235.794 331.512 235.69 330.889 235.69H328.16V249H325.206V233.359ZM334.036 249L330.416 241.996L333.542 241.985L337.205 248.85V249H334.036ZM349.559 246.68V249H341.244V246.68H349.559ZM342.146 233.359V249H339.192V233.359H342.146ZM348.474 239.815V242.082H341.244V239.815H348.474ZM349.526 233.359V235.69H341.244V233.359H349.526ZM364.179 233.359V249H361.214L354.564 238.15V249H351.61V233.359H354.564L361.235 244.22V233.359H364.179ZM375.888 233.359H378.842V243.747C378.842 244.943 378.584 245.949 378.068 246.766C377.553 247.575 376.851 248.187 375.963 248.603C375.075 249.011 374.065 249.215 372.934 249.215C371.788 249.215 370.767 249.011 369.872 248.603C368.977 248.187 368.275 247.575 367.767 246.766C367.258 245.949 367.004 244.943 367.004 243.747V233.359H369.958V243.747C369.958 244.478 370.08 245.076 370.323 245.541C370.567 245.999 370.91 246.34 371.354 246.562C371.799 246.784 372.325 246.895 372.934 246.895C373.549 246.895 374.076 246.784 374.513 246.562C374.957 246.34 375.297 245.999 375.533 245.541C375.77 245.076 375.888 244.478 375.888 243.747V233.359ZM392.012 246.68V249H383.697V246.68H392.012ZM384.6 233.359V249H381.646V233.359H384.6ZM390.927 239.815V242.082H383.697V239.815H390.927ZM391.979 233.359V235.69H383.697V233.359H391.979ZM394.063 233.359H399.746C400.935 233.359 401.955 233.538 402.808 233.896C403.66 234.255 404.315 234.785 404.773 235.486C405.232 236.188 405.461 237.051 405.461 238.075C405.461 238.884 405.318 239.586 405.031 240.181C404.745 240.775 404.34 241.273 403.817 241.674C403.302 242.075 402.693 242.39 401.991 242.619L401.067 243.092H396.051L396.029 240.761H399.778C400.387 240.761 400.892 240.653 401.293 240.438C401.694 240.224 401.995 239.926 402.195 239.547C402.403 239.167 402.507 238.734 402.507 238.247C402.507 237.724 402.407 237.273 402.206 236.894C402.006 236.507 401.701 236.21 401.293 236.002C400.885 235.794 400.369 235.69 399.746 235.69H397.018V249H394.063V233.359ZM402.894 249L399.273 241.996L402.399 241.985L406.062 248.85V249H402.894ZM416.235 244.939C416.235 244.639 416.189 244.37 416.096 244.134C416.01 243.89 415.849 243.672 415.612 243.479C415.383 243.278 415.057 243.085 414.635 242.898C414.219 242.705 413.682 242.505 413.023 242.297C412.293 242.068 411.613 241.81 410.982 241.523C410.352 241.237 409.797 240.904 409.317 240.524C408.845 240.145 408.476 239.708 408.211 239.214C407.946 238.713 407.813 238.132 407.813 237.474C407.813 236.829 407.95 236.242 408.222 235.712C408.501 235.182 408.895 234.727 409.403 234.348C409.912 233.961 410.51 233.664 411.197 233.456C411.892 233.248 412.658 233.145 413.496 233.145C414.656 233.145 415.659 233.356 416.504 233.778C417.356 234.201 418.015 234.774 418.48 235.497C418.946 236.22 419.179 237.033 419.179 237.936H416.235C416.235 237.449 416.132 237.019 415.924 236.646C415.723 236.274 415.415 235.98 415 235.766C414.592 235.551 414.076 235.443 413.453 235.443C412.852 235.443 412.35 235.533 411.949 235.712C411.555 235.891 411.258 236.134 411.058 236.442C410.864 236.75 410.768 237.094 410.768 237.474C410.768 237.76 410.836 238.018 410.972 238.247C411.108 238.469 411.312 238.68 411.584 238.881C411.856 239.074 412.193 239.257 412.594 239.429C413.002 239.593 413.475 239.758 414.012 239.923C414.871 240.181 415.623 240.467 416.268 240.782C416.919 241.097 417.46 241.455 417.89 241.856C418.326 242.257 418.652 242.709 418.867 243.21C419.089 243.711 419.2 244.281 419.2 244.918C419.2 245.591 419.068 246.193 418.803 246.723C418.538 247.253 418.158 247.704 417.664 248.076C417.17 248.449 416.576 248.731 415.881 248.925C415.193 249.118 414.424 249.215 413.571 249.215C412.812 249.215 412.06 249.115 411.315 248.914C410.578 248.706 409.908 248.398 409.307 247.99C408.705 247.575 408.225 247.052 407.867 246.422C407.509 245.785 407.33 245.04 407.33 244.188H410.295C410.295 244.682 410.374 245.104 410.531 245.455C410.696 245.799 410.925 246.082 411.219 246.304C411.52 246.519 411.87 246.676 412.271 246.776C412.673 246.877 413.106 246.927 413.571 246.927C414.173 246.927 414.667 246.844 415.054 246.68C415.448 246.508 415.741 246.271 415.935 245.971C416.135 245.67 416.235 245.326 416.235 244.939ZM431.854 239.815V242.136H423.626V239.815H431.854ZM424.432 233.359V249H421.478V233.359H424.432ZM434.046 233.359V249H431.092V233.359H434.046ZM440.201 233.359V249H437.247V233.359H440.201ZM449.407 243.296H445.379V240.976H449.407C450.066 240.976 450.6 240.868 451.008 240.653C451.423 240.431 451.728 240.131 451.921 239.751C452.114 239.364 452.211 238.924 452.211 238.43C452.211 237.95 452.114 237.502 451.921 237.087C451.728 236.672 451.423 236.335 451.008 236.077C450.6 235.819 450.066 235.69 449.407 235.69H446.346V249H443.392V233.359H449.407C450.625 233.359 451.663 233.578 452.522 234.015C453.389 234.444 454.048 235.042 454.499 235.809C454.957 236.568 455.187 237.434 455.187 238.408C455.187 239.418 454.957 240.288 454.499 241.019C454.048 241.749 453.389 242.311 452.522 242.705C451.663 243.099 450.625 243.296 449.407 243.296ZM315.86 266.939C315.86 266.639 315.814 266.37 315.721 266.134C315.635 265.89 315.474 265.672 315.237 265.479C315.008 265.278 314.682 265.085 314.26 264.898C313.844 264.705 313.307 264.505 312.648 264.297C311.918 264.068 311.238 263.81 310.607 263.523C309.977 263.237 309.422 262.904 308.942 262.524C308.47 262.145 308.101 261.708 307.836 261.214C307.571 260.713 307.438 260.132 307.438 259.474C307.438 258.829 307.575 258.242 307.847 257.712C308.126 257.182 308.52 256.727 309.028 256.348C309.537 255.961 310.135 255.664 310.822 255.456C311.517 255.248 312.283 255.145 313.121 255.145C314.281 255.145 315.284 255.356 316.129 255.778C316.981 256.201 317.64 256.774 318.105 257.497C318.571 258.22 318.804 259.033 318.804 259.936H315.86C315.86 259.449 315.757 259.019 315.549 258.646C315.348 258.274 315.04 257.98 314.625 257.766C314.217 257.551 313.701 257.443 313.078 257.443C312.477 257.443 311.975 257.533 311.574 257.712C311.18 257.891 310.883 258.134 310.683 258.442C310.489 258.75 310.393 259.094 310.393 259.474C310.393 259.76 310.461 260.018 310.597 260.247C310.733 260.469 310.937 260.68 311.209 260.881C311.481 261.074 311.818 261.257 312.219 261.429C312.627 261.593 313.1 261.758 313.637 261.923C314.496 262.181 315.248 262.467 315.893 262.782C316.544 263.097 317.085 263.455 317.515 263.856C317.951 264.257 318.277 264.709 318.492 265.21C318.714 265.711 318.825 266.281 318.825 266.918C318.825 267.591 318.693 268.193 318.428 268.723C318.163 269.253 317.783 269.704 317.289 270.076C316.795 270.449 316.201 270.731 315.506 270.925C314.818 271.118 314.049 271.215 313.196 271.215C312.437 271.215 311.685 271.115 310.94 270.914C310.203 270.706 309.533 270.398 308.932 269.99C308.33 269.575 307.85 269.052 307.492 268.422C307.134 267.785 306.955 267.04 306.955 266.188H309.92C309.92 266.682 309.999 267.104 310.156 267.455C310.321 267.799 310.55 268.082 310.844 268.304C311.145 268.519 311.495 268.676 311.896 268.776C312.298 268.877 312.731 268.927 313.196 268.927C313.798 268.927 314.292 268.844 314.679 268.68C315.073 268.508 315.366 268.271 315.56 267.971C315.76 267.67 315.86 267.326 315.86 266.939ZM330.255 265.854H333.209C333.13 266.9 332.84 267.827 332.339 268.637C331.838 269.439 331.139 270.069 330.244 270.527C329.349 270.986 328.264 271.215 326.989 271.215C326.008 271.215 325.124 271.043 324.336 270.699C323.555 270.348 322.886 269.851 322.327 269.206C321.776 268.554 321.353 267.774 321.06 266.864C320.766 265.948 320.619 264.92 320.619 263.781V262.589C320.619 261.45 320.77 260.423 321.07 259.506C321.371 258.589 321.801 257.809 322.359 257.164C322.925 256.512 323.602 256.011 324.39 255.66C325.185 255.309 326.073 255.134 327.054 255.134C328.328 255.134 329.406 255.37 330.287 255.843C331.168 256.308 331.852 256.949 332.339 257.766C332.826 258.582 333.119 259.52 333.22 260.58H330.266C330.208 259.921 330.065 259.363 329.836 258.904C329.614 258.446 329.277 258.099 328.826 257.862C328.382 257.619 327.791 257.497 327.054 257.497C326.481 257.497 325.976 257.604 325.539 257.819C325.109 258.034 324.751 258.356 324.465 258.786C324.178 259.209 323.964 259.739 323.82 260.376C323.677 261.006 323.605 261.737 323.605 262.567V263.781C323.605 264.576 323.67 265.289 323.799 265.919C323.928 266.549 324.128 267.083 324.4 267.52C324.673 267.956 325.023 268.289 325.453 268.519C325.883 268.748 326.395 268.862 326.989 268.862C327.713 268.862 328.3 268.748 328.751 268.519C329.209 268.289 329.557 267.953 329.793 267.509C330.036 267.065 330.19 266.513 330.255 265.854ZM345.874 261.815V264.136H337.646V261.815H345.874ZM338.451 255.359V271H335.497V255.359H338.451ZM348.065 255.359V271H345.111V255.359H348.065ZM363.738 262.782V263.588C363.738 264.77 363.581 265.833 363.266 266.778C362.951 267.716 362.503 268.515 361.923 269.174C361.343 269.833 360.652 270.338 359.85 270.688C359.048 271.039 358.156 271.215 357.175 271.215C356.208 271.215 355.32 271.039 354.511 270.688C353.709 270.338 353.014 269.833 352.427 269.174C351.84 268.515 351.385 267.716 351.062 266.778C350.74 265.833 350.579 264.77 350.579 263.588V262.782C350.579 261.593 350.74 260.53 351.062 259.592C351.385 258.654 351.836 257.855 352.416 257.196C352.996 256.53 353.687 256.022 354.489 255.671C355.299 255.32 356.187 255.145 357.153 255.145C358.134 255.145 359.026 255.32 359.828 255.671C360.63 256.022 361.321 256.53 361.901 257.196C362.489 257.855 362.94 258.654 363.255 259.592C363.577 260.53 363.738 261.593 363.738 262.782ZM360.752 263.588V262.761C360.752 261.909 360.673 261.16 360.516 260.516C360.358 259.864 360.125 259.316 359.817 258.872C359.509 258.428 359.13 258.095 358.679 257.873C358.228 257.644 357.719 257.529 357.153 257.529C356.58 257.529 356.072 257.644 355.628 257.873C355.191 258.095 354.819 258.428 354.511 258.872C354.203 259.316 353.966 259.864 353.802 260.516C353.644 261.16 353.565 261.909 353.565 262.761V263.588C353.565 264.433 353.644 265.181 353.802 265.833C353.966 266.485 354.203 267.036 354.511 267.487C354.826 267.931 355.205 268.268 355.649 268.497C356.093 268.726 356.602 268.841 357.175 268.841C357.748 268.841 358.256 268.726 358.7 268.497C359.144 268.268 359.517 267.931 359.817 267.487C360.125 267.036 360.358 266.485 360.516 265.833C360.673 265.181 360.752 264.433 360.752 263.588ZM378.906 262.782V263.588C378.906 264.77 378.749 265.833 378.434 266.778C378.118 267.716 377.671 268.515 377.091 269.174C376.511 269.833 375.82 270.338 375.018 270.688C374.215 271.039 373.324 271.215 372.343 271.215C371.376 271.215 370.488 271.039 369.679 270.688C368.877 270.338 368.182 269.833 367.595 269.174C367.007 268.515 366.553 267.716 366.23 266.778C365.908 265.833 365.747 264.77 365.747 263.588V262.782C365.747 261.593 365.908 260.53 366.23 259.592C366.553 258.654 367.004 257.855 367.584 257.196C368.164 256.53 368.855 256.022 369.657 255.671C370.466 255.32 371.354 255.145 372.321 255.145C373.302 255.145 374.194 255.32 374.996 255.671C375.798 256.022 376.489 256.53 377.069 257.196C377.657 257.855 378.108 258.654 378.423 259.592C378.745 260.53 378.906 261.593 378.906 262.782ZM375.92 263.588V262.761C375.92 261.909 375.841 261.16 375.684 260.516C375.526 259.864 375.293 259.316 374.985 258.872C374.677 258.428 374.298 258.095 373.847 257.873C373.396 257.644 372.887 257.529 372.321 257.529C371.748 257.529 371.24 257.644 370.796 257.873C370.359 258.095 369.987 258.428 369.679 258.872C369.371 259.316 369.134 259.864 368.97 260.516C368.812 261.16 368.733 261.909 368.733 262.761V263.588C368.733 264.433 368.812 265.181 368.97 265.833C369.134 266.485 369.371 267.036 369.679 267.487C369.994 267.931 370.373 268.268 370.817 268.497C371.261 268.726 371.77 268.841 372.343 268.841C372.916 268.841 373.424 268.726 373.868 268.497C374.312 268.268 374.685 267.931 374.985 267.487C375.293 267.036 375.526 266.485 375.684 265.833C375.841 265.181 375.92 264.433 375.92 263.588ZM391.335 268.68V271H383.472V268.68H391.335ZM384.363 255.359V271H381.409V255.359H384.363Z" fill="#FCFAF2"/>
<path d="M529.491 236.359V252H527.45V236.359H529.491ZM534.519 236.359V238.057H522.434V236.359H534.519ZM549.02 243.686V244.674C549.02 245.848 548.873 246.901 548.58 247.832C548.286 248.763 547.864 249.554 547.312 250.206C546.761 250.858 546.098 251.355 545.325 251.699C544.559 252.043 543.699 252.215 542.747 252.215C541.823 252.215 540.974 252.043 540.201 251.699C539.435 251.355 538.768 250.858 538.203 250.206C537.644 249.554 537.211 248.763 536.903 247.832C536.595 246.901 536.441 245.848 536.441 244.674V243.686C536.441 242.511 536.591 241.462 536.892 240.538C537.2 239.607 537.633 238.816 538.192 238.164C538.751 237.505 539.413 237.004 540.179 236.66C540.953 236.316 541.801 236.145 542.725 236.145C543.678 236.145 544.537 236.316 545.303 236.66C546.077 237.004 546.739 237.505 547.291 238.164C547.849 238.816 548.275 239.607 548.569 240.538C548.87 241.462 549.02 242.511 549.02 243.686ZM546.968 244.674V243.664C546.968 242.733 546.872 241.91 546.678 241.193C546.492 240.477 546.216 239.876 545.851 239.389C545.486 238.902 545.038 238.533 544.508 238.282C543.986 238.032 543.391 237.906 542.725 237.906C542.081 237.906 541.497 238.032 540.974 238.282C540.459 238.533 540.015 238.902 539.642 239.389C539.277 239.876 538.994 240.477 538.794 241.193C538.593 241.91 538.493 242.733 538.493 243.664V244.674C538.493 245.612 538.593 246.443 538.794 247.166C538.994 247.882 539.281 248.487 539.653 248.981C540.032 249.468 540.48 249.837 540.996 250.088C541.518 250.339 542.102 250.464 542.747 250.464C543.42 250.464 544.018 250.339 544.541 250.088C545.063 249.837 545.504 249.468 545.862 248.981C546.227 248.487 546.503 247.882 546.689 247.166C546.875 246.443 546.968 245.612 546.968 244.674ZM558.333 245.866H554.154V244.18H558.333C559.142 244.18 559.798 244.051 560.299 243.793C560.8 243.535 561.166 243.177 561.395 242.719C561.631 242.26 561.749 241.738 561.749 241.15C561.749 240.613 561.631 240.108 561.395 239.636C561.166 239.163 560.8 238.784 560.299 238.497C559.798 238.203 559.142 238.057 558.333 238.057H554.638V252H552.565V236.359H558.333C559.515 236.359 560.514 236.563 561.33 236.972C562.147 237.38 562.766 237.946 563.189 238.669C563.611 239.385 563.822 240.205 563.822 241.129C563.822 242.132 563.611 242.987 563.189 243.696C562.766 244.405 562.147 244.946 561.33 245.318C560.514 245.684 559.515 245.866 558.333 245.866ZM577.013 252H573.747L573.769 250.313H577.013C578.13 250.313 579.061 250.081 579.806 249.615C580.551 249.143 581.109 248.484 581.482 247.639C581.861 246.786 582.051 245.791 582.051 244.652V243.696C582.051 242.801 581.944 242.006 581.729 241.312C581.514 240.61 581.199 240.019 580.783 239.539C580.368 239.052 579.86 238.683 579.258 238.433C578.664 238.182 577.98 238.057 577.206 238.057H573.683V236.359H577.206C578.23 236.359 579.165 236.531 580.01 236.875C580.855 237.212 581.582 237.702 582.191 238.347C582.807 238.984 583.279 239.757 583.609 240.667C583.938 241.569 584.103 242.586 584.103 243.718V244.652C584.103 245.784 583.938 246.804 583.609 247.714C583.279 248.616 582.803 249.386 582.18 250.023C581.564 250.661 580.819 251.151 579.946 251.495C579.079 251.832 578.102 252 577.013 252ZM574.854 236.359V252H572.781V236.359H574.854ZM599.7 243.686V244.674C599.7 245.848 599.553 246.901 599.26 247.832C598.966 248.763 598.543 249.554 597.992 250.206C597.441 250.858 596.778 251.355 596.005 251.699C595.238 252.043 594.379 252.215 593.427 252.215C592.503 252.215 591.654 252.043 590.881 251.699C590.114 251.355 589.448 250.858 588.883 250.206C588.324 249.554 587.891 248.763 587.583 247.832C587.275 246.901 587.121 245.848 587.121 244.674V243.686C587.121 242.511 587.271 241.462 587.572 240.538C587.88 239.607 588.313 238.816 588.872 238.164C589.431 237.505 590.093 237.004 590.859 236.66C591.633 236.316 592.481 236.145 593.405 236.145C594.358 236.145 595.217 236.316 595.983 236.66C596.757 237.004 597.419 237.505 597.971 238.164C598.529 238.816 598.955 239.607 599.249 240.538C599.55 241.462 599.7 242.511 599.7 243.686ZM597.648 244.674V243.664C597.648 242.733 597.552 241.91 597.358 241.193C597.172 240.477 596.896 239.876 596.531 239.389C596.166 238.902 595.718 238.533 595.188 238.282C594.666 238.032 594.071 237.906 593.405 237.906C592.761 237.906 592.177 238.032 591.654 238.282C591.139 238.533 590.695 238.902 590.322 239.389C589.957 239.876 589.674 240.477 589.473 241.193C589.273 241.91 589.173 242.733 589.173 243.664V244.674C589.173 245.612 589.273 246.443 589.473 247.166C589.674 247.882 589.96 248.487 590.333 248.981C590.712 249.468 591.16 249.837 591.676 250.088C592.198 250.339 592.782 250.464 593.427 250.464C594.1 250.464 594.698 250.339 595.221 250.088C595.743 249.837 596.184 249.468 596.542 248.981C596.907 248.487 597.183 247.882 597.369 247.166C597.555 246.443 597.648 245.612 597.648 244.674ZM607.359 247.273L610.463 236.359H611.967L611.097 240.603L607.756 252H606.263L607.359 247.273ZM604.147 236.359L606.618 247.059L607.359 252H605.876L602.084 236.359H604.147ZM615.985 247.048L618.402 236.359H620.475L616.694 252H615.211L615.985 247.048ZM612.193 236.359L615.211 247.273L616.307 252H614.814L611.591 240.603L610.71 236.359H612.193ZM635.245 236.359V252H633.161L625.287 239.937V252H623.214V236.359H625.287L633.193 248.455V236.359H635.245Z" fill="#193E2C"/>
<defs>
<linearGradient id="paint0_linear_1308_286" x1="172.279" y1="172.279" x2="344.558" y2="344.558" gradientUnits="userSpaceOnUse">
<stop stop-color="#D7E2C7"/>
<stop offset="1" stop-color="#D7E2C7" stop-opacity="0"/>
</linearGradient>
<linearGradient id="paint1_linear_1308_286" x1="172.279" y1="172.279" x2="344.558" y2="344.558" gradientUnits="userSpaceOnUse">
<stop stop-color="#D7E2C7"/>
<stop offset="1" stop-color="#D7E2C7" stop-opacity="0"/>
</linearGradient>
<radialGradient id="paint2_radial_1308_286" cx="0" cy="0" r="1" gradientUnits="userSpaceOnUse" gradientTransform="translate(349.184 243.5) rotate(-180) scale(138.184 138.287)">
<stop stop-color="#6EBB48"/>
<stop offset="1" stop-color="#6EBB48" stop-opacity="0"/>
</radialGradient>
</defs>
</svg>
