<svg xmlns="http://www.w3.org/2000/svg" width="47" height="20" viewBox="0 0 47 20" fill="none"><path d="M4.87182 4.98678H7.54821V9.3706C6.65451 9.55169 5.97013 9.64341 5.2199 9.64341C2.28481 9.64341 1.25 7.96185 1.25 5.19374C1.25 2.21867 2.68462 0.537109 5.54445 0.537109C5.90663 0.537109 6.59102 0.56298 7.44473 0.69233V3.49807H6.82385L6.47342 2.42563C6.13711 1.40494 5.7373 0.899292 5.1023 0.899292C4.004 0.899292 3.42074 2.38565 3.42074 5.16787C3.42074 7.96185 3.65357 9.28123 5.08819 9.28123C5.2834 9.28123 5.51388 9.25536 5.73495 9.19186V5.92986L4.86947 5.33485V4.98678H4.87182ZM7.49647 16.7554C7.49647 18.5145 6.29468 19.5235 4.17333 19.5235C3.59243 19.5235 2.73871 19.4341 1.93674 19.3024V15.864H2.55762L2.81632 16.6777C3.39722 18.5522 3.81115 19.173 4.54962 19.173C5.32573 19.173 5.88076 18.4887 5.88076 17.5832C5.88076 16.8471 5.53269 16.3297 4.78246 15.9275L3.48895 15.229C2.49177 14.6999 1.94849 13.872 1.94849 12.8631C1.94849 11.3367 3.20202 10.4195 5.25988 10.4195C5.72554 10.4195 6.26881 10.4595 7.13429 10.5747V13.3805H6.5134L6.16533 12.308C5.81491 11.1698 5.44097 10.7558 4.75658 10.7558C3.99224 10.7558 3.54069 11.2474 3.54069 11.9576C3.54069 12.5903 3.89111 13.0442 4.57549 13.4322L5.88076 14.1683C6.97907 14.7892 7.49647 15.6171 7.49647 16.7554ZM13.2138 18.7873L13.4725 19.1754V19.3706H11.4946L11.4029 18.6204C11.1959 19.1895 10.6526 19.5258 9.95414 19.5258C8.91933 19.5258 8.27258 18.8791 8.27258 17.8184C8.27258 16.7836 8.85348 16.0992 10.6385 15.4007L11.4005 15.1044V14.1354C11.4005 13.2817 11.2453 12.9336 10.7679 12.9336C10.3798 12.9336 10.1611 13.1406 9.78481 14.0837L9.35912 15.1396H8.77822V13.0301C9.54022 12.7972 10.3046 12.642 10.9631 12.642C12.4236 12.642 13.2138 13.3405 13.2138 14.6081V18.7873ZM13.9617 6.20268C13.9617 8.40164 12.7857 9.64341 11.2712 9.64341C9.75894 9.64341 8.58302 8.40164 8.58302 6.20268C8.58302 4.00371 9.75894 2.76194 11.2735 2.76194C12.7857 2.76194 13.9617 4.00371 13.9617 6.20268ZM11.4029 17.7008V15.4642L11.1583 15.5677C10.3939 15.8781 10.1094 16.5766 10.1094 17.5973C10.1094 18.3617 10.2905 18.7991 10.7161 18.7991C11.1418 18.7991 11.4029 18.3852 11.4029 17.7008ZM12.0614 6.20268C12.0614 3.71914 11.8544 3.06063 11.2735 3.06063C10.6926 3.06063 10.4857 3.71914 10.4857 6.20268C10.4857 8.68622 10.6926 9.34473 11.2735 9.34473C11.8544 9.34473 12.0614 8.68622 12.0614 6.20268ZM18.5548 17.7643L18.7876 17.8819C18.3737 19.0719 17.8445 19.5235 16.8215 19.5235C15.154 19.5235 14.2227 18.2699 14.2227 16.0827C14.2227 13.8979 15.3093 12.642 17.0802 12.642C17.5576 12.642 18.1926 12.7196 18.7359 12.9383V15.1373H18.1291L17.8845 14.3095C17.56 13.2111 17.3812 12.9266 17.0567 12.9266C16.5393 12.9266 16.1254 13.5992 16.1254 16.1603C16.1254 18.2158 16.4358 18.9661 17.2237 18.9661C17.7528 18.9684 18.2044 18.6321 18.5548 17.7643ZM17.1178 9.48819H14.7895V9.29534L15.0482 8.90729V1.68951L14.7895 1.30146V1.10625L16.8591 0.951032V8.90494L17.1178 9.29299V9.48819ZM20.2999 9.64341C18.877 9.64341 18.0233 8.3499 18.0233 6.13918C18.0233 3.94021 18.9146 2.7643 20.2857 2.7643C20.9842 2.7643 21.3723 3.03476 21.5393 3.57803V1.68951L21.2806 1.30146V1.10625L23.3502 0.951032V8.90494L23.6089 9.29299V9.48584H21.7721L21.631 8.50277C21.4264 9.34473 21.0383 9.64341 20.2999 9.64341ZM24.8389 18.7873L25.0976 19.1754V19.3706H22.7693V19.1754L23.028 18.7873V14.1307C23.028 13.5757 22.861 13.2394 22.4588 13.2394C21.9791 13.2394 21.631 13.6415 21.631 14.4294V18.7873L21.8897 19.1754V19.3706H19.5614V19.1754L19.8201 18.7873V11.5696L19.5614 11.1815V10.9887L21.631 10.8334V13.5098C21.8638 12.9548 22.393 12.6444 23.1432 12.6444C24.2039 12.6444 24.8365 13.317 24.8365 14.6222V18.7873H24.8389ZM19.9259 6.1627C19.9259 8.49101 20.1329 9.20127 20.702 9.20127C21.4123 9.20127 21.5416 8.18057 21.5416 6.13683C21.5416 4.15893 21.4005 3.17587 20.7138 3.17587C20.1329 3.17587 19.9259 3.87436 19.9259 6.1627ZM32.9104 8.90494L33.1691 9.29299V9.48584H30.8408V9.29299L31.0995 8.90494V4.10719C31.0995 3.64153 30.9443 3.35696 30.5821 3.35696C30.1305 3.35696 29.7683 3.75912 29.7683 4.53288V8.90494L30.027 9.29299V9.48584H27.6987V9.29299L27.9574 8.90494V4.10719C27.9574 3.64153 27.8022 3.35696 27.44 3.35696C26.9885 3.35696 26.6263 3.75912 26.6263 4.53288V8.90494L26.885 9.29299V9.48584H24.5567V9.29299L24.8154 8.90494V3.64153L24.5567 3.33109V3.13824L26.4193 2.91717H26.5746L26.6263 3.64153C26.845 3.07239 27.3883 2.76194 28.1268 2.76194C28.9146 2.76194 29.432 3.15 29.6649 3.84849C29.8577 3.17587 30.4668 2.76194 31.2429 2.76194C32.2636 2.76194 32.9104 3.43457 32.9104 4.73984V8.90494ZM30.4927 17.468C30.4927 18.5921 29.7683 19.5235 28.0233 19.5235C27.5717 19.5235 26.9626 19.4717 26.0195 19.3024V16.8988H26.5487L26.7157 17.4162C27.1296 18.7356 27.5294 19.2271 28.1644 19.2271C28.7594 19.2271 29.1475 18.7991 29.1475 18.1406C29.1475 17.5973 28.8746 17.2234 28.2302 16.8729L27.1178 16.2779C26.4076 15.8899 26.0195 15.2831 26.0195 14.5329C26.0195 13.357 26.9391 12.6444 28.4631 12.6444C28.9029 12.6444 29.472 12.7079 30.0929 12.8372V14.7257H29.5637L29.2909 14.039C28.9805 13.2111 28.6841 12.9407 28.1926 12.9407C27.6635 12.9407 27.353 13.2511 27.353 13.7685C27.353 14.2083 27.6117 14.5047 28.2444 14.8668L29.3427 15.4877C30.0905 15.9158 30.4927 16.5225 30.4927 17.468ZM38.8605 8.90494L39.1192 9.29299V9.48584H37.1413L37.052 8.7356C36.845 9.30475 36.3017 9.64106 35.6032 9.64106C34.5684 9.64106 33.9217 8.99431 33.9217 7.93363C33.9217 6.89882 34.5026 6.21444 36.2876 5.51594L37.0496 5.21961V4.25066C37.0496 3.39694 36.8944 3.04887 36.417 3.04887C36.0289 3.04887 35.8102 3.25583 35.4339 4.19892L35.0082 5.25959H34.425V3.15235C35.1893 2.91952 35.9513 2.7643 36.6098 2.7643C38.0703 2.7643 38.8605 3.46279 38.8605 4.73043V8.90494ZM37.0496 7.81839V5.58179L36.805 5.68527C36.043 5.99572 35.7585 6.69421 35.7585 7.71491C35.7585 8.47925 35.9396 8.91905 36.3652 8.91905C36.7909 8.91905 37.0496 8.50512 37.0496 7.81839ZM45.5068 9.29299V9.48584H43.1785V9.29299L43.4372 8.90494V4.2483C43.4372 3.69092 43.2702 3.35696 42.8681 3.35696C42.3883 3.35696 42.0402 3.75912 42.0402 4.54699V8.90494L42.2989 9.29299V9.48584H39.9706V9.29299L40.2293 8.90494V3.64153L39.9706 3.33109V3.13824L41.8333 2.91717H41.9885L42.0402 3.64153C42.2589 3.07239 42.7904 2.76194 43.5524 2.76194C44.6131 2.76194 45.2458 3.43457 45.2458 4.73984V8.90494L45.5068 9.29299Z" fill="black"></path></svg>