<svg xmlns="http://www.w3.org/2000/svg" width="122" height="40" viewBox="0 0 122 40" fill="none"><path d="M29.9848 14.1283H15.7556V18.3531H25.8478C25.3478 24.2667 20.4232 26.8049 15.7726 26.8049C14.2993 26.8114 12.8395 26.5242 11.4783 25.9599C10.1172 25.3957 8.88205 24.5657 7.84497 23.5186C6.8079 22.4715 5.98969 21.2281 5.43812 19.8611C4.88655 18.4941 4.61266 17.0308 4.63245 15.5567C4.63245 9.16096 9.58085 4.2368 15.7862 4.2368C20.5733 4.2368 23.3941 7.29024 23.3941 7.29024L26.349 4.22656C26.349 4.22656 22.5531 -0.000488281 15.6317 -0.000488281C6.81797 -0.000488281 0 7.44262 0 15.4816C0 23.3592 6.41337 31.0411 15.8544 31.0411C24.159 31.0411 30.2382 25.3482 30.2382 16.9305C30.2382 15.1541 29.9802 14.1283 29.9802 14.1283H29.9848Z" fill="#FCFAF2"></path><path d="M41.6393 11.0675C35.7999 11.0675 31.6152 15.6358 31.6152 20.9614C31.6152 26.3677 35.6726 31.0201 41.7075 31.0201C47.1696 31.0201 51.6441 26.8431 51.6441 21.0774C51.6441 14.4815 46.4388 11.0664 41.6393 11.0664V11.0675ZM41.6961 14.9864C44.567 14.9864 47.2878 17.3098 47.2878 21.0523C47.2878 24.7142 44.5784 27.1046 41.6825 27.1046C38.5003 27.1046 35.9999 24.555 35.9999 21.0228C35.9999 17.5656 38.4775 14.9864 41.7052 14.9864H41.6961Z" fill="#FCFAF2"></path><path d="M63.4381 11.0675C57.5987 11.0675 53.4141 15.6358 53.4141 20.9614C53.4141 26.3677 57.4714 31.0201 63.5063 31.0201C68.9684 31.0201 73.4429 26.8431 73.4429 21.0774C73.4429 14.4815 68.2377 11.0664 63.4381 11.0664V11.0675ZM63.495 14.9864C66.3658 14.9864 69.0866 17.3098 69.0866 21.0523C69.0866 24.7142 66.3772 27.1046 63.4813 27.1046C60.2991 27.1046 57.7988 24.555 57.7988 21.0228C57.7988 17.5656 60.2764 14.9864 63.5041 14.9864H63.495Z" fill="#FCFAF2"></path><path d="M84.8198 11.0801C79.46 11.0801 75.248 15.7768 75.248 21.049C75.248 27.0535 80.1317 31.036 84.7266 31.036C87.5679 31.036 89.0795 29.9068 90.1819 28.6115V30.5789C90.1819 34.0212 88.093 36.083 84.9403 36.083C81.8944 36.083 80.3669 33.8165 79.8259 32.5315L75.9936 34.1236C77.3529 37.0008 80.0896 39.9996 84.9721 39.9996C90.3137 39.9996 94.362 36.6414 94.362 29.5974V11.6794H90.1978V13.3693C88.9135 11.9819 87.1542 11.0801 84.8221 11.0801H84.8198ZM85.2062 14.9921C87.8338 14.9921 90.5319 17.237 90.5319 21.0706C90.5319 24.9678 87.8384 27.1149 85.1483 27.1149C82.291 27.1149 79.6327 24.795 79.6327 21.107C79.6327 17.2768 82.3945 14.991 85.2062 14.991V14.9921Z" fill="#FCFAF2"></path><path d="M84.8198 11.0801C79.46 11.0801 75.248 15.7768 75.248 21.049C75.248 27.0535 80.1317 31.036 84.7266 31.036C87.5679 31.036 89.0795 29.9068 90.1819 28.6115V30.5789C90.1819 34.0212 88.093 36.083 84.9403 36.083C81.8944 36.083 80.3669 33.8165 79.8259 32.5315L75.9936 34.1236C77.3529 37.0008 80.0896 39.9996 84.9721 39.9996C90.3137 39.9996 94.362 36.6414 94.362 29.5974V11.6794H90.1978V13.3693C88.9135 11.9819 87.1542 11.0801 84.8221 11.0801H84.8198ZM85.2062 14.9921C87.8338 14.9921 90.5319 17.237 90.5319 21.0706C90.5319 24.9678 87.8384 27.1149 85.1483 27.1149C82.291 27.1149 79.6327 24.795 79.6327 21.107C79.6327 17.2768 82.3945 14.991 85.2062 14.991V14.9921Z" fill="#FCFAF2"></path><path d="M112.976 11.0552C107.921 11.0552 103.676 15.0809 103.676 21.0172C103.676 27.3015 108.407 31.0282 113.45 31.0282C117.669 31.0282 120.269 28.7196 121.803 26.6499L118.356 24.355C117.462 25.7424 115.966 27.1014 113.471 27.1014C110.669 27.1014 109.38 25.5661 108.581 24.0764L121.95 18.5267L121.268 16.9005C119.977 13.7163 116.964 11.0552 112.977 11.0552H112.976ZM113.15 14.8922C114.972 14.8922 116.282 15.8611 116.839 17.0233L107.91 20.7568C107.524 17.866 110.263 14.8922 113.138 14.8922H113.15Z" fill="#FCFAF2"></path><path d="M97.2891 30.4373H101.681V1.03223H97.2891V30.4373Z" fill="#FCFAF2"></path></svg>