<svg width="74" height="24" viewBox="0 0 74 24" fill="none" xmlns="http://www.w3.org/2000/svg">
<path d="M18.3054 8.47732H9.76781V11.0122H15.8232C15.5231 14.5603 12.5684 16.0833 9.77804 16.0833C8.89405 16.0872 8.01815 15.9148 7.20147 15.5763C6.38479 15.2377 5.64369 14.7398 5.02145 14.1115C4.3992 13.4832 3.90828 12.7372 3.57733 11.917C3.24639 11.0968 3.08206 10.2188 3.09393 9.33433C3.09393 5.49688 6.06298 2.54238 9.78622 2.54238C12.6584 2.54238 14.3509 4.37445 14.3509 4.37445L16.1239 2.53624C16.1239 2.53624 13.8463 0 9.69348 0C4.40525 0 0.314453 4.46588 0.314453 9.2893C0.314453 14.0158 4.16249 18.625 9.82713 18.625C14.8099 18.625 18.4574 15.2092 18.4574 10.1586C18.4574 9.09279 18.3026 8.47732 18.3026 8.47732H18.3054Z" fill="#FCFAF2"/>
<path d="M25.2996 6.64118C21.796 6.64118 19.2852 9.38212 19.2852 12.5775C19.2852 15.8213 21.7196 18.6127 25.3405 18.6127C28.6178 18.6127 31.3025 16.1065 31.3025 12.6471C31.3025 8.68955 28.1793 6.6405 25.2996 6.6405V6.64118ZM25.3337 8.99251C27.0562 8.99251 28.6887 10.3865 28.6887 12.6321C28.6887 14.8292 27.0631 16.2635 25.3255 16.2635C23.4162 16.2635 21.916 14.7337 21.916 12.6143C21.916 10.54 23.4025 8.99251 25.3392 8.99251H25.3337Z" fill="#FCFAF2"/>
<path d="M38.3797 6.64118C34.876 6.64118 32.3652 9.38212 32.3652 12.5775C32.3652 15.8213 34.7997 18.6127 38.4206 18.6127C41.6979 18.6127 44.3826 16.1065 44.3826 12.6471C44.3826 8.68955 41.2594 6.6405 38.3797 6.6405V6.64118ZM38.4138 8.99251C40.1363 8.99251 41.7688 10.3865 41.7688 12.6321C41.7688 14.8292 40.1431 16.2635 38.4056 16.2635C36.4963 16.2635 34.9961 14.7337 34.9961 12.6143C34.9961 10.54 36.4826 8.99251 38.4193 8.99251H38.4138Z" fill="#FCFAF2"/>
<path d="M51.2079 6.64822C47.992 6.64822 45.4648 9.46626 45.4648 12.6296C45.4648 16.2323 48.395 18.6218 51.152 18.6218C52.8568 18.6218 53.7637 17.9443 54.4252 17.1671V18.3475C54.4252 20.413 53.1718 21.65 51.2802 21.65C49.4527 21.65 48.5362 20.2901 48.2116 19.5191L45.9122 20.4744C46.7277 22.2007 48.3698 24 51.2993 24C54.5043 24 56.9332 21.9851 56.9332 17.7587V7.00781H54.4347V8.02176C53.6642 7.18932 52.6086 6.64822 51.2093 6.64822H51.2079ZM51.4398 8.99545C53.0163 8.99545 54.6352 10.3424 54.6352 12.6425C54.6352 14.9809 53.0191 16.2691 51.405 16.2691C49.6907 16.2691 48.0957 14.8772 48.0957 12.6644C48.0957 10.3663 49.7527 8.99477 51.4398 8.99477V8.99545Z" fill="#FCFAF2"/>
<path d="M68.0996 6.63364C65.0665 6.63364 62.5195 9.0491 62.5195 12.6109C62.5195 16.3815 65.3583 18.6175 68.384 18.6175C70.9152 18.6175 72.4755 17.2323 73.396 15.9905L71.3278 14.6135C70.7911 15.446 69.8937 16.2614 68.3969 16.2614C66.7153 16.2614 65.942 15.3402 65.4627 14.4464L73.484 11.1166L73.0749 10.1408C72.3002 8.2303 70.4925 6.63364 68.1003 6.63364H68.0996ZM68.204 8.93583C69.2971 8.93583 70.0833 9.51718 70.4174 10.2145L65.0603 12.4546C64.8285 10.7201 66.4719 8.93583 68.1971 8.93583H68.204Z" fill="#FCFAF2"/>
<path d="M58.6895 18.2631H61.3244V0.619934H58.6895V18.2631Z" fill="#FCFAF2"/>
</svg>
