<svg xmlns="http://www.w3.org/2000/svg" width="164" height="39" viewBox="0 0 164 39" fill="none"><path d="M146.287 10.3337C146.287 9.3743 147.068 8.59961 148.031 8.59961C148.996 8.59961 149.776 9.3743 149.776 10.3337V23.7941C149.776 24.7518 148.996 25.5265 148.031 25.5265C147.068 25.5265 146.287 24.7518 146.287 23.7941V10.3337Z" fill="#FCFAF2"></path><path d="M83.9233 14.7593C83.9233 13.8016 84.7044 13.0252 85.6679 13.0252C86.6314 13.0252 87.4125 13.8016 87.4125 14.7593V14.8961C88.2159 13.8683 89.2706 12.9346 91.0393 12.9346C92.6445 12.9346 93.8609 13.6409 94.5044 14.8739C95.5832 13.6187 96.8684 12.9346 98.5442 12.9346C101.137 12.9346 102.699 14.4857 102.699 17.4288V23.7939C102.699 24.7516 101.918 25.5263 100.953 25.5263C99.9894 25.5263 99.2083 24.7516 99.2083 23.7939V18.5695C99.2083 16.9278 98.4753 16.0812 97.166 16.0812C95.8584 16.0812 95.055 16.9278 95.055 18.5695V23.7939C95.055 24.7516 94.2756 25.5263 93.3104 25.5263C92.3469 25.5263 91.5658 24.7516 91.5658 23.7939V18.5695C91.5658 16.9278 90.8328 16.0812 89.5235 16.0812C88.2159 16.0812 87.4125 16.9278 87.4125 18.5695V23.7939C87.4125 24.7516 86.6314 25.5263 85.6679 25.5263C84.7044 25.5263 83.9233 24.7516 83.9233 23.7939V14.7593Z" fill="#FCFAF2"></path><path fill-rule="evenodd" clip-rule="evenodd" d="M50.2734 28.2409C49.6781 28.0135 49.2875 27.5346 49.2875 26.895C49.2875 26.1203 49.9293 25.4825 50.7104 25.4825C50.9392 25.4825 51.1233 25.5269 51.2833 25.5953C52.2933 26.0519 53.372 26.3256 54.6813 26.3256C57.0677 26.3256 58.1929 25.1849 58.1929 22.9942V22.4008C57.1589 23.6338 56.0354 24.3863 54.1755 24.3863C51.3074 24.3863 48.7129 22.3102 48.7129 18.683V18.6368C48.7129 14.9874 51.3522 12.9353 54.1755 12.9353C56.0801 12.9353 57.2053 13.7322 58.1464 14.76V14.736C58.1464 13.8023 58.9258 13.0259 59.891 13.0259C60.8545 13.0259 61.6339 13.8023 61.6339 14.76V22.63C61.6339 24.8206 61.1074 26.4162 60.0734 27.444C58.9258 28.5846 57.1589 29.0857 54.7725 29.0857C53.1432 29.0857 51.7203 28.8121 50.2734 28.2409ZM58.1929 18.683V18.6368C58.1929 16.9729 56.8836 15.8083 55.1854 15.8083C53.4873 15.8083 52.2021 16.9729 52.2021 18.6368V18.683C52.2021 20.3709 53.4873 21.5115 55.1854 21.5115C56.8836 21.5115 58.1929 20.3487 58.1929 18.683Z" fill="#FCFAF2"></path><path d="M63.6089 14.7593C63.6089 13.8016 64.39 13.0252 65.3552 13.0252C66.3187 13.0252 67.0981 13.8016 67.0981 14.7593V15.3065C67.6039 14.1197 68.4297 13.0252 69.4621 13.0252C70.5408 13.0252 71.1602 13.7332 71.1602 14.7131C71.1602 15.6263 70.5632 16.1736 69.8526 16.3326C68.0856 16.7448 67.0981 18.0906 67.0981 20.5532V23.7939C67.0981 24.7516 66.3187 25.5263 65.3552 25.5263C64.39 25.5263 63.6089 24.7516 63.6089 23.7939V14.7593Z" fill="#FCFAF2"></path><path fill-rule="evenodd" clip-rule="evenodd" d="M70.7477 21.8312V21.8773C70.7477 24.2955 72.654 25.6174 74.9715 25.6174C76.6697 25.6174 77.8396 25.0018 78.6895 24.0663V24.0903C78.6895 24.8205 79.3554 25.5268 80.3653 25.5268C81.3064 25.5268 82.0635 24.7965 82.0635 23.8611V18.2963C82.0635 16.6529 81.6505 15.307 80.7318 14.3938C79.8595 13.5268 78.4831 13.0257 76.5785 13.0257C74.9474 13.0257 73.7551 13.2532 72.654 13.6636C72.1017 13.8688 71.7112 14.3938 71.7112 15.0095C71.7112 15.8081 72.3546 16.4255 73.1581 16.4255C73.3181 16.4255 73.4558 16.4015 73.6639 16.3331C74.3281 16.1279 75.1092 15.9911 76.0727 15.9911C77.8172 15.9911 78.7119 16.7897 78.7119 18.2262V18.4314C77.8396 18.1356 76.945 17.9304 75.7062 17.9304C72.7899 17.9304 70.7477 19.1617 70.7477 21.8312ZM78.7584 20.4631V21.0787C78.7584 22.3322 77.6572 23.2232 76.0262 23.2232C74.9027 23.2232 74.1216 22.676 74.1216 21.7405V21.6944C74.1216 20.5999 75.0403 20.0065 76.532 20.0065C77.382 20.0065 78.1613 20.1877 78.7584 20.4631Z" fill="#FCFAF2"></path><path d="M106.326 13.0252C105.362 13.0252 104.581 13.8016 104.581 14.7593V23.7939C104.581 24.7516 105.362 25.5263 106.326 25.5263C107.289 25.5263 108.07 24.7516 108.07 23.7939V18.5695C108.07 16.9278 108.874 16.0812 110.181 16.0812C111.491 16.0812 112.224 16.9278 112.224 18.5695V23.7939C112.224 24.7516 113.005 25.5263 113.968 25.5263C114.933 25.5263 115.713 24.7516 115.713 23.7939V18.5695C115.713 16.9278 116.516 16.0812 117.824 16.0812C119.133 16.0812 119.866 16.9278 119.866 18.5695V23.7939C119.866 24.7516 120.647 25.5263 121.611 25.5263C122.576 25.5263 123.357 24.7516 123.357 23.7939V17.4288C123.357 14.4857 121.795 12.9346 119.202 12.9346C117.526 12.9346 116.241 13.6187 115.162 14.8739C114.519 13.6409 113.302 12.9346 111.697 12.9346C109.928 12.9346 108.874 13.8683 108.07 14.8961V14.7593C108.07 13.8016 107.289 13.0252 106.326 13.0252Z" fill="#FCFAF2"></path><path fill-rule="evenodd" clip-rule="evenodd" d="M124.504 21.8773V21.8312C124.504 19.1617 126.546 17.9304 129.463 17.9304C130.701 17.9304 131.596 18.1356 132.468 18.4314V18.2262C132.468 16.7897 131.574 15.9911 129.829 15.9911C128.866 15.9911 128.085 16.1279 127.42 16.3331C127.212 16.4015 127.075 16.4255 126.915 16.4255C126.111 16.4255 125.468 15.8081 125.468 15.0095C125.468 14.3938 125.858 13.8688 126.409 13.6636C127.512 13.2532 128.706 13.0257 130.333 13.0257C132.24 13.0257 133.616 13.5268 134.488 14.3938C135.407 15.307 135.82 16.6529 135.82 18.2963V23.8611C135.82 24.7965 135.061 25.5268 134.122 25.5268C133.112 25.5268 132.446 24.8205 132.446 24.0903V24.0663C131.596 25.0018 130.426 25.6174 128.728 25.6174C126.409 25.6174 124.504 24.2955 124.504 21.8773ZM132.515 21.0787V20.4631C131.918 20.1877 131.137 20.0065 130.289 20.0065C128.797 20.0065 127.878 20.5999 127.878 21.6944V21.7405C127.878 22.676 128.659 23.2232 129.784 23.2232C131.412 23.2232 132.515 22.3322 132.515 21.0787Z" fill="#FCFAF2"></path><path d="M139.424 13.0252C138.46 13.0252 137.679 13.8016 137.679 14.7593V23.7939C137.679 24.7516 138.46 25.5263 139.424 25.5263C140.389 25.5263 141.168 24.7516 141.168 23.7939V20.5532C141.168 18.0906 142.156 16.7448 143.923 16.3326C144.633 16.1736 145.23 15.6263 145.23 14.7131C145.23 13.7332 144.611 13.0252 143.532 13.0252C142.5 13.0252 141.674 14.1197 141.168 15.3065V14.7593C141.168 13.8016 140.389 13.0252 139.424 13.0252Z" fill="#FCFAF2"></path><path d="M151.451 27.3529C151.451 28.1959 152.048 28.6081 152.554 28.7894C153.127 28.9946 153.677 29.1092 154.458 29.1092C156.547 29.1092 157.579 28.1737 158.612 25.6872L162.904 15.4435C162.973 15.2845 163.064 14.8963 163.064 14.6227C163.064 13.7094 162.307 13.0254 161.413 13.0254C160.516 13.0254 160.012 13.6188 159.737 14.349L157.166 21.4444L154.505 14.3251C154.205 13.5042 153.701 13.0254 152.829 13.0254C151.866 13.0254 151.109 13.7094 151.109 14.6911C151.109 14.9185 151.2 15.2605 151.291 15.4897L155.492 25.1622L155.377 25.4358C155.055 26.0514 154.756 26.166 154.137 26.166C153.884 26.166 153.701 26.1199 153.402 26.0292C153.264 25.983 153.104 25.9386 152.829 25.9386C152.117 25.9386 151.451 26.508 151.451 27.3529Z" fill="#FCFAF2"></path><path fill-rule="evenodd" clip-rule="evenodd" d="M39.0603 19.2619C39.0603 29.7262 30.5266 38.2102 19.9971 38.2102C9.46927 38.2102 0.935547 29.7262 0.935547 19.2619C0.935547 8.79767 9.46927 0.31543 19.9971 0.31543C30.5266 0.31543 39.0603 8.79767 39.0603 19.2619Z" fill="#FCFAF2"></path><path fill-rule="evenodd" clip-rule="evenodd" d="M23.7583 21.8297C22.9668 21.8297 22.3406 22.5394 22.4885 23.3534C22.6004 23.9742 23.1871 24.3983 23.8219 24.3983H25.8194L26.9773 24.2376C25.1244 26.9378 21.9087 28.1811 18.3903 27.6339C15.5291 27.1858 13.0688 25.2619 12.0313 22.5736C9.67591 16.4684 14.1613 10.642 20.0041 10.642C23.0511 10.642 25.7214 12.4137 27.2526 14.5531C27.2526 14.5531 27.2544 14.5976 27.2544 14.5993C27.6621 15.1824 28.4656 15.3483 29.0523 14.9447C29.6097 14.5617 29.7629 13.8314 29.4291 13.2585H29.4377C27.318 9.97167 23.5122 7.86821 19.2316 8.1538C13.6589 8.5249 9.14771 13.0584 8.8277 18.6027C8.45435 25.0516 13.6021 30.3188 20.0041 30.3188C23.3677 30.3188 26.3786 28.8635 28.4312 26.5069L28.1869 27.8579V29.0789C28.1869 29.7083 28.6153 30.2931 29.2381 30.4043C30.0588 30.5514 30.7711 29.9289 30.7711 29.1422V21.8297H23.7583Z" fill="#202020"></path></svg>