<svg width="175" height="48" viewBox="0 0 175 48" fill="none" xmlns="http://www.w3.org/2000/svg">
<mask id="mask0_3816_32981" style="mask-type:luminance" maskUnits="userSpaceOnUse" x="53" y="17" width="14" height="18">
<mask id="mask1_3816_32981" style="mask-type:luminance" maskUnits="userSpaceOnUse" x="3" y="4" width="169" height="40">
<path d="M171.098 4.1377H3.39941V43.8618H171.098V4.1377Z" fill="white"/>
</mask>
<g mask="url(#mask1_3816_32981)">
<path d="M54.8582 33.4139C54.2447 33.1739 53.8439 32.6732 53.8439 32.0028C53.8439 31.1918 54.5065 30.5214 55.3082 30.5214C55.5454 30.5214 55.7336 30.567 55.8972 30.6414C56.9361 31.1214 58.0445 31.407 59.3943 31.407C61.8484 31.407 63.006 30.2111 63.006 27.9145V27.2939C61.9425 28.5849 60.785 29.3752 58.8748 29.3752C55.9217 29.3752 53.2549 27.1987 53.2549 23.3959V23.3504C53.2549 19.5228 55.9708 17.3711 58.8748 17.3711C60.8341 17.3711 61.9916 18.207 62.961 19.2828V19.258C62.961 18.2773 63.7627 17.4663 64.7566 17.4663C65.7505 17.4663 66.5522 18.2773 66.5522 19.2828V27.5339C66.5522 29.8304 66.0082 31.5021 64.9447 32.578C63.7627 33.7739 61.9466 34.2994 59.4884 34.2994C57.8114 34.2994 56.3471 34.0139 54.8582 33.4139ZM63.006 23.3959V23.3504C63.006 21.6042 61.6603 20.3835 59.9138 20.3835C58.1672 20.3835 56.842 21.6042 56.842 23.3504V23.3959C56.842 25.167 58.1631 26.3628 59.9138 26.3628C61.6644 26.3628 63.006 25.1421 63.006 23.3959Z" fill="white"/>
</g>
</mask>
<g mask="url(#mask0_3816_32981)">
<path d="M70.6389 13.2285H49.1611V38.4368H70.6389V13.2285Z" fill="#333333"/>
</g>
<mask id="mask2_3816_32981" style="mask-type:luminance" maskUnits="userSpaceOnUse" x="68" y="17" width="9" height="14">
<mask id="mask3_3816_32981" style="mask-type:luminance" maskUnits="userSpaceOnUse" x="3" y="4" width="169" height="40">
<path d="M171.098 4.1377H3.39941V43.8618H171.098V4.1377Z" fill="white"/>
</mask>
<g mask="url(#mask3_3816_32981)">
<path d="M68.5811 19.2785C68.5811 18.2729 69.3827 17.4619 70.3767 17.4619C71.3706 17.4619 72.1723 18.2729 72.1723 19.2785V19.8536C72.6917 18.6123 73.5425 17.4619 74.6059 17.4619C75.6694 17.4619 76.3525 18.2026 76.3525 19.2288C76.3525 20.1847 75.7389 20.7598 75.0068 20.9295C73.1866 21.3598 72.1723 22.7709 72.1723 25.3529V28.7502C72.1723 29.7557 71.3706 30.5667 70.3767 30.5667C69.3827 30.5667 68.5811 29.7516 68.5811 28.7502V19.2785Z" fill="white"/>
</g>
</mask>
<g mask="url(#mask2_3816_32981)">
<path d="M80.4431 13.3242H64.4912V34.7049H80.4431V13.3242Z" fill="#333333"/>
</g>
<mask id="mask4_3816_32981" style="mask-type:luminance" maskUnits="userSpaceOnUse" x="75" y="17" width="13" height="14">
<mask id="mask5_3816_32981" style="mask-type:luminance" maskUnits="userSpaceOnUse" x="3" y="4" width="169" height="40">
<path d="M171.098 4.1377H3.39941V43.8618H171.098V4.1377Z" fill="white"/>
</mask>
<g mask="url(#mask5_3816_32981)">
<path d="M75.9229 26.7392V26.6936C75.9229 23.8964 78.0252 22.6054 81.0234 22.6054C82.2995 22.6054 83.2198 22.8205 84.1156 23.1309V22.9157C84.1156 21.4095 83.1953 20.5736 81.3997 20.5736C80.4098 20.5736 79.604 20.7185 78.921 20.9336C78.7083 21.004 78.5651 21.0288 78.4015 21.0288C77.5753 21.0288 76.9127 20.3833 76.9127 19.5433C76.9127 18.8978 77.3135 18.3474 77.8821 18.1323C79.0151 17.7019 80.2421 17.4619 81.9191 17.4619C83.8783 17.4619 85.2976 17.9874 86.1934 18.8978C87.1382 19.8536 87.5636 21.2647 87.5636 22.9861V28.8205C87.5636 29.8012 86.7824 30.5667 85.8171 30.5667C84.7782 30.5667 84.0951 29.8261 84.0951 29.0605V29.0357C83.2198 30.0164 82.0173 30.6619 80.2667 30.6619C77.8821 30.6619 75.9229 29.2757 75.9229 26.7392ZM84.1646 25.9033V25.2578C83.5511 24.9723 82.7494 24.7778 81.8741 24.7778C80.3403 24.7778 79.3954 25.3985 79.3954 26.5488V26.5943C79.3954 27.575 80.1971 28.1502 81.3547 28.1502C83.0317 28.1502 84.1646 27.2192 84.1646 25.9033Z" fill="white"/>
</g>
</mask>
<g mask="url(#mask4_3816_32981)">
<path d="M91.6583 13.3242H71.833V34.8001H91.6583V13.3242Z" fill="#333333"/>
</g>
<mask id="mask6_3816_32981" style="mask-type:luminance" maskUnits="userSpaceOnUse" x="89" y="17" width="20" height="14">
<mask id="mask7_3816_32981" style="mask-type:luminance" maskUnits="userSpaceOnUse" x="3" y="4" width="169" height="40">
<path d="M171.098 4.1377H3.39941V43.8618H171.098V4.1377Z" fill="white"/>
</mask>
<g mask="url(#mask7_3816_32981)">
<path d="M89.4826 19.2779C89.4826 18.2724 90.2843 17.4614 91.2782 17.4614C92.2721 17.4614 93.0738 18.2724 93.0738 19.2779V19.4228C93.9 18.3469 94.988 17.3662 96.8041 17.3662C98.4565 17.3662 99.7082 18.1069 100.371 19.3979C101.479 18.0821 102.804 17.3662 104.526 17.3662C107.197 17.3662 108.801 18.9924 108.801 22.0793V28.7497C108.801 29.7552 107.999 30.5662 107.005 30.5662C106.011 30.5662 105.209 29.751 105.209 28.7497V23.2752C105.209 21.5538 104.453 20.6683 103.107 20.6683C101.761 20.6683 100.935 21.5538 100.935 23.2752V28.7497C100.935 29.7552 100.134 30.5662 99.1396 30.5662C98.1457 30.5662 97.344 29.751 97.344 28.7497V23.2752C97.344 21.5538 96.5873 20.6683 95.2416 20.6683C93.896 20.6683 93.0697 21.5538 93.0697 23.2752V28.7497C93.0697 29.7552 92.268 30.5662 91.2741 30.5662C90.2802 30.5662 89.4785 29.751 89.4785 28.7497V19.2779" fill="white"/>
</g>
</mask>
<g mask="url(#mask6_3816_32981)">
<path d="M112.89 13.2285H85.3916V34.7044H112.89V13.2285Z" fill="#333333"/>
</g>
<mask id="mask8_3816_32981" style="mask-type:luminance" maskUnits="userSpaceOnUse" x="110" y="17" width="21" height="14">
<mask id="mask9_3816_32981" style="mask-type:luminance" maskUnits="userSpaceOnUse" x="3" y="4" width="169" height="40">
<path d="M171.098 4.1377H3.39941V43.8618H171.098V4.1377Z" fill="white"/>
</mask>
<g mask="url(#mask9_3816_32981)">
<path d="M110.735 19.2779C110.735 18.2724 111.536 17.4614 112.53 17.4614C113.524 17.4614 114.326 18.2724 114.326 19.2779V19.4228C115.152 18.3469 116.24 17.3662 118.056 17.3662C119.708 17.3662 120.96 18.1069 121.623 19.3979C122.731 18.0821 124.056 17.3662 125.778 17.3662C128.449 17.3662 130.053 18.9924 130.053 22.0793V28.7497C130.053 29.7552 129.251 30.5662 128.257 30.5662C127.263 30.5662 126.461 29.751 126.461 28.7497V23.2752C126.461 21.5538 125.705 20.6683 124.359 20.6683C123.013 20.6683 122.187 21.5538 122.187 23.2752V28.7497C122.187 29.7552 121.385 30.5662 120.392 30.5662C119.398 30.5662 118.596 29.751 118.596 28.7497V23.2752C118.596 21.5538 117.839 20.6683 116.494 20.6683C115.148 20.6683 114.322 21.5538 114.322 23.2752V28.7497C114.322 29.7552 113.52 30.5662 112.526 30.5662C111.532 30.5662 110.73 29.751 110.73 28.7497V19.2779" fill="white"/>
</g>
</mask>
<g mask="url(#mask8_3816_32981)">
<path d="M134.143 13.2285H106.645V34.7044H134.143V13.2285Z" fill="#333333"/>
</g>
<mask id="mask10_3816_32981" style="mask-type:luminance" maskUnits="userSpaceOnUse" x="131" y="17" width="12" height="14">
<mask id="mask11_3816_32981" style="mask-type:luminance" maskUnits="userSpaceOnUse" x="3" y="4" width="169" height="40">
<path d="M171.098 4.1377H3.39941V43.8618H171.098V4.1377Z" fill="white"/>
</mask>
<g mask="url(#mask11_3816_32981)">
<path d="M131.235 26.7392V26.6936C131.235 23.8964 133.338 22.6054 136.336 22.6054C137.612 22.6054 138.532 22.8205 139.428 23.1309V22.9157C139.428 21.4095 138.508 20.5736 136.712 20.5736C135.722 20.5736 134.917 20.7185 134.233 20.9336C134.021 21.004 133.878 21.0288 133.714 21.0288C132.888 21.0288 132.225 20.3833 132.225 19.5433C132.225 18.8978 132.626 18.3474 133.195 18.1323C134.328 17.7019 135.559 17.4619 137.232 17.4619C139.191 17.4619 140.61 17.9874 141.506 18.8978C142.451 19.8536 142.876 21.2647 142.876 22.9861V28.8205C142.876 29.8012 142.099 30.5667 141.13 30.5667C140.091 30.5667 139.404 29.8261 139.404 29.0605V29.0357C138.528 30.0164 137.326 30.6619 135.579 30.6619C133.195 30.6619 131.235 29.2757 131.235 26.7392ZM139.477 25.9033V25.2578C138.864 24.9723 138.058 24.7778 137.187 24.7778C135.653 24.7778 134.708 25.3985 134.708 26.5488V26.5943C134.708 27.575 135.51 28.1502 136.667 28.1502C138.344 28.1502 139.477 27.2192 139.477 25.9033Z" fill="white"/>
</g>
</mask>
<g mask="url(#mask10_3816_32981)">
<path d="M146.966 13.3242H127.145V34.8001H146.966V13.3242Z" fill="#333333"/>
</g>
<mask id="mask12_3816_32981" style="mask-type:luminance" maskUnits="userSpaceOnUse" x="144" y="17" width="9" height="14">
<mask id="mask13_3816_32981" style="mask-type:luminance" maskUnits="userSpaceOnUse" x="3" y="4" width="169" height="40">
<path d="M171.098 4.1377H3.39941V43.8618H171.098V4.1377Z" fill="white"/>
</mask>
<g mask="url(#mask13_3816_32981)">
<path d="M144.794 19.2785C144.794 18.2729 145.596 17.4619 146.59 17.4619C147.583 17.4619 148.385 18.2729 148.385 19.2785V19.8536C148.905 18.6123 149.755 17.4619 150.819 17.4619C151.882 17.4619 152.565 18.2026 152.565 19.2288C152.565 20.1847 151.952 20.7598 151.22 20.9295C149.4 21.3598 148.385 22.7709 148.385 25.3529V28.7502C148.385 29.7557 147.583 30.5667 146.59 30.5667C145.596 30.5667 144.794 29.7516 144.794 28.7502V19.2785Z" fill="white"/>
</g>
</mask>
<g mask="url(#mask12_3816_32981)">
<path d="M156.656 13.3242H140.704V34.7049H156.656V13.3242Z" fill="#333333"/>
</g>
<mask id="mask14_3816_32981" style="mask-type:luminance" maskUnits="userSpaceOnUse" x="153" y="12" width="5" height="19">
<mask id="mask15_3816_32981" style="mask-type:luminance" maskUnits="userSpaceOnUse" x="3" y="4" width="169" height="40">
<path d="M171.098 4.1377H3.39941V43.8618H171.098V4.1377Z" fill="white"/>
</mask>
<g mask="url(#mask15_3816_32981)">
<path d="M153.649 14.6398C153.649 13.6343 154.451 12.8232 155.445 12.8232C156.439 12.8232 157.241 13.6343 157.241 14.6398V28.7501C157.241 29.7557 156.439 30.5667 155.445 30.5667C154.451 30.5667 153.649 29.7515 153.649 28.7501V14.6398Z" fill="white"/>
</g>
</mask>
<g mask="url(#mask14_3816_32981)">
<path d="M161.331 8.68555H149.56V34.7049H161.331V8.68555Z" fill="#333333"/>
</g>
<mask id="mask16_3816_32981" style="mask-type:luminance" maskUnits="userSpaceOnUse" x="158" y="17" width="13" height="18">
<mask id="mask17_3816_32981" style="mask-type:luminance" maskUnits="userSpaceOnUse" x="3" y="4" width="169" height="40">
<path d="M171.098 4.1377H3.39941V43.8618H171.098V4.1377Z" fill="white"/>
</mask>
<g mask="url(#mask17_3816_32981)">
<path d="M160.096 33.9888C159.576 33.7985 158.963 33.3681 158.963 32.4826C158.963 31.5971 159.646 30.9971 160.382 30.9971C160.664 30.9971 160.832 31.0467 160.971 31.0923C161.278 31.1874 161.466 31.2371 161.728 31.2371C162.366 31.2371 162.673 31.1171 163.004 30.4716L163.123 30.1861L158.803 20.044C158.709 19.804 158.615 19.4481 158.615 19.2081C158.615 18.1778 159.396 17.4619 160.386 17.4619C161.282 17.4619 161.802 17.9626 162.108 18.8233L164.849 26.284L167.495 18.8481C167.777 18.0826 168.297 17.4619 169.221 17.4619C170.146 17.4619 170.923 18.1778 170.923 19.1336C170.923 19.4192 170.829 19.8288 170.759 19.9943L166.342 30.7323C165.278 33.3392 164.215 34.3198 162.067 34.3198C161.266 34.3198 160.697 34.1998 160.108 33.9847" fill="white"/>
</g>
</mask>
<g mask="url(#mask16_3816_32981)">
<path d="M175.004 13.3242H154.521V38.458H175.004V13.3242Z" fill="#333333"/>
</g>
<mask id="mask18_3816_32981" style="mask-type:luminance" maskUnits="userSpaceOnUse" x="4" y="4" width="40" height="40">
<mask id="mask19_3816_32981" style="mask-type:luminance" maskUnits="userSpaceOnUse" x="3" y="4" width="169" height="40">
<path d="M171.098 4.1377H3.39941V43.8618H171.098V4.1377Z" fill="white"/>
</mask>
<g mask="url(#mask19_3816_32981)">
<path d="M43.3201 23.9998C43.3201 34.9694 34.5384 43.8618 23.7075 43.8618C12.8766 43.8618 4.09082 34.9694 4.09082 23.9998C4.09082 13.0301 12.8725 4.1377 23.7034 4.1377C34.5343 4.1377 43.316 13.0301 43.316 23.9998" fill="white"/>
</g>
</mask>
<g mask="url(#mask18_3816_32981)">
<path d="M47.4097 0H0V48H47.4097V0Z" fill="#333333"/>
</g>
<mask id="mask20_3816_32981" style="mask-type:luminance" maskUnits="userSpaceOnUse" x="12" y="12" width="23" height="24">
<mask id="mask21_3816_32981" style="mask-type:luminance" maskUnits="userSpaceOnUse" x="3" y="4" width="169" height="40">
<path d="M171.098 4.1377H3.39941V43.8618H171.098V4.1377Z" fill="white"/>
</mask>
<g mask="url(#mask21_3816_32981)">
<path d="M26.2682 28.2863C26.3827 28.936 26.9881 29.3829 27.6384 29.3829H29.6917L30.882 29.2132C28.9759 32.0435 25.6669 33.347 22.0471 32.7718C19.1021 32.3042 16.5703 30.2849 15.5027 27.467C13.0772 21.0697 17.6951 14.958 23.7077 14.958C26.8408 14.958 29.5895 16.816 31.1642 19.0587C31.6182 19.7042 32.4117 19.8946 33.0171 19.4684C33.5897 19.067 33.7574 18.3015 33.4138 17.7015C31.2337 14.2546 27.3153 12.0532 22.9142 12.3511C17.1797 12.7401 12.5373 17.4946 12.2101 23.3042C11.8256 30.0656 17.1225 35.5856 23.7118 35.5856C27.1721 35.5856 30.2725 34.0587 32.3831 31.5925L32.1336 33.0077V34.2863C32.1336 34.9442 32.5712 35.5566 33.2134 35.6766C34.056 35.8297 34.7922 35.1801 34.7922 34.3525V26.6891H27.5771C26.7631 26.6891 26.1169 27.4339 26.2723 28.2863H26.2682Z" fill="white"/>
</g>
</mask>
<g mask="url(#mask20_3816_32981)">
<path d="M38.8824 8.18848H8.10352V39.8395H38.8824V8.18848Z" fill="#F6F4EA"/>
</g>
</svg>
