<svg width="87" height="35" viewBox="0 0 87 35" fill="none" xmlns="http://www.w3.org/2000/svg">
<g clip-path="url(#clip0_3880_33217)">
<path d="M0.380859 0.244141V2.57034H17.1206V0.244141H0.380859ZM19.4923 0.244141V2.57034H43.3473C43.3473 2.57034 40.9106 0.244141 37.6834 0.244141H19.4923ZM48.0269 0.244141V2.57034H62.4588L61.6021 0.244141H48.0269ZM72.8056 0.244141L71.949 2.57034H86.2498V0.244141H72.8056ZM0.380859 4.76803V7.09422H17.1206V4.76803H0.380859ZM19.4923 4.77132V7.09422H46.1154C46.1154 7.09422 45.8044 5.30388 45.2621 4.77132H19.4923ZM48.0269 4.77132V7.09422H64.041L63.2482 4.77132H48.0269ZM71.0923 4.77132L70.2995 7.09422H86.2498V4.77132H71.0923ZM5.19148 9.29192V11.6214H12.441V9.29192H5.19148ZM24.303 9.29192V11.6214H31.5525V9.29192H24.303ZM38.6038 9.29192V11.6214H45.8534C45.8534 11.6214 46.3136 10.3912 46.3136 9.29192H38.6038ZM52.8375 9.29192V11.6214H65.6905L64.8338 9.29192H52.8375ZM69.5134 9.29192L68.6534 11.6214H81.5702V9.29192H69.5134ZM5.19148 13.8191V16.1453H12.441V13.8191H5.19148ZM24.303 13.8191V16.1453H42.8198C42.8198 16.1453 44.3688 14.9517 44.8623 13.8191H24.303ZM52.8375 13.8191V16.1453H60.087V14.8504L60.5473 16.1453H73.8269L74.3207 14.8504V16.1453H81.5702V13.8191H67.9614L67.2391 15.7894L66.5135 13.8191H52.8375ZM5.19148 18.343V20.6692H12.441V18.343H5.19148ZM24.303 18.343V20.6692H44.8623C44.3687 19.5403 42.8198 18.343 42.8198 18.343H24.303ZM52.8375 18.343V20.6692H60.087V18.343H52.8375ZM61.4039 18.343L62.2807 20.6692H72.2379L73.071 18.343H61.4039ZM74.3207 18.343V20.6692H81.5702V18.343H74.3207ZM5.19148 22.8669V25.1931H12.441V22.8669H5.19148ZM24.303 22.8669V25.1931H31.5525V22.8669H24.303ZM38.6038 22.8669V25.1931H46.3136C46.3136 24.0953 45.8534 22.8669 45.8534 22.8669H38.6038ZM52.8375 22.8669V25.1931H60.087V22.8669H52.8375ZM63.05 22.8669L63.8999 25.1931H70.575L71.4316 22.8669H63.05ZM74.3207 22.8669V25.1931H81.5702V22.8669H74.3207ZM0.511874 27.3908V29.7203H17.2516V27.3908H0.511874ZM19.4923 27.3908V29.7203H45.2621C45.8044 29.1868 46.1154 27.3908 46.1154 27.3908H19.4923ZM48.1579 27.3908V29.7203H60.087V27.3908H48.1579ZM64.6995 27.3908L65.5729 29.7203H68.9692L69.7889 27.3908H64.6995ZM74.3207 27.3908V29.7203H86.3809V27.3908H74.3207ZM0.511874 31.9179V34.2441H17.2516V31.9179H0.511874ZM19.4923 31.9179V34.2408H37.6834C40.9106 34.2408 43.3473 31.9179 43.3473 31.9179H19.4923ZM48.1579 31.9179V34.2441H60.087V31.9179H48.1579ZM66.3556 31.9179L67.1955 34.2375L67.3399 34.2408L68.1932 31.9179H66.3556ZM74.3207 31.9179V34.2441H86.3809V31.9179H74.3207Z" fill="#333333"/>
</g>
<defs>
<clipPath id="clip0_3880_33217">
<rect width="86" height="34" fill="white" transform="translate(0.380859 0.244141)"/>
</clipPath>
</defs>
</svg>
