<svg xmlns="http://www.w3.org/2000/svg" width="77" height="12" viewBox="0 0 77 12" fill="none"><path d="M29.5763 6.57919L28.558 6.48564C27.8904 6.42737 27.6215 6.19323 27.6215 5.78325C27.6215 5.30323 28.031 4.9873 28.8269 4.9873C29.5763 4.9873 29.9511 5.31448 30.0093 5.84153H32.3977C32.2453 4.28491 31.1452 3.18429 28.8975 3.18429C26.5562 3.18429 25.2679 4.37846 25.2679 5.95859C25.2679 7.43393 26.0756 8.24163 28.078 8.40573L29.0851 8.48752C29.8688 8.54631 30.1499 8.8152 30.1499 9.28346C30.1499 9.77524 29.7404 10.1382 28.8975 10.1382C28.1128 10.1382 27.645 9.787 27.5632 9.16691H25.0455C25.2679 10.8641 26.4621 11.9877 28.8857 11.9877C31.2388 11.9877 32.5383 10.7823 32.5383 9.15464C32.5383 7.57451 31.6718 6.76681 29.5763 6.57919ZM21.3347 3.18429C19.8364 3.18429 18.9464 3.96848 18.5251 5.57263H18.3728V3.32487H16.008V11.8477H18.5251V6.88387C18.5251 5.74798 19.1105 5.12789 20.1641 5.12789C21.2059 5.12789 21.7212 5.772 21.7212 6.87211V11.8477H24.2378V6.42737C24.2378 4.3667 23.1612 3.18429 21.3347 3.18429ZM13.5613 0C12.7066 0 12.0625 0.562324 12.0625 1.41655C12.0625 2.27128 12.6949 2.83309 13.5496 2.83309C14.4043 2.83309 15.0362 2.27077 15.0362 1.41655C15.0362 0.573571 14.4043 0 13.5613 0ZM14.8138 3.32487H12.2966V11.8477H14.8138V3.32487ZM36.495 1.52185H34.8913C34.8443 2.89188 34.259 3.48846 32.9477 3.59376V5.32674H33.9783V9.07285C33.9783 10.9577 35.0549 11.9877 37.1974 11.9877C37.6002 11.9877 38.0015 11.9366 38.3915 11.8359V9.81C38.1905 9.84337 37.987 9.85894 37.7832 9.85652C36.8815 9.85652 36.495 9.51708 36.495 8.5688V5.32674H38.708V3.32487H36.495V1.52185ZM76.4159 5.32674V3.32487H74.2034V1.52185H72.6228C72.5875 2.47014 72.3069 3.02019 71.6863 3.32487V9.07285C71.6863 10.9577 72.7634 11.9877 74.9058 11.9877C75.3086 11.9877 75.7099 11.9366 76.1 11.8359V9.81C75.8988 9.84339 75.6951 9.85896 75.4911 9.85652C74.5894 9.85652 74.2034 9.51708 74.2034 8.5688V5.32674H76.4159ZM68.1743 5.70146H68.0219V3.32436H65.6924V11.8477H68.2096V7.23507C68.2096 5.95859 68.7831 5.42029 70.0944 5.42029C70.3167 5.42029 70.5626 5.44381 70.9021 5.50209V3.30135C70.6727 3.22085 70.431 3.18123 70.1879 3.18429C69.1691 3.18429 68.4667 3.76962 68.1743 5.70146ZM52.1005 9.83403C50.9181 9.83403 50.0634 9.04933 50.0634 7.52748C50.0634 6.16972 50.8593 5.32674 52.077 5.32674C53.1188 5.32674 53.7159 5.91207 53.8918 6.8486H56.4437C56.1978 4.65911 54.6294 3.18429 52.1123 3.18429C49.3492 3.18429 47.5349 5.05734 47.5349 7.62154C47.5349 10.2788 49.2792 11.9877 52.077 11.9877C54.6177 11.9877 56.2683 10.5717 56.5025 8.27639H53.95C53.81 9.21343 53.1658 9.83403 52.1005 9.83403ZM43.0747 3.18429C40.8852 3.18429 39.5627 4.2614 39.3281 6.19272H41.7399C41.8217 5.5256 42.2552 5.17441 43.0159 5.17441C43.7883 5.17441 44.1395 5.5256 44.1395 6.02914C44.1395 6.45037 43.8706 6.67326 43.18 6.80157L42.0323 7.0127C40.0075 7.3869 39.2345 8.21811 39.2345 9.54111C39.2345 11.0512 40.2999 12 41.7752 12C42.9806 12 43.7653 11.4377 44.1283 10.0329H44.2801V11.8477H46.6572V6.28679C46.6572 4.35495 45.4978 3.18429 43.0747 3.18429ZM42.7935 10.2788C42.1146 10.2788 41.7282 9.91582 41.7282 9.37701C41.7282 8.93227 41.9976 8.6281 42.6647 8.47576L43.133 8.37045C43.5368 8.2769 43.8502 8.15217 44.14 7.90168V8.80344C44.14 9.84528 43.5895 10.2788 42.7935 10.2788ZM60.9627 3.18429C58.7732 3.18429 57.4508 4.2614 57.2166 6.19272H59.628C59.7103 5.5256 60.1433 5.17441 60.9039 5.17441C61.6769 5.17441 62.0281 5.5256 62.0281 6.02914C62.0281 6.45037 61.7587 6.67326 61.068 6.80157L59.9209 7.0127C57.8955 7.3869 57.1226 8.21811 57.1226 9.54111C57.1226 11.0512 58.1879 12 59.6632 12C60.8692 12 61.6534 11.4377 62.0163 10.0329H62.1687V11.8477H64.5452V6.28679C64.5452 4.35495 63.3858 3.18429 60.9627 3.18429ZM60.6816 10.2788C60.0027 10.2788 59.6162 9.91582 59.6162 9.37701C59.6162 8.93227 59.8856 8.6281 60.5527 8.47576L61.021 8.37045C61.4249 8.2769 61.7387 8.15217 62.0281 7.90168V8.80344C62.0281 9.84528 61.478 10.2788 60.6816 10.2788Z" fill="#202020"></path><path d="M8.0617 2.03924C7.54436 2.03924 7.17527 2.26468 6.83481 2.75441L5.8533 4.1638V0.140625H3.51198V4.1638L2.53047 2.75441C2.19052 2.26468 1.82143 2.03924 1.30358 2.03924C0.522461 2.03924 0.00256688 2.61587 1.08561e-05 3.32645C-0.00203396 3.93478 0.284751 4.33147 0.889506 4.72101L4.68264 7.16457L8.47577 4.72101C9.08053 4.33147 9.36731 3.93478 9.36527 3.32645C9.36322 2.61587 8.84282 2.03924 8.0617 2.03924Z" fill="#202020"></path><path d="M4.68324 7.75C6.93765 7.75 8.78566 9.43288 8.78054 11.8478H0.585946C0.581345 9.43391 2.42884 7.75 4.68324 7.75Z" fill="#202020"></path></svg>