<svg xmlns="http://www.w3.org/2000/svg" width="26" height="34" viewBox="0 0 26 34" fill="none"><g clip-path="url(#clip0_1795_2687)"><path d="M9.93163 2.128H10.5387C14.4564 2.128 15.3936 4.148 15.3936 9.11467C15.3936 14.1347 14.4006 15.554 10.3175 15.554H9.93163V2.128ZM15.0628 16.7C20.4704 15.6087 22.8981 12.8253 22.8981 8.84133C22.8981 3.38333 19.1466 0 11.5318 0H0V1.58267C2.31751 1.746 2.59317 2.51 2.59317 4.748V29.0887C2.59317 31.2713 2.04186 32.0353 0 32.254V33.8367H12.4697V32.254C10.4285 32.0907 9.8765 31.272 9.8765 29.0887V17.464H10.5939C12.194 17.464 13.5185 18.064 13.9044 19.5373C14.5667 21.83 14.6218 26.96 15.5046 30.18C16.3873 33.2353 18.5946 34 21.4634 34C23.6707 34 25.215 33.3453 25.8221 32.9087L25.7125 31.326C23.7809 31.8173 23.0635 30.9993 22.2366 25.596C21.4634 19.8107 19.4215 17.6273 15.0628 16.7Z" fill="black"></path></g><defs><clipPath id="clip0_1795_2687"><rect width="26" height="34" fill="white"></rect></clipPath></defs></svg>