<svg width="45" height="22" viewBox="0 0 45 22" fill="none" xmlns="http://www.w3.org/2000/svg">
<path d="M9.49032 14.5081C9.49032 15.7728 9.75892 16.7437 10.1102 17.3311C10.5707 18.1005 11.2575 18.4271 11.9578 18.4271C12.8608 18.4271 13.687 18.1955 15.2791 15.9207C16.5549 14.0974 18.0575 11.5381 19.0688 9.93364L20.7813 7.21537C21.9709 5.32758 23.3479 3.22906 24.9267 1.80659C26.2159 0.645505 27.6059 0.000518799 29.0051 0.000518799C31.3544 0.000518799 33.5921 1.40689 35.3046 4.04455C37.1789 6.93318 38.0886 10.5718 38.0886 14.3266C38.0886 16.5589 37.6627 18.199 36.9379 19.4948C36.2378 20.7479 34.8731 22 32.5774 22V18.4265C34.5431 18.4265 35.0336 16.5605 35.0336 14.4251C35.0336 11.382 34.3468 8.00506 32.8338 5.59202C31.7602 3.88042 30.3688 2.83463 28.8379 2.83463C27.1822 2.83463 25.8498 4.12488 24.3524 6.42471C23.5563 7.64684 22.7391 9.13604 21.8215 10.8166L20.8113 12.6652C18.7823 16.3827 18.2682 17.229 17.2536 18.6258C15.4754 21.072 13.9568 21.9994 11.9578 21.9994C9.58621 21.9994 8.08665 20.9385 7.15786 19.3398C6.39975 18.0372 6.02734 16.3279 6.02734 14.3803L9.49032 14.5081Z" fill="#FCFAF2"/>
<path d="M8.75781 4.29625C10.3455 1.76806 12.6367 0 15.2646 0C16.7865 0 18.2997 0.465322 19.8793 1.79803C21.6075 3.25476 23.4494 5.6549 25.7473 9.60889L26.5712 11.0275C28.5603 14.4507 29.6919 16.2118 30.3542 17.0423C31.2059 18.1087 31.8025 18.4267 32.5774 18.4267C34.5431 18.4267 35.0335 16.5607 35.0335 14.4253L38.0885 14.3262C38.0885 16.5585 37.6627 18.1986 36.9379 19.4944C36.2378 20.7475 34.8731 21.9996 32.5774 21.9996C31.1502 21.9996 29.8859 21.6794 28.4878 20.3167C27.4134 19.2709 26.1564 17.4131 25.1897 15.743L22.3143 10.7811C20.8717 8.29089 19.5478 6.43418 18.7823 5.5933C17.9582 4.68902 16.899 3.59716 15.2088 3.59716C13.8408 3.59716 12.679 4.58885 11.7068 6.10579L8.75781 4.29625Z" fill="#FCFAF2"/>
<path d="M15.2088 3.59716C13.8409 3.59716 12.6791 4.58885 11.7069 6.10579C10.3321 8.24927 9.491 11.442 9.491 14.5081C9.491 15.7728 9.75959 16.7437 10.1109 17.3311L7.15786 19.3399C6.39975 18.0373 6.02734 16.3279 6.02734 14.3803C6.02734 10.8385 6.96836 7.14701 8.75787 4.29625C10.3455 1.76806 12.6368 0 15.2647 0L15.2088 3.59716Z" fill="#FCFAF2"/>
</svg>
