<svg width="96" height="20" viewBox="0 0 96 20" fill="none" xmlns="http://www.w3.org/2000/svg">
<g clip-path="url(#clip0_1595_6865)">
<path d="M95.8012 9.04763V7.40011H93.7099V4.83877L93.6395 4.85995L91.6753 5.44787L91.6366 5.45942V7.40011H88.5363V6.31909C88.5363 5.81568 88.6514 5.43042 88.8781 5.17351C89.1034 4.91965 89.4255 4.79063 89.8362 4.79063C90.1316 4.79063 90.4374 4.85871 90.745 4.99294L90.8221 5.02659V3.2915L90.7859 3.27847C90.4989 3.17754 90.1083 3.12668 89.6244 3.12668C89.0144 3.12668 88.4602 3.2565 87.9768 3.51386C87.4932 3.77157 87.1127 4.1395 86.8463 4.60734C86.5807 5.07462 86.4459 5.61427 86.4459 6.21148V7.40011H84.9897V9.04763H86.4459V15.9883H88.5363V9.04763H91.6366V13.4584C91.6366 15.2749 92.5124 16.1955 94.2397 16.1955C94.5236 16.1955 94.8222 16.1629 95.1273 16.0991C95.4377 16.0337 95.6492 15.9684 95.7737 15.8986L95.8012 15.8827V14.2199L95.7162 14.275C95.6027 14.3491 95.4615 14.4094 95.2958 14.4543C95.1294 14.5001 94.9904 14.5231 94.8829 14.5231C94.4782 14.5231 94.1789 14.4164 93.993 14.2059C93.8052 13.9935 93.7099 13.6219 93.7099 13.1023V9.04763H95.8012ZM80.3214 14.5232C79.5626 14.5232 78.9644 14.2771 78.5428 13.7922C78.1187 13.3049 77.9038 12.6102 77.9038 11.7275C77.9038 10.8169 78.1187 10.1041 78.5431 9.60818C78.9649 9.11553 79.5574 8.86553 80.3043 8.86553C81.0292 8.86553 81.6062 9.10432 82.0194 9.57567C82.4349 10.0494 82.6456 10.7565 82.6456 11.6778C82.6456 12.6104 82.4474 13.3268 82.0565 13.8059C81.6683 14.2816 81.0846 14.5232 80.3214 14.5232ZM80.4145 7.1932C78.9669 7.1932 77.8171 7.60813 76.9974 8.42657C76.1782 9.24512 75.7627 10.3778 75.7627 11.7935C75.7627 13.1382 76.1682 14.2197 76.968 15.0077C77.7677 15.796 78.8562 16.1953 80.2027 16.1953C81.6059 16.1953 82.7328 15.7746 83.5522 14.9448C84.3716 14.1159 84.7867 12.994 84.7867 11.6113C84.7867 10.2456 84.3972 9.15597 83.6285 8.37322C82.8596 7.59012 81.778 7.1932 80.4145 7.1932ZM72.3923 7.19315C71.4076 7.19315 70.5931 7.43953 69.9709 7.92538C69.3449 8.41407 69.0274 9.05511 69.0274 9.83073C69.0274 10.2339 69.096 10.5921 69.2309 10.8958C69.3666 11.2006 69.5766 11.4688 69.8555 11.694C70.1325 11.9174 70.5598 12.1515 71.1262 12.3895C71.6022 12.5811 71.9574 12.7433 72.1829 12.8711C72.4034 12.9963 72.5599 13.1223 72.6483 13.2448C72.7341 13.3648 72.7777 13.5289 72.7777 13.7317C72.7777 14.3086 72.3361 14.5893 71.4273 14.5893C71.0902 14.5893 70.7057 14.5206 70.2844 14.3847C69.863 14.2492 69.4692 14.0542 69.1141 13.8042L69.0274 13.7434V15.7123L69.0593 15.7268C69.3551 15.8603 69.728 15.9729 70.1675 16.0616C70.6062 16.1503 71.0048 16.1955 71.3511 16.1955C72.4196 16.1955 73.28 15.9479 73.9078 15.4592C74.5397 14.9671 74.86 14.311 74.86 13.5084C74.86 12.9296 74.6876 12.4331 74.3477 12.0327C74.0103 11.6356 73.4246 11.2711 72.6076 10.9488C71.9568 10.6932 71.5398 10.4811 71.3679 10.3183C71.2021 10.1609 71.1179 9.93845 71.1179 9.65673C71.1179 9.40695 71.2218 9.2069 71.4352 9.0448C71.6502 8.88191 71.9494 8.7991 72.3248 8.7991C72.6731 8.7991 73.0295 8.85291 73.3838 8.95837C73.738 9.06383 74.049 9.20509 74.3087 9.37795L74.394 9.43504V7.56731L74.3613 7.55349C74.1217 7.45301 73.8058 7.36703 73.4222 7.29725C73.0401 7.22815 72.6936 7.19315 72.3923 7.19315ZM63.5777 14.5232C62.8191 14.5232 62.2207 14.2771 61.7993 13.7922C61.375 13.3049 61.1604 12.6104 61.1604 11.7275C61.1604 10.8169 61.3752 10.1041 61.7997 9.60818C62.2212 9.11553 62.8136 8.86553 63.5609 8.86553C64.2855 8.86553 64.8625 9.10432 65.2758 9.57567C65.6913 10.0494 65.902 10.7565 65.902 11.6778C65.902 12.6104 65.7037 13.3268 65.3128 13.8059C64.9246 14.2816 64.3412 14.5232 63.5777 14.5232ZM63.671 7.1932C62.223 7.1932 61.0733 7.60813 60.2539 8.42657C59.4347 9.24512 59.019 10.3778 59.019 11.7935C59.019 13.1387 59.4248 14.2197 60.2245 15.0077C61.0243 15.796 62.1126 16.1953 63.4592 16.1953C64.8621 16.1953 65.9893 15.7746 66.8088 14.9448C67.6279 14.1159 68.0432 12.994 68.0432 11.6113C68.0432 10.2456 67.6536 9.15597 66.8849 8.37322C66.1157 7.59012 65.0343 7.1932 63.671 7.1932ZM55.8458 8.88734V7.40011H53.7808V15.9881H55.8458V11.595C55.8458 10.848 56.0189 10.2343 56.3605 9.7708C56.6978 9.31282 57.1472 9.08071 57.696 9.08071C57.8819 9.08071 58.0907 9.11073 58.3168 9.17009C58.5407 9.2291 58.7028 9.29311 58.7984 9.36051L58.8851 9.42202V7.38538L58.8517 7.37134C58.6593 7.29136 58.3874 7.25103 58.0431 7.25103C57.5243 7.25103 57.0598 7.41416 56.6621 7.7353C56.313 8.01759 56.0606 8.40466 55.8677 8.88734H55.8458ZM50.0829 7.19315C49.1356 7.19315 48.2906 7.39195 47.5717 7.78367C46.8515 8.17629 46.2946 8.73691 45.9156 9.44977C45.5384 10.1609 45.3468 10.9916 45.3468 11.9179C45.3468 12.7293 45.5326 13.474 45.8996 14.1302C46.2669 14.7876 46.7868 15.3019 47.4448 15.6586C48.1019 16.0148 48.8614 16.1955 49.7023 16.1955C50.6836 16.1955 51.5214 16.0035 52.1932 15.625L52.2203 15.6097V13.759L52.1336 13.821C51.8293 14.0378 51.4892 14.2109 51.1233 14.3356C50.7584 14.4602 50.4256 14.5232 50.1339 14.5232C49.3236 14.5232 48.6732 14.2751 48.2011 13.7862C47.7278 13.2965 47.4879 12.609 47.4879 11.7438C47.4879 10.8731 47.7381 10.168 48.2313 9.64756C48.7228 9.12874 49.3745 8.86559 50.168 8.86559C50.8467 8.86559 51.5081 9.09045 52.1338 9.5345L52.2203 9.59601V7.64592L52.1924 7.63052C51.9569 7.50161 51.6358 7.39513 51.2371 7.31436C50.8401 7.23382 50.4519 7.19315 50.0829 7.19315ZM43.9246 7.40013H41.8596V15.9881H43.9246V7.40013ZM42.9132 3.74158C42.5734 3.74158 42.277 3.85474 42.0334 4.07903C41.7889 4.304 41.6648 4.5872 41.6648 4.92137C41.6648 5.25033 41.7874 5.52832 42.0295 5.74729C42.2701 5.96557 42.5675 6.07625 42.9132 6.07625C43.2589 6.07625 43.5574 5.96557 43.8009 5.74763C44.046 5.52832 44.1702 5.25033 44.1702 4.92137C44.1702 4.59887 44.0493 4.3185 43.8109 4.0881C43.5729 3.85814 43.2708 3.74158 42.9132 3.74158ZM37.7611 6.76652V15.9881H39.8684V4.00456H36.9518L33.2445 12.9055L29.6468 4.00456H26.6113V15.9881H28.5917V6.76561H28.6598L32.4588 15.9881H33.9533L37.6931 6.76652H37.7611Z" fill="#FCFAF2"/>
<path d="M9.75702 9.50339H0.0429688V0H9.75702V9.50339Z" fill="#FCFAF2"/>
<path d="M20.4835 9.50339H10.7695V0H20.4835V9.50339Z" fill="#FCFAF2"/>
<path d="M9.75679 20H0.0429688V10.4966H9.75679V20Z" fill="#FCFAF2"/>
<path d="M20.4835 20H10.7695V10.4966H20.4835V20Z" fill="#FCFAF2"/>
</g>
<defs>
<clipPath id="clip0_1595_6865">
<rect width="95.7576" height="20" fill="white" transform="translate(0.0429688)"/>
</clipPath>
</defs>
</svg>
