<svg xmlns="http://www.w3.org/2000/svg" width="70" height="12" viewBox="0 0 70 12" fill="none"><g clip-path="url(#clip0_8009_15145)"><path d="M2.21093 7.147C2.21093 9.35915 3.25855 10.7127 4.85449 10.7127C6.4599 10.7127 7.4499 9.35915 7.4499 7.147C7.4499 4.77616 6.4599 3.56254 4.85449 3.56254C3.25855 3.56254 2.21093 4.77574 2.21093 7.147ZM9.6604 7.147C9.6604 10.0031 7.5359 12.0006 4.83514 12.0006C2.16276 12.0006 0 10.0031 0 7.147C0 4.29046 2.16276 2.29297 4.83514 2.29297C7.51695 2.29297 9.6604 4.29046 9.6604 7.147Z" fill="black"></path><path d="M57.3046 4.92582C57.3046 4.23716 57.9766 3.78821 58.9746 3.78821C60.1481 3.78821 60.7946 4.29187 60.8726 5.0941H62.8371C62.7981 3.43448 61.3581 2.29688 58.9746 2.29688C56.8816 2.29688 55.4216 3.28497 55.4216 5.0206C55.4216 8.5103 61.1266 6.98095 61.1266 9.2545C61.1266 10.0209 60.3781 10.5057 59.2436 10.5057C57.9686 10.5057 57.2156 9.9707 57.0771 9.14925H55.1016C55.2186 10.8661 56.8296 11.9996 59.2441 11.9996C61.3956 11.9996 63.0096 11.0089 63.0096 9.16175C63.0091 5.6721 57.3046 7.18435 57.3046 4.92582Z" fill="black"></path><path d="M10.8711 11.8214V2.47964H12.6855V5.3738C13.2274 3.35749 14.3928 2.29297 16.2984 2.29297C18.0165 2.29297 19.3596 3.32909 19.3596 5.41055V11.821H17.3684V6.12005C17.3684 4.87847 16.6936 3.89831 15.3605 3.89831C13.5929 3.89831 12.8623 5.40135 12.8623 6.46545V11.8214H10.8711Z" fill="black"></path><path d="M53.6995 2.48047V11.8219H51.8055V8.92065C51.364 10.9369 50.2295 12.0014 48.3744 12.0014C46.7019 12.0014 45.3945 10.9653 45.3945 8.8839V2.48047H47.3745V8.17435C47.3745 9.41595 47.9895 10.3961 49.2874 10.3961C51.008 10.3961 51.7195 8.8931 51.7195 7.829V2.48047H53.6995Z" fill="black"></path><path d="M25.412 10.6283C23.7301 10.6283 22.8454 9.35915 22.8454 7.25895V7.09065H29.9009C29.8433 4.14095 28.2955 2.29297 25.335 2.29297C22.5762 2.29297 20.625 4.25287 20.625 7.22135C20.625 9.9192 22.2593 12.0006 25.3927 12.0006C28.3631 12.0006 29.7564 10.1301 29.8428 8.4592H27.8053C27.6612 9.8031 27.094 10.6283 25.412 10.6283ZM25.3544 3.66486C26.9404 3.66486 27.6431 4.83671 27.7046 6.0708H22.9383C23.186 4.48925 24.0199 3.66486 25.3544 3.66486Z" fill="black"></path><path d="M44.1108 2.47865V4.17546L44.1095 4.39638C43.4412 4.35921 43.1818 4.34042 42.9509 4.34042C41.5433 4.34042 40.6415 4.92843 40.3486 6.6223C40.2927 6.94345 40.2695 7.2688 40.2695 7.5941V11.8192H38.2891V2.47656H40.0975V5.40955C40.0975 5.40955 40.0975 5.4091 40.0979 5.4087C40.1108 5.36735 40.4695 4.231 40.7692 3.72944L40.7696 3.7286C41.1524 2.9773 41.8749 2.47865 42.738 2.47865H44.1108Z" fill="black"></path><path d="M67.5126 9.7394C67.5126 10.3566 67.7426 10.5796 68.3756 10.5796L70.0006 10.5892V11.8204H67.6856C66.3411 11.8204 65.5711 11.0749 65.5711 9.76905V5.31885H65.5691V3.80789H63.6406V2.7204C63.7686 2.7204 63.7276 2.71831 63.9031 2.71413C64.2151 2.70996 64.4516 2.70161 64.6141 2.68866C65.0176 2.66778 65.2866 2.59177 65.4211 2.46105C65.5536 2.33243 65.6421 2.06515 65.6896 1.66047C65.7246 1.43704 65.7506 1.15933 65.7681 0.826475C65.7851 0.495719 65.7941 0.0547085 65.7941 0H67.5121V2.47901H70.0006V3.80747H67.5121L67.5126 9.7394Z" fill="black"></path><path d="M34.1531 9.7394C34.1531 10.3566 34.3831 10.5796 35.0162 10.5796L36.6414 10.5892V11.8204H34.3264C32.9816 11.8204 32.2118 11.0749 32.2118 9.76905V5.31885H32.2097V3.80789H30.2812V2.7204C30.4095 2.7204 30.3682 2.71831 30.5436 2.71413C30.8559 2.70996 31.0924 2.70161 31.2549 2.68866C31.6583 2.66778 31.9271 2.59177 32.0617 2.46105C32.1942 2.33243 32.2827 2.06515 32.3305 1.66047C32.3654 1.43704 32.3912 1.15933 32.4088 0.826475C32.426 0.495719 32.435 0.0547085 32.435 0H34.1527V2.47901H36.6414V3.80747H34.1527L34.1531 9.7394Z" fill="black"></path></g><defs><clipPath id="clip0_8009_15145"><rect width="70" height="12" fill="white"></rect></clipPath></defs></svg>