<svg xmlns="http://www.w3.org/2000/svg" width="110" height="16" viewBox="0 0 110 16" fill="none">
<path d="M2.47541 4.55173C2.47541 2.84871 1.61271 1.44156 0 0.259766H3.74837C4.40914 0.763032 4.94452 1.41235 5.31263 2.15692C5.68074 2.90149 5.87159 3.72113 5.87027 4.55173C5.87159 5.38233 5.68074 6.20197 5.31263 6.94654C4.94452 7.69111 4.40914 8.34043 3.74837 8.84369C4.96543 9.35116 5.65782 10.5897 5.65782 12.3624V15.7401H2.26382V12.3624C2.26382 10.674 1.45789 9.49222 0.000860113 8.84455C1.61357 7.6619 2.47627 6.25561 2.47627 4.55259L2.47541 4.55173ZM9.83109 4.55173C9.83109 2.84871 8.9684 1.44156 7.35569 0.259766H11.1049C11.7655 0.763121 12.3007 1.41248 12.6687 2.15704C13.0367 2.90161 13.2274 3.72121 13.226 4.55173C13.2274 5.38225 13.0367 6.20185 12.6687 6.94642C12.3007 7.69099 11.7655 8.34034 11.1049 8.84369C12.3211 9.35116 13.0144 10.5897 13.0144 12.3624V15.7401H9.61951V12.3624C9.61951 10.674 8.81272 9.49222 7.35569 8.84455C8.9684 7.6619 9.83109 6.25561 9.83109 4.55259V4.55173ZM17.1885 4.55173C17.1885 2.84871 16.3258 1.44156 14.7131 0.259766H18.4615C19.1222 0.763032 19.6576 1.41235 20.0257 2.15692C20.3938 2.90149 20.5847 3.72113 20.5834 4.55173C20.5847 5.38233 20.3938 6.20197 20.0257 6.94654C19.6576 7.69111 19.1222 8.34043 18.4615 8.84369C19.6785 9.35116 20.3709 10.5897 20.3709 12.3624V15.7401H16.9761V12.3624C16.9761 10.674 16.1701 9.49222 14.7131 8.84455C16.3258 7.6619 17.1885 6.25561 17.1885 4.55259V4.55173ZM30.9228 12.9275H28.3493V3.07406H34.6729C37.7142 3.07406 39.2134 4.2008 39.2134 6.04403C39.2134 7.29635 38.478 8.23904 37.1061 8.71812C38.5202 8.92885 39.1567 9.67456 39.1567 11.012V12.9258H36.554V11.1247C36.554 9.99797 35.988 9.54813 34.5026 9.54813H30.9245V12.9275H30.9228ZM34.5301 4.50958H30.9228V8.11346H34.5017C35.8031 8.11346 36.609 7.39526 36.609 6.26938C36.609 5.15725 35.8607 4.50958 34.5301 4.50958ZM43.6826 3.07406H41.1082V12.9275H43.6826V3.07406ZM51.5758 9.71671H48.4356V12.9258H45.8604V3.07406H51.6317C54.6731 3.07406 56.272 4.341 56.272 6.36829C56.272 8.46439 54.6456 9.71671 51.5758 9.71671ZM51.5191 4.50958H48.4356V8.28118H51.4907C52.8204 8.28118 53.641 7.60599 53.641 6.38205C53.641 5.18563 52.8204 4.50958 51.5191 4.50958ZM63.5151 9.71671H60.3748V12.9258H57.7996V3.07406H63.571C66.6123 3.07406 68.2113 4.341 68.2113 6.36829C68.2113 8.46439 66.5839 9.71671 63.5151 9.71671ZM63.4583 4.50958H60.3748V8.28118H63.4299C64.7596 8.28118 65.5802 7.60599 65.5802 6.38205C65.5802 5.18563 64.7596 4.50958 63.4583 4.50958ZM72.3132 3.07406V11.4619H78.7356V12.9275H69.7388V3.07406H72.3132ZM82.9209 3.07406H80.3466V12.9275H82.9209V3.07406ZM86.7975 6.36743V12.9275H85.0996V3.07406H87.0254L94.0413 9.63242V3.07406H95.7392V12.9275H93.8151L86.7975 6.36743ZM104.143 4.22833C101.695 4.22833 100.097 5.77653 100.097 8.08422C100.097 10.3635 101.624 11.7715 104.001 11.7715H104.17C104.977 11.7715 105.882 11.6021 106.717 11.3354V8.67511H102.558V7.26797H109.234V11.898C107.849 12.6162 105.754 13.1795 104.057 13.1795H103.831C99.9262 13.1795 97.4087 11.1239 97.4087 8.14012C97.4087 5.18477 99.9976 2.82118 103.972 2.82118H104.198C105.854 2.82118 107.749 3.34155 109.15 4.1578L108.414 5.35336C107.155 4.6644 105.655 4.22833 104.312 4.22833H104.143Z" fill="#202020"/>
</svg>