<svg xmlns="http://www.w3.org/2000/svg" width="181" height="24" viewBox="0 0 181 24" fill="none"><g clip-path="url(#clip0_853_4002)"><path d="M4.0293 6.77155C4.0293 4.1787 2.72215 2.03584 0.279297 0.23584H5.95787C7.95073 1.7787 9.17215 4.13584 9.17215 6.77155C9.17215 9.40727 7.95073 11.7644 5.95787 13.3073C7.80073 14.0787 8.85073 15.9644 8.85073 18.6644V23.8073H3.70787V18.6644C3.70787 16.093 2.48644 14.293 0.279297 13.3073C2.72215 11.4858 4.0293 9.34298 4.0293 6.77155ZM15.1722 6.77155C15.1722 4.1787 13.865 2.03584 11.4222 0.23584H17.1007C19.0936 1.7787 20.315 4.13584 20.315 6.77155C20.315 9.40727 19.0936 11.7644 17.1007 13.3073C18.9436 14.0787 19.9936 15.9644 19.9936 18.6644V23.8073H14.8507V18.6644C14.8507 16.093 13.6293 14.293 11.4222 13.3073C13.865 11.4858 15.1722 9.34298 15.1722 6.77155ZM26.315 6.77155C26.315 4.1787 25.0079 2.03584 22.565 0.23584H28.2436C30.2364 1.7787 31.4579 4.13584 31.4579 6.77155C31.4579 9.40727 30.2364 11.7644 28.2436 13.3073C30.0864 14.0787 31.1364 15.9644 31.1364 18.6644V23.8073H25.9936V18.6644C25.9936 16.093 24.7722 14.293 22.565 13.3073C25.0079 11.4858 26.315 9.34298 26.315 6.77155Z" fill="white"></path><path d="M47.1227 19.5215H43.2227V4.52148H52.8012C57.4084 4.52148 59.6798 6.23577 59.6798 9.04291C59.6798 10.9501 58.5655 12.3858 56.4869 13.1143C58.6298 13.4358 59.5941 14.5715 59.5941 16.6072V19.5215H55.6512V16.7786C55.6512 15.0643 54.7941 14.3786 52.5441 14.3786H47.1227V19.5215ZM52.5869 6.68577H47.1227V12.1715H52.5441C54.5155 12.1715 55.7369 11.0786 55.7369 9.36434C55.7369 7.67148 54.6012 6.68577 52.5869 6.68577Z" fill="white"></path><path d="M66.4508 4.52148H62.5508V19.5215H66.4508V4.52148Z" fill="white"></path><path d="M78.4071 14.6143H73.65V19.5H69.75V4.5H78.4929C83.1 4.5 85.5214 6.42857 85.5214 9.51429C85.5214 12.7071 83.0571 14.6143 78.4071 14.6143ZM78.3214 6.68571H73.65V12.4286H78.2786C80.2929 12.4286 81.5357 11.4 81.5357 9.53571C81.5357 7.73571 80.2929 6.68571 78.3214 6.68571Z" fill="white"></path><path d="M96.4931 14.6143H91.7359V19.5H87.8359V4.5H96.5788C101.186 4.5 103.607 6.42857 103.607 9.51429C103.607 12.7071 101.143 14.6143 96.4931 14.6143ZM96.4074 6.68571H91.7359V12.4286H96.3645C98.3788 12.4286 99.6217 11.4 99.6217 9.53571C99.6217 7.73571 98.3788 6.68571 96.4074 6.68571Z" fill="white"></path><path d="M109.822 4.52148V17.2715H119.55V19.5215H105.922V4.52148H109.822Z" fill="white"></path><path d="M125.894 4.52148H121.994V19.5215H125.894V4.52148Z" fill="white"></path><path d="M131.765 9.51434V19.5215H129.193V4.52148H132.108L142.736 14.4858V4.52148H145.308V19.5215H142.393L131.765 9.51434Z" fill="white"></path><path d="M158.036 6.25712C154.329 6.25712 151.907 8.61426 151.907 12.1285C151.907 15.6 154.222 17.7428 157.822 17.7428H158.079C159.3 17.7428 160.672 17.4857 161.936 17.0785V13.0285H155.636V10.8857H165.75V17.9357C163.65 19.0285 160.479 19.8857 157.907 19.8857H157.565C151.65 19.8857 147.836 16.7571 147.836 12.2143C147.836 7.71426 151.757 4.11426 157.779 4.11426H158.122C160.629 4.11426 163.5 4.90711 165.622 6.14997L164.507 7.9714C162.6 6.9214 160.329 6.25712 158.293 6.25712H158.036Z" fill="white"></path><path d="M168.986 5.2072V4.52148H174.001V5.2072H168.986ZM172.072 9.51434H170.915V4.52148H172.072V9.51434Z" fill="white"></path><path d="M174.602 9.51429V4.52143H175.373V7.58571V9.53571H174.602V9.51429ZM176.894 9.51429L174.902 4.52143H176.123L176.83 6.3L177.837 9.02143V9.53571L176.894 9.51429ZM177.366 9.51429V9L178.394 6.27857L179.102 4.5H179.894L177.902 9.49286L177.366 9.51429ZM179.423 9.51429V7.56429L179.444 4.5H180.58V9.49286H179.423V9.51429Z" fill="white"></path></g><defs><clipPath id="clip0_853_4002"><rect width="180.857" height="24" fill="white"></rect></clipPath></defs></svg>