<svg width="120" height="16" viewBox="0 0 120 16" fill="none" xmlns="http://www.w3.org/2000/svg">
<g clip-path="url(#clip0_1595_6848)">
<path d="M42.4335 15.84L40.8935 13.1733C41.6135 11.7933 41.6135 10.1667 41.6135 8.02668C41.6135 5.36001 41.6135 3.36001 40.0735 1.74001C39.5428 1.161 38.8919 0.705187 38.1663 0.404589C37.4407 0.103992 36.6581 -0.0341007 35.8735 1.15628e-05C35.091 -0.0172553 34.3135 0.128529 33.5904 0.428091C32.8673 0.727653 32.2145 1.17443 31.6735 1.74001C30.1335 3.28668 30.1335 5.24668 30.1335 8.00001C30.1335 10.7533 30.0535 12.6667 31.6735 14.28C32.2103 14.8541 32.8623 15.3084 33.5868 15.6133C34.3113 15.9103 35.091 16.049 35.8735 16.02C36.3113 16.0136 36.7471 15.96 37.1735 15.86L42.4335 15.84ZM33.8601 12.4067C33.3001 11.74 33.1401 11.02 33.1401 8.00001C33.1401 4.98001 33.3335 4.24001 33.8601 3.59334C34.1164 3.3376 34.4198 3.13385 34.7535 2.99334C35.0844 2.85237 35.4404 2.7798 35.8001 2.78001C36.1619 2.78054 36.52 2.85306 36.8535 2.99334C37.1851 3.13401 37.4862 3.33779 37.7401 3.59334C38.3001 4.26001 38.4601 4.98001 38.4601 8.00001C38.4601 11.02 38.3001 11.7533 37.7401 12.4067C37.4922 12.6696 37.1926 12.8784 36.8601 13.02C36.5229 13.1533 36.1627 13.219 35.8001 13.2133C35.4389 13.2206 35.0802 13.1525 34.7468 13.0133C34.4131 12.8734 34.1115 12.667 33.8601 12.4067Z" fill="#FCFAF2"/>
<path d="M77.8867 0.160004H80.8667V15.84H77.8867V0.160004Z" fill="#FCFAF2"/>
<path d="M5.66 16C3.33333 16 1.54667 15.5133 0 13.96L1.94 12C2.44123 12.457 3.02805 12.8101 3.66656 13.039C4.30506 13.2678 4.9826 13.3679 5.66 13.3333C7.44 13.3333 8.40667 12.6667 8.40667 11.3733C8.41586 11.1326 8.37734 10.8925 8.29333 10.6667C8.21193 10.4429 8.08479 10.2386 7.92 10.0667C7.53429 9.73528 7.05352 9.53457 6.54667 9.49335L4.66667 9.23335C3.5512 9.13843 2.50079 8.66844 1.68667 7.90002C1.31227 7.48439 1.02242 6.99981 0.833333 6.47335C0.634314 5.93892 0.545861 5.36964 0.573333 4.80002C0.56 2.04002 2.58 0.0800171 6 0.0800171C8.1 0.0800171 9.72 0.560017 11.02 1.87335L9.06 3.76002C8.63757 3.36909 8.13861 3.07007 7.59469 2.88188C7.05076 2.69368 6.4737 2.62041 5.9 2.66668C4.28 2.66668 3.48 3.57335 3.48 4.66668C3.49283 5.09115 3.66406 5.49545 3.96 5.80002C4.37902 6.14764 4.88287 6.3777 5.42 6.46668L7.28 6.70668C8.39133 6.73674 9.45247 7.17592 10.26 7.94002C10.6737 8.38871 10.9953 8.91419 11.2067 9.48668C11.4134 10.0656 11.5062 10.6791 11.48 11.2933C11.48 14.3 8.9 16.02 5.65333 16.02" fill="#FCFAF2"/>
<path d="M15.834 15.84V0.160004H26.094V2.82667H18.894V6.52667H25.0273V9.33334H18.9007V13.18H26.1007V15.8467H15.834" fill="#FCFAF2"/>
<path d="M51.8728 16C48.7128 16 46.1328 13.8 46.1328 10.4533V0.160004H49.2195V10.36C49.2195 12.16 50.2795 13.2133 51.8861 13.2133C53.4928 13.2133 54.5528 12.14 54.5528 10.36V0.160004H57.5328V10.44C57.5328 13.7733 55.0528 15.9867 51.8928 15.9867" fill="#FCFAF2"/>
<path d="M71.9073 14.28C71.3761 14.8578 70.7248 15.3124 69.9993 15.6118C69.2737 15.9112 68.4914 16.0483 67.7073 16.0133C66.9259 16.0347 66.1487 15.8914 65.4263 15.5927C64.7038 15.2941 64.0523 14.8468 63.514 14.28C62.0006 12.7267 62.0006 10.7667 62.0006 8.00001C62.0006 5.23334 61.9206 3.33334 63.5473 1.72001C64.0734 1.14738 64.7183 0.696717 65.4369 0.399601C66.1556 0.102485 66.9304 -0.0338989 67.7073 6.63567e-06C68.4883 -0.0109454 69.2634 0.137068 69.9854 0.435047C70.7075 0.733025 71.3613 1.17474 71.9073 1.73334C73.4473 3.28667 73.4473 5.24667 73.4473 8.01334C73.4473 10.78 73.4473 12.6667 71.9073 14.28ZM69.6473 3.61334C69.3938 3.35755 69.0921 3.15452 68.7597 3.01596C68.4273 2.8774 68.0708 2.80606 67.7106 2.80606C67.3505 2.80606 66.994 2.8774 66.6616 3.01596C66.3291 3.15452 66.0275 3.35755 65.774 3.61334C65.2073 4.28001 65.054 5.00001 65.054 8.02001C65.054 11.04 65.2073 11.7733 65.774 12.42C66.0266 12.6774 66.3279 12.8819 66.6605 13.0215C66.993 13.1611 67.35 13.2329 67.7106 13.2329C68.0713 13.2329 68.4283 13.1611 68.7608 13.0215C69.0934 12.8819 69.3947 12.6774 69.6473 12.42C70.2073 11.7533 70.3673 11.04 70.3673 8.02001C70.3673 5.00001 70.2273 4.24001 69.6473 3.59334V3.61334Z" fill="#FCFAF2"/>
<path d="M95.186 15.84L94.2993 13.0667H88.7993L87.8393 15.84H84.666L90.346 0.160004H92.666L98.326 15.84H95.186ZM91.5393 4.72667L89.5993 10.44H93.4794L91.5393 4.72667Z" fill="#FCFAF2"/>
<path d="M116.119 0.160004H119.999V4.08H116.119V0.160004Z" fill="#FCFAF2"/>
<path d="M106.42 12.4667V0.160004H104.48V14.4467L106.42 12.4667Z" fill="#FCFAF2"/>
<path d="M107.78 13.88L105.84 15.84H120V13.88H107.78Z" fill="#FCFAF2"/>
<path d="M110.299 8.56667V0.160004H108.359V10.5267L110.299 8.56667Z" fill="#FCFAF2"/>
<path d="M111.66 9.96002L109.713 11.92H120V9.96002H111.66Z" fill="#FCFAF2"/>
<path d="M114.172 4.66667V0.160004H112.232V6.60667L114.172 4.66667Z" fill="#FCFAF2"/>
<path d="M115.541 6.04001L113.607 8.00001H120.001V6.04001H115.541Z" fill="#FCFAF2"/>
</g>
<defs>
<clipPath id="clip0_1595_6848">
<rect width="120" height="16" fill="white"/>
</clipPath>
</defs>
</svg>
