<svg width="138" height="61" viewBox="0 0 138 61" fill="none" xmlns="http://www.w3.org/2000/svg">
<path fill-rule="evenodd" clip-rule="evenodd" d="M27.4151 9.82367C27.4151 4.76824 31.5425 0.675224 36.6402 0.675049C41.7102 0.675049 45.8245 4.7266 45.8796 9.74007C47.9975 8.49274 50.4714 7.76541 53.1226 7.76541C57.1406 7.76541 60.7622 9.4057 63.345 12.0438C66.4478 7.59164 71.63 4.66703 77.5076 4.66716C83.943 4.66716 89.5284 8.18272 92.4838 13.3695C93.7124 12.5994 95.1735 12.1452 96.7475 12.1452C98.8661 12.1452 100.779 12.9581 102.227 14.2765C105.414 12.0445 109.306 10.7248 113.517 10.7248C117.674 10.7248 121.526 12.0142 124.707 14.2048C126.076 12.7784 128.002 11.8832 130.147 11.8832C134.304 11.8832 137.665 15.2198 137.665 19.3317C137.665 22.5366 135.619 25.2583 132.763 26.3088C133.022 27.568 133.155 28.8627 133.155 30.1936C133.155 40.9424 124.355 49.6625 113.517 49.6625C109.432 49.6625 105.634 48.427 102.486 46.3089C99.7294 48.7614 96.09 50.2654 92.0986 50.2654C91.3614 50.2654 90.6507 50.1937 89.9401 50.0983C88.9572 54.6703 84.8595 58.1075 79.9516 58.1075C76.0266 58.1075 72.6262 55.9123 70.9194 52.6956C69.4118 57.1478 65.1766 60.3573 60.1883 60.3573C55.2545 60.3573 51.0718 57.2255 49.5138 52.8628C49.4783 52.8645 49.4428 52.8666 49.407 52.8687C49.3188 52.8739 49.2285 52.8792 49.1312 52.8792C43.7331 52.8792 38.9627 50.2654 36.0106 46.2542C32.7305 48.5521 28.7271 49.9067 24.3956 49.9067C13.2568 49.9067 4.23655 40.9668 4.23655 29.9317C4.23655 29.311 4.26365 28.7021 4.3183 28.0992C2.28188 26.2555 0.996323 23.6114 0.996582 20.6573C0.996582 15.0947 5.54741 10.5754 11.1644 10.5754C12.9138 10.5754 14.5548 11.0124 15.99 11.7766C18.5456 10.6063 21.3888 9.94939 24.3953 9.94939C25.42 9.94939 26.4315 10.0264 27.429 10.1758C27.4158 10.0567 27.4151 9.94281 27.4151 9.82367ZM33.2928 10.3605C33.2928 8.02711 34.7133 6.81006 36.8724 6.81006C39.0322 6.81006 40.4541 8.02711 40.4541 10.3605V26.5054L48.4077 17.7504C49.1463 16.9743 50.0754 16.3885 51.1553 16.3885C52.3168 16.3885 53.5607 17.1297 54.1618 18.2157C54.7363 17.1112 55.8972 16.3885 57.236 16.3885C59.1494 16.3885 60.4763 17.4574 60.9133 19.0629L65.5324 35.6428H65.6287L70.0033 19.5526C70.4948 17.7504 71.4644 16.3885 73.4302 16.3885C75.1238 16.3885 76.1133 17.2179 76.6181 18.0716C77.0697 16.9737 78.026 16.3885 79.5668 16.3885C81.6721 16.3885 82.8078 17.5582 82.8078 19.7428V20.8585H82.9008C84.0763 17.8511 86.9785 16.3885 90.4586 16.3885C95.5724 16.3885 100.135 19.5578 101.37 26.2065C102.758 20.2029 107.421 16.3885 114.46 16.3885C122.702 16.3885 127.418 22.1723 127.418 28.0094C127.418 30.4442 126.68 31.0714 124.276 31.0714H108.078C108.078 34.8194 110.522 37.5404 114.706 37.5404C117.826 37.5404 119.143 36.3708 120.255 35.3833C121.068 34.6617 121.771 34.0374 122.988 34.0374C124.708 34.0374 125.943 35.5 125.943 36.8131C125.943 41.0922 119.01 43.0853 114.706 43.0853C106.557 43.0853 102.526 38.6383 101.324 33.649C100.248 38.8773 96.7878 43.0853 90.6512 43.0853C87.3704 43.0853 84.9131 41.7728 83.5848 39.4868H83.4919V48.9705C83.4919 51.3045 82.0706 52.515 79.9122 52.515C77.7537 52.515 76.3325 51.3045 76.3325 48.9705V22.5119L68.2832 45.1271C66.5578 49.9913 64.6033 52.515 60.0799 52.515C56.8954 52.515 55.5691 50.9635 55.5691 49.2627C55.5691 47.3644 56.9491 46.3915 58.8625 46.3915H59.601C60.5301 46.3915 61.5549 46.3441 62.1015 44.1536L54.6393 23.1037C54.5503 22.8417 54.4677 22.6023 54.3916 22.3814C54.2457 21.9581 54.1234 21.6032 54.0243 21.2896C53.9016 21.4502 53.7639 21.5975 53.6109 21.7613C53.5594 21.8164 53.5062 21.8734 53.4512 21.9333L48.1613 27.4242L55.6096 37.3436C55.8553 37.6839 56.3474 38.4659 56.3474 39.6296C56.3474 41.4318 54.8857 43.0853 52.9723 43.0853C51.1958 43.0853 50.2666 42.2079 49.7333 41.4318L42.9546 31.9482L40.4541 34.1388V39.5342C40.4541 41.8682 39.0322 43.0853 36.8724 43.0853C34.7133 43.0853 33.2928 41.8682 33.2928 39.5342V36.9197C32.0077 41.1152 27.2106 43.0853 22.5909 43.0853C16.1269 43.0853 10.7275 40.2154 10.7275 36.7177C10.7275 35.1603 11.6022 33.7504 13.6112 33.7504C14.9556 33.7504 15.7715 34.5721 16.6961 35.5033C17.905 36.7209 19.2998 38.1256 22.3047 38.1256C24.8603 38.1256 26.4721 37.004 26.4721 35.548C26.4721 33.842 25.0547 33.492 22.7349 32.9193C22.6122 32.889 22.4869 32.858 22.3591 32.8263L18.1353 31.8054C13.9672 30.7851 10.7275 29.083 10.7275 24.3141C10.7275 18.531 16.5095 16.3885 21.4705 16.3885C26.9098 16.3885 32.4168 18.5317 32.4168 21.7846C32.4168 23.4374 31.2831 24.8993 29.4242 24.8993C28.1906 24.8993 27.4817 24.2676 26.6882 23.5605C25.6799 22.662 24.535 21.6418 22.0032 21.6418C19.5027 21.6418 17.8889 22.3217 17.8889 23.8257C17.8889 25.4851 19.5014 25.8728 21.7156 26.3559L24.7095 27.0359C28.1398 27.8178 32.1305 29.1613 33.2928 32.5399V10.3605ZM125.421 17.7207V16.8966H129.127V17.7207H127.772V21.3666H126.776V17.7207H125.421ZM129.645 21.3666V16.8966H131.04L132.096 19.9705H132.109L133.105 16.8966H134.5V21.3666H133.57V18.1973H133.557L132.448 21.3666H131.697L130.575 18.2269V21.3666H129.645ZM120.639 26.9885C120.241 23.7296 117.797 21.3489 114.602 21.3489C111.016 21.3489 108.858 23.5387 108.081 26.9885H120.639ZM94.539 29.6622C94.539 25.4845 92.6662 21.9814 88.8341 21.9333C84.67 21.88 83.096 25.6279 83.096 29.6622C83.096 33.3094 84.4774 37.5404 88.8341 37.5404C93.4034 37.493 94.539 32.9691 94.539 29.6622Z" fill="#333333"/>
</svg>
