<svg width="207" height="35" viewBox="0 0 207 35" fill="none" xmlns="http://www.w3.org/2000/svg">
<g clip-path="url(#clip0_908_3599)">
<path d="M24.4631 31.48C24.9692 31.48 25.4752 31.3367 25.9159 31.0829L31.2659 27.9912C32.3446 27.3622 33.6001 27.1084 34.8434 27.2407C41.3375 27.9912 45.9066 29.2274 47.2492 29.6147C47.524 29.6925 47.8328 29.6038 48.0083 29.3719C48.3279 28.9748 48.5592 28.5109 48.7129 28.0252C48.8776 27.5504 48.9441 27.0428 48.9224 26.5352C48.9115 26.2256 48.702 25.9718 48.4054 25.8831C46.2916 25.265 36.9803 22.7259 24.4643 22.7259C11.9483 22.7259 2.62373 25.276 0.521995 25.894C0.236276 25.9827 0.0268291 26.2365 0.00503695 26.5461C-0.0167552 27.0537 0.0486212 27.5504 0.214484 28.0361C0.368239 28.5219 0.599478 28.9748 0.919097 29.3828C1.10675 29.6148 1.40337 29.7034 1.67819 29.6257C3.02083 29.2274 7.5887 28.0021 14.084 27.2517C15.3273 27.1084 16.5719 27.3731 17.6615 28.0021L23.0115 31.0938C23.4522 31.3367 23.9582 31.48 24.4643 31.48H24.4631Z" fill="#333333"/>
<path d="M15.5353 14.0799C16.1189 15.095 17.4288 15.4484 18.4409 14.8643C19.4543 14.279 19.8054 12.9651 19.223 11.9499L14.4021 3.59169C14.2484 3.32697 13.9506 3.21646 13.643 3.23832C13.258 3.27111 12.7181 3.47026 12.091 3.83456C11.4638 4.19886 11.0122 4.57408 10.8028 4.88374C10.626 5.13753 10.5716 5.45811 10.7253 5.72284L15.5353 14.0811V14.0799Z" fill="#333333"/>
<path d="M11.1212 20.0641C12.1345 20.6494 13.4445 20.3069 14.0268 19.2796C14.6103 18.2644 14.2689 16.9505 13.2447 16.3652L4.91283 11.5407C4.64891 11.3865 4.32929 11.4411 4.07626 11.6184C3.75664 11.8394 3.39344 12.2814 3.03023 12.9104C2.66703 13.5395 2.46848 14.092 2.43579 14.4672C2.414 14.7769 2.52417 15.0744 2.7881 15.2286L11.1212 20.0641Z" fill="#333333"/>
<path d="M26.5878 11.1096C26.5878 12.2911 25.6302 13.2407 24.4631 13.2407C23.296 13.2407 22.3384 12.2802 22.3384 11.1096V1.44961C22.3384 1.13995 22.5478 0.897086 22.8226 0.764724C23.1641 0.599575 23.7367 0.5 24.4631 0.5C25.1895 0.5 25.7622 0.599575 26.1036 0.764724C26.3784 0.897086 26.5878 1.13995 26.5878 1.44961V11.1096Z" fill="#333333"/>
<path d="M33.3904 14.0799C32.8069 15.095 31.4969 15.4484 30.4848 14.8643C29.4715 14.279 29.1204 12.9651 29.7027 11.9499L34.5236 3.59169C34.6774 3.32697 34.9752 3.21646 35.2827 3.23832C35.6677 3.27111 36.2077 3.47026 36.8348 3.83456C37.4619 4.19886 37.9135 4.57408 38.123 4.88374C38.2997 5.13753 38.3542 5.45811 38.2004 5.72284L33.3904 14.0811V14.0799Z" fill="#333333"/>
<path d="M37.8046 20.0641C36.7925 20.6494 35.4825 20.3069 34.899 19.2796C34.3154 18.2644 34.6568 16.9505 35.6811 16.3652L44.0141 11.5407C44.2781 11.3865 44.5977 11.4411 44.8507 11.6184C45.1594 11.8394 45.5335 12.2814 45.8967 12.9104C46.2599 13.5395 46.4585 14.092 46.4912 14.4672C46.513 14.7769 46.4028 15.0744 46.1389 15.2286L37.8058 20.0641H37.8046Z" fill="#333333"/>
<path d="M85.4227 13.0124H89.1298C89.2666 13.0124 89.3889 13.0889 89.4349 13.2274L93.1275 22.7161L96.7135 13.2274C96.7595 13.1047 96.8818 13.0124 97.0186 13.0124H100.651C100.833 13.0124 100.986 13.1655 100.986 13.3342C100.986 13.3804 100.97 13.4265 100.956 13.4715L91.9071 34.2851C91.8611 34.4077 91.7388 34.4842 91.602 34.4842L88.3974 34.4988C88.2145 34.4988 88.062 34.3458 88.062 34.177C88.062 34.1308 88.0777 34.0847 88.0923 34.0398L91.1746 26.7696L85.1322 13.4702C85.0559 13.3015 85.1322 13.1023 85.3005 13.0416C85.3307 13.027 85.3767 13.0112 85.4227 13.0112V13.0124Z" fill="#333333"/>
<path d="M140.168 15.1242V13.3488C140.168 13.1654 140.321 13.0124 140.503 13.0124H143.784C143.967 13.0124 144.12 13.1654 144.12 13.3488V27.4751C144.12 27.6585 143.967 27.8115 143.784 27.8115H140.503C140.321 27.8115 140.168 27.6585 140.168 27.4751V25.6075C139.115 27.1994 137.33 28.1478 135.423 28.1175C130.633 28.1175 128.13 24.4441 128.13 20.3433C128.13 15.0027 131.839 12.6906 135.301 12.6906C137.591 12.6906 139.177 13.7775 140.168 15.1242ZM132.081 20.3737C132.081 22.9141 133.652 24.874 136.139 24.874C138.626 24.874 140.259 23.1909 140.259 20.5729C140.259 17.9548 138.687 15.9511 136.048 15.9511C133.409 15.9511 132.081 17.9098 132.081 20.3737Z" fill="#333333"/>
<path d="M147.065 27.4605V13.3488C147.065 13.1655 147.218 13.0125 147.401 13.0125H150.682C150.865 13.0125 151.017 13.1497 151.017 13.3343V15.2468C151.796 13.9001 153.229 12.6761 155.687 12.6761C158.144 12.6761 161.043 13.9305 161.043 19.6706V27.4448C161.043 27.6281 160.89 27.7811 160.707 27.7811H157.412C157.229 27.7811 157.077 27.6281 157.077 27.4448V19.7168C157.077 18.3397 156.741 15.9669 154.285 15.9669C151.828 15.9669 151.004 18.1406 151.004 20.1454V27.4763C151.004 27.6597 150.851 27.8127 150.668 27.8127H147.387C147.219 27.7981 147.067 27.6439 147.067 27.4605H147.065Z" fill="#333333"/>
<path d="M163.881 27.4605V13.3488C163.881 13.1654 164.033 13.0124 164.216 13.0124H167.481C167.664 13.0124 167.817 13.1654 167.817 13.3488V15.2614C168.595 13.9147 170.028 12.6906 172.485 12.6906C174.941 12.6906 177.841 13.9463 177.841 19.6852V27.4593C177.841 27.6427 177.688 27.7957 177.506 27.7957H174.225C174.042 27.7957 173.889 27.6427 173.889 27.4593V19.7301C173.889 18.3531 173.554 15.9803 171.097 15.9803C168.641 15.9803 167.802 18.1381 167.802 20.1284V27.4593C167.802 27.6427 167.649 27.7811 167.481 27.7957H164.2C164.017 27.7957 163.879 27.6427 163.879 27.4593L163.881 27.4605Z" fill="#333333"/>
<path d="M198.288 13.0124H201.477C201.66 13.0124 201.812 13.1497 201.812 13.3342V16.2571C202.453 13.3488 204.925 12.3701 206.741 12.7829C206.893 12.8133 207 12.9517 207 13.1047V16.3191C207 16.5024 206.847 16.6554 206.679 16.6554H206.619C203.261 15.9973 201.904 17.803 201.904 20.3591V27.4751C201.904 27.6585 201.752 27.8115 201.569 27.8115H198.288C198.105 27.8115 197.953 27.6585 197.953 27.4751V13.3488C197.968 13.1654 198.105 13.0124 198.288 13.0124Z" fill="#333333"/>
<path d="M63.7095 16.2268L61.3293 15.3998C60.5048 15.1084 59.0714 14.2826 59.0714 12.9663C59.0714 11.65 59.9866 10.8242 61.8027 10.8242C63.4806 10.8242 64.4117 11.6512 65.0073 12.9517C65.0836 13.1205 65.2821 13.197 65.4492 13.1205C65.4492 13.1205 65.4649 13.1205 65.4649 13.1047L68.1502 11.5443C68.3028 11.452 68.3488 11.2844 68.287 11.1157C67.4783 9.32452 65.586 7.16666 61.8172 7.16666C57.6512 7.18123 55.0277 9.67667 55.0277 12.9517C55.0277 16.2268 57.1791 17.9256 60.0932 18.9201L62.5036 19.7313C64.2131 20.313 65.0061 21.0938 65.0061 22.1648C65.0061 23.2359 64.3342 24.4915 61.6646 24.4915C59.2227 24.4915 58.3534 23.1909 57.8655 21.9657C57.805 21.7969 57.6065 21.7204 57.4382 21.7823C57.4224 21.7823 57.4079 21.7981 57.3922 21.7981L54.5846 23.4362C54.4478 23.5127 54.3861 23.6961 54.4478 23.8491C55.5156 26.5267 58.4915 28.1187 61.8329 28.1187C65.7386 28.1187 69.0352 26.1138 69.0352 22.0883C69.0352 18.0628 64.7167 16.5631 63.7107 16.2268H63.7095Z" fill="#333333"/>
<path d="M85.3007 23.9402C85.2087 23.7872 85.0114 23.7253 84.8588 23.8175C84.8431 23.8175 84.8431 23.8333 84.8285 23.8333C83.5622 24.7671 82.067 24.7817 80.9532 23.0379L78.8623 19.7629L83.8213 13.565C83.9278 13.4277 83.9133 13.2128 83.7753 13.1059C83.7147 13.0598 83.6385 13.0294 83.5622 13.0294H79.6868C79.5803 13.0294 79.4883 13.0756 79.412 13.1667L75.125 19.0889V7.16666C75.125 6.9833 74.9724 6.83029 74.7896 6.83029H71.5087C71.3259 6.83029 71.1733 6.9833 71.1733 7.16666V27.4751C71.1733 27.6585 71.3259 27.8115 71.5087 27.8115H74.7896C74.9724 27.8115 75.125 27.6585 75.125 27.4751V20.8789L78.1456 25.639C79.2594 27.4144 80.8612 28.1187 82.5706 28.1187C84.1881 28.1187 85.2414 27.6742 86.4763 26.466C86.5828 26.3591 86.6131 26.1903 86.5368 26.0677L85.3007 23.9402Z" fill="#333333"/>
<path d="M108.813 19.2565L106.616 18.4454C105.823 18.1539 105.136 17.7265 105.136 17.0829C105.136 16.4393 105.716 15.7362 106.921 15.7362C107.974 15.7362 108.599 16.1491 108.95 16.8692C109.026 17.0379 109.225 17.0987 109.392 17.0222C109.392 17.0222 109.408 17.0222 109.408 17.0076L111.712 15.6767C111.864 15.5844 111.926 15.3865 111.834 15.2335V15.2177C111.208 14.1163 109.957 12.6919 106.951 12.6919C103.259 12.6919 101.366 14.8352 101.366 17.1922C101.366 19.5492 103.289 20.6664 105.059 21.3707L107.423 22.3349C108.034 22.5801 108.766 22.9627 108.766 23.6815C108.766 24.4004 107.957 25.0124 106.691 25.0124C105.531 25.0124 104.234 24.5376 103.685 23.2067C103.624 23.0392 103.426 22.9469 103.257 23.0234C103.242 23.0234 103.227 23.0392 103.211 23.0392L100.892 24.3859C100.755 24.4624 100.693 24.6457 100.755 24.7842C101.441 26.5449 103.456 28.1053 106.691 28.1053C110.215 28.1053 112.565 26.2231 112.565 23.5601C112.565 20.8971 110.795 19.9948 108.812 19.2602L108.813 19.2565Z" fill="#333333"/>
<path d="M122.072 16.2413C123.354 16.2268 124.621 16.6396 125.643 17.4205C125.795 17.5273 125.994 17.497 126.1 17.344C126.1 17.3282 126.116 17.3282 126.116 17.3136L127.474 14.9724C127.566 14.8194 127.52 14.636 127.368 14.5291C125.965 13.5795 124.239 12.6919 121.875 12.6919C119.511 12.6919 117.389 13.3355 115.848 14.8801C114.307 16.4259 113.621 18.262 113.621 20.4514C113.621 23.0841 114.704 24.7514 115.879 25.9463C117.053 27.14 119.174 28.1199 121.891 28.1199C124.333 28.1199 126.147 27.1096 127.368 26.2838C127.505 26.1916 127.551 25.9936 127.46 25.8406L126.117 23.4994C126.025 23.3464 125.828 23.2845 125.675 23.3767C125.66 23.3767 125.66 23.3925 125.645 23.3925C124.607 24.1576 123.357 24.5716 122.075 24.5716C120.473 24.5716 117.558 23.6536 117.558 20.4089C117.558 17.1642 120.472 16.2462 122.075 16.2462L122.072 16.2413Z" fill="#333333"/>
<path d="M188.583 24.8424C187.271 24.8424 186.02 24.5364 185.119 23.8018C184.22 23.0671 183.792 22.3324 183.792 21.4447H195.51C195.693 21.4447 195.846 21.2917 195.846 21.1084V21.0926C195.77 17.6038 194.656 15.9657 193.558 14.8643C192.428 13.7313 190.506 12.6906 187.989 12.6906C185.472 12.6906 183.503 13.6245 182.191 14.9408C180.878 16.2571 179.887 17.9244 179.887 20.4648C179.887 23.0052 180.909 24.6736 182.16 25.928C183.411 27.1837 185.441 28.1163 188.34 28.1163C191.238 28.1163 193.421 27.1363 195.099 25.2237C195.221 25.0865 195.205 24.8716 195.069 24.7647C195.054 24.7489 195.038 24.7344 195.008 24.7186L192.674 23.3719C192.552 23.2954 192.399 23.3112 192.293 23.418C191.271 24.3215 189.943 24.8266 188.585 24.8412L188.583 24.8424ZM187.943 15.8746C189.819 15.8746 191.543 17.0076 191.803 19.0586H183.93C184.434 16.84 186.067 15.8746 187.944 15.8746H187.943Z" fill="#333333"/>
</g>
<defs>
<clipPath id="clip0_908_3599">
<rect width="207" height="34" fill="white" transform="translate(0 0.5)"/>
</clipPath>
</defs>
</svg>
