<svg xmlns="http://www.w3.org/2000/svg" width="48" height="20" viewBox="0 0 48 20" fill="none"><g clip-path="url(#clip0_8182_3503)"><path fill-rule="evenodd" clip-rule="evenodd" d="M47.712 11.424H41.264C41.416 12.968 42.544 13.464 43.824 13.464C45.136 13.464 46.192 13.168 47.064 12.704V15.36C45.9574 15.9967 44.6912 16.3022 43.416 16.24C40.208 16.24 37.952 14.24 37.952 10.256C37.952 6.904 39.864 4.24 42.992 4.24C46.128 4.24 47.76 6.864 47.76 10.24C47.76 10.56 47.728 11.248 47.712 11.424ZM42.976 6.928C42.152 6.928 41.24 7.512 41.24 8.992H44.64C44.64 7.512 43.784 6.928 42.976 6.928ZM32.76 16.24C31.608 16.24 30.904 15.76 30.44 15.408L30.424 19.112L27.128 19.808V4.456H30.136L30.2 5.272C30.8977 4.61023 31.8224 4.24092 32.784 4.24C35.104 4.24 37.28 6.32 37.28 10.16C37.28 14.344 35.12 16.24 32.76 16.24ZM32 7.16C31.24 7.16 30.768 7.432 30.424 7.808L30.44 12.704C30.76 13.056 31.224 13.328 32 13.328C33.216 13.328 34.032 12.008 34.032 10.232C34.032 8.512 33.2 7.16 32 7.16ZM22.592 4.456H25.896V16.008H22.592V4.456ZM22.592 0.696L25.896 0V2.688L22.592 3.392V0.704V0.696ZM19.136 8.176V16.008H15.84V4.456H18.8L18.896 5.432C19.696 4.016 21.352 4.304 21.792 4.456V7.488C21.376 7.352 19.96 7.144 19.136 8.176ZM12.296 11.952C12.296 13.896 14.376 13.296 14.792 13.12V15.808C14.352 16.048 13.56 16.24 12.48 16.24C12.0299 16.2531 11.5818 16.1746 11.163 16.009C10.7442 15.8435 10.3634 15.5946 10.0439 15.2773C9.72434 14.96 9.47269 14.581 9.30423 14.1634C9.13578 13.7457 9.05404 13.2982 9.064 12.848L9.072 2.312L12.288 1.624V4.456H14.8V7.28H12.296V11.96V11.952ZM8.368 12.512C8.368 14.888 6.52 16.24 3.784 16.24C2.55625 16.2391 1.3418 15.9858 0.216 15.496V12.352C1.32 12.952 2.696 13.4 3.784 13.4C4.52 13.4 5.008 13.208 5.008 12.6C5.008 11.016 0 11.608 0 7.96C0 5.632 1.824 4.24 4.496 4.24C5.584 4.24 6.672 4.4 7.768 4.84V7.944C6.75516 7.41095 5.63228 7.12064 4.488 7.096C3.8 7.096 3.336 7.296 3.336 7.816C3.336 9.296 8.368 8.592 8.368 12.52V12.512Z" fill="#202020"></path></g><defs><clipPath id="clip0_8182_3503"><rect width="48" height="20" fill="white"></rect></clipPath></defs></svg>