<svg xmlns="http://www.w3.org/2000/svg" width="77" height="16" viewBox="0 0 77 16" fill="none">
<path d="M0.337891 7.85935L2.08724 7.57913C2.18523 8.29426 2.45897 8.84255 2.90765 9.2232C3.35632 9.60384 3.98398 9.79497 4.78982 9.79416C5.60213 9.79416 6.20549 9.62571 6.59828 9.28799C6.99189 8.95107 7.18869 8.55504 7.18707 8.09989C7.18707 7.69252 7.01375 7.3718 6.66712 7.13775C6.42416 6.97658 5.82161 6.77249 4.85866 6.52466C3.56122 6.19099 2.66144 5.90267 2.16094 5.65809C1.65962 5.41513 1.27978 5.07821 1.02062 4.64898C0.761643 4.21812 0.627347 3.72383 0.632688 3.22115C0.628908 2.76251 0.738817 2.31008 0.952592 1.90428C1.16073 1.5042 1.45877 1.15919 1.8216 0.896789C2.09696 0.688649 2.47274 0.513714 2.94733 0.371985C3.44342 0.2256 3.95836 0.153013 4.47558 0.156556C5.29518 0.156556 6.01436 0.276419 6.63392 0.516954C7.25267 0.757489 7.70944 1.08306 8.00424 1.49367C8.29904 1.90428 8.50232 2.45419 8.61327 3.14178L6.88417 3.38151C6.8048 2.83403 6.57642 2.40722 6.20063 2.09946C5.82485 1.79171 5.29194 1.63864 4.60354 1.63864C3.79123 1.63864 3.21054 1.77632 2.86311 2.05006C2.51567 2.3238 2.34235 2.64452 2.34316 3.01139C2.34154 3.24059 2.41767 3.46331 2.55859 3.64229C2.70356 3.83585 2.92871 3.9954 3.23565 4.12255C3.41221 4.19058 3.93215 4.34365 4.79711 4.58419C6.04837 4.92434 6.92224 5.20294 7.41627 5.41998C7.886 5.61436 8.29094 5.94317 8.58412 6.36593C8.86758 6.78059 9.0085 7.29567 9.0085 7.90956C9.00731 8.51359 8.82785 9.10382 8.4926 9.60627C8.14921 10.1367 7.65275 10.5474 7.00323 10.8381C6.35451 11.1297 5.62076 11.2746 4.80196 11.2746C3.44541 11.2746 2.41281 10.9871 1.70092 10.4129C0.990656 9.8379 0.535502 8.98752 0.337891 7.85935ZM18.0233 0.397091V6.09705C18.0233 7.00573 17.9261 7.69819 17.7334 8.17602C17.5395 8.65309 17.1913 9.05144 16.7445 9.30742C16.2936 9.58015 15.7764 9.7236 15.2495 9.72208C14.7198 9.72208 14.2744 9.58683 13.914 9.31714C13.5536 9.04664 13.3179 8.67571 13.2061 8.20274C13.1332 7.87555 13.0976 7.2406 13.0984 6.29952V0.397091H11.3288V6.98792C11.3288 7.75731 11.3653 8.31694 11.4381 8.67166C11.5426 9.19971 11.724 9.64514 11.984 10.0088C12.2043 10.3053 12.4854 10.5514 12.8085 10.7304C14.3067 10.3595 15.9079 9.99177 17.5965 9.66701C17.7803 9.62976 19.2568 9.34306 19.7913 9.24668V0.397091H18.0233ZM30.6899 2.74008C30.5994 2.26323 30.412 1.81005 30.1391 1.40863C29.8767 1.03609 29.4831 0.734002 28.9559 0.501566C28.4076 0.267495 27.8165 0.150004 27.2203 0.156556C25.7715 0.156556 24.6643 0.741291 23.899 1.91076V0.397091H22.306V8.8304C22.8891 8.73969 23.4787 8.65142 24.0756 8.56557V5.2248C24.0756 3.86258 24.3493 2.93769 24.896 2.44933C25.4434 1.96097 26.0946 1.71801 26.8478 1.71963C27.3199 1.71963 27.7306 1.82734 28.0804 2.04358C28.4141 2.24281 28.6725 2.55057 28.8134 2.91826C28.9519 3.2827 29.0215 3.83342 29.0215 4.56637V7.98003C29.6071 7.92333 30.1967 7.87312 30.7911 7.8302V4.49429C30.7911 3.66011 30.7587 3.07456 30.6923 2.74008M41.6257 2.74008C41.5363 2.26307 41.349 1.80974 41.0758 1.40863C40.8134 1.03609 40.4182 0.734002 39.8918 0.501566C39.3427 0.266936 38.7508 0.149429 38.1538 0.156556C36.7065 0.156556 35.5994 0.740481 34.8332 1.90914V0.397091H33.241V7.66417C33.8305 7.62897 34.4204 7.60036 35.0106 7.57832V5.2248C35.0106 3.86258 35.2835 2.93769 35.831 2.44933C36.3785 1.96097 37.0288 1.71801 37.7828 1.71963C38.2542 1.71963 38.6656 1.82734 39.0163 2.04358C39.3499 2.24281 39.6075 2.55057 39.7476 2.91826C39.8869 3.2827 39.9565 3.83342 39.9565 4.56718V7.48438C40.5478 7.48924 41.1374 7.49814 41.7253 7.50381V4.49429C41.7253 3.66011 41.6929 3.07456 41.6273 2.74008M64.0012 0.397091L61.6817 6.88749C61.399 7.67632 61.1795 8.35095 61.0232 8.9122C60.8199 8.16873 60.5964 7.45441 60.3543 6.76763L58.1166 0.397091H56.2482L59.648 9.50422L62.187 10.0647C62.2 10.0687 62.2146 10.0711 62.2275 10.0744L65.8194 0.397091H64.0012ZM74.0461 5.69615C73.4039 5.96342 72.4401 6.19018 71.1565 6.37646C70.4276 6.48336 69.9133 6.60322 69.6136 6.73766C69.3276 6.85746 69.0844 7.06067 68.9155 7.32078C68.7138 7.64331 68.6323 8.02666 68.6853 8.40337C68.7383 8.78008 68.9225 9.12601 69.2055 9.38031C69.5626 9.70103 70.0858 9.86138 70.7726 9.86138C71.4545 9.86138 72.0603 9.70912 72.5916 9.40542C73.1024 9.1224 73.5115 8.68614 73.7611 8.1582C73.9506 7.75083 74.0453 7.14989 74.0461 6.35459V5.69615ZM74.1935 9.72289C73.5375 10.2906 72.9074 10.6915 72.3017 10.9248C71.678 11.1621 71.0164 11.2811 70.3498 11.2754C69.203 11.2754 68.3219 10.9904 67.7064 10.4194C67.0909 9.84761 66.7831 9.11791 66.7831 8.23028C66.7771 7.73287 66.8969 7.24201 67.1314 6.80327C67.35 6.3878 67.6635 6.03226 68.0449 5.76661C68.4337 5.50051 68.8639 5.30073 69.318 5.1754C69.6655 5.08145 70.1895 4.99156 70.8908 4.9049C72.3195 4.73158 73.3707 4.52425 74.0461 4.28372C74.0526 4.0367 74.0559 3.87878 74.0559 3.81237C74.0559 3.0778 73.889 2.56029 73.5537 2.25982C73.1034 1.85326 72.4312 1.64917 71.5396 1.64917C70.707 1.64917 70.0923 1.79738 69.6971 2.09461C69.3018 2.39183 69.0087 2.91745 68.8167 3.67226L67.0868 3.43253C67.2439 2.67772 67.5031 2.06788 67.8643 1.60382C68.2239 1.13894 68.7446 0.781785 69.4249 0.532341C70.1061 0.281278 70.8957 0.156556 71.7939 0.156556C72.6847 0.156556 73.4088 0.261841 73.966 0.47484C74.5232 0.687029 74.933 0.95591 75.1945 1.28148C75.4561 1.60544 75.64 2.01443 75.7453 2.50846C75.8044 2.81702 75.8344 3.37179 75.8344 4.17357V6.57893C75.8344 8.25457 75.8724 9.31552 75.9477 9.76096C76.0244 10.2085 76.1752 10.6402 76.394 11.0381H74.5466C74.3524 10.6251 74.2329 10.1809 74.1935 9.72613" fill="#202020"/>
<path d="M73.2984 14.6999C72.3096 14.3023 71.0874 13.8844 69.6936 13.3693C69.5373 13.3166 69.3729 13.264 69.2134 13.2106C68.6497 13.0218 68.0633 12.8396 67.4438 12.638C66.6501 12.3869 65.8135 12.1221 64.9275 11.8985C64.0423 11.6661 63.1239 11.4102 62.1658 11.1713L59.183 10.5136C58.1552 10.3047 57.0927 10.1265 56.0082 9.92324C54.9238 9.72077 53.8054 9.59928 52.6731 9.43002C50.4022 9.14089 48.0471 8.8955 45.6474 8.76106C44.4472 8.69222 43.2356 8.66144 42.0216 8.60961C40.8051 8.60151 39.583 8.57073 38.3625 8.58288C35.9207 8.63228 33.4797 8.72056 31.0857 8.91331C28.6885 9.07205 26.3422 9.37738 24.0754 9.66731C21.8117 9.99127 19.6307 10.3565 17.5785 10.7744C15.5214 11.1705 13.5939 11.6305 11.8235 12.0775C10.7917 12.3391 9.82305 12.608 8.9087 12.8728C7.05078 13.4122 5.20788 14.002 3.38205 14.6416C2.37699 14.9882 1.60274 15.3073 1.07227 15.5163L0.265625 15.85L1.09899 15.5948C1.64324 15.4329 2.4515 15.2166 3.47195 14.9356C4.4924 14.6554 5.74448 14.3436 7.18121 14.0091C8.61714 13.6738 10.2474 13.3353 12.0243 12.9749C13.8044 12.6274 15.736 12.2776 17.7866 11.9528C19.8348 11.6167 22.0094 11.3511 24.2527 11.07C26.501 10.8254 28.8286 10.6124 31.1967 10.4634C33.5615 10.2909 35.9717 10.2229 38.3787 10.1937C39.583 10.1759 40.7881 10.1937 41.9875 10.1937C43.1846 10.235 44.3816 10.2569 45.5656 10.3152L47.3352 10.4205C47.9216 10.4529 48.5063 10.474 49.0846 10.5306C50.2403 10.6359 51.3887 10.7015 52.5104 10.8384C53.6304 10.9753 54.7375 11.0838 55.8139 11.2361C56.891 11.3883 57.9471 11.5292 58.9684 11.6969L61.9414 12.2274C62.8995 12.4104 63.8204 12.6145 64.708 12.7975C65.5981 12.9676 66.4355 13.196 67.2389 13.3871C68.0423 13.5782 68.8101 13.7491 69.5203 13.9443C70.9376 14.3509 72.1848 14.6748 73.1948 14.9972C74.2006 15.3308 75.0008 15.5689 75.5434 15.7398L76.376 15.9998L75.575 15.6596C75.0502 15.4385 74.2849 15.1 73.2984 14.6999Z" fill="#202020"/>
<path d="M55.6461 6.16726C55.6461 7.0271 55.4668 7.87751 55.1196 8.66413C54.7034 8.59934 54.2774 8.54265 53.853 8.48433C54.2306 7.77077 54.4272 6.97539 54.4256 6.16807C54.4256 5.52016 54.3008 4.87954 54.0579 4.28104C53.8159 3.685 53.4599 3.14194 53.0099 2.68233C52.5628 2.22601 52.0296 1.86293 51.4411 1.6141C50.8555 1.36676 50.2263 1.23933 49.5906 1.23933C48.9549 1.23933 48.3256 1.36676 47.74 1.6141C47.1515 1.86317 46.6183 2.22653 46.1712 2.68314C45.7212 3.14243 45.3652 3.68523 45.1232 4.28104C44.8803 4.87954 44.7547 5.52016 44.7547 6.16807C44.755 6.66003 44.8287 7.14919 44.9734 7.61938C44.5492 7.59801 44.1248 7.58019 43.7003 7.56593C43.464 6.54773 43.4878 5.48644 43.7694 4.47985C44.0511 3.47326 44.5815 2.55375 45.3119 1.80604C45.8692 1.23555 46.5346 0.781972 47.2693 0.471856C48.0039 0.161741 48.7931 0.00132436 49.5906 0C51.1957 0 52.7353 0.649526 53.87 1.80604C55.0088 2.97184 55.6452 4.53756 55.6428 6.16726" fill="#202020"/>
</svg>