<svg width="87" height="33" viewBox="0 0 87 33" fill="none" xmlns="http://www.w3.org/2000/svg">
<path d="M75.9206 32.5C83.1651 32.5 86.3277 29.5399 86.3277 24.7882C86.3277 21.1582 84.3331 18.5565 77.4005 17.1855C72.6489 16.313 72.0413 15.3939 72.0413 14.0696C72.0413 12.7454 73.163 11.9197 75.2039 11.9197C77.6031 11.9197 78.7719 13.1504 79.3327 15.7522L85.9696 14.2722C85.05 9.78533 82.199 6.9187 75.2507 6.9187C68.4581 6.9187 65.1397 9.76972 65.1397 14.3656C65.1397 18.3384 67.4298 20.6441 74.2224 22.0774C78.5532 22.9498 79.4729 23.7133 79.4729 25.0375C79.4256 26.5175 78.3041 27.3277 76.0608 27.3277C73.1007 27.3277 71.6674 25.7386 71.0131 23.0433L64.5321 24.3208C65.2487 28.7765 67.757 32.5 75.9206 32.5ZM63.3481 7.58861H56.3529V31.7834H63.3481V7.58861ZM63.4415 0.5H56.1971V5.04917H63.4415V0.5ZM53.8291 0.5H46.8339V31.7834H53.8291V0.5ZM37.5019 31.7834H44.4347V16.7805C44.4347 10.611 41.3656 7.02775 34.0277 7.02775C26.534 7.02775 23.574 10.6577 22.9507 15.7055L29.4785 16.6246C29.9303 13.8204 31.4104 12.7921 33.7161 12.7921C36.3646 12.7921 37.4863 14.2254 37.4863 16.8272V17.8554H31.2078C24.8358 17.8554 22.2341 20.8622 22.2341 25.2556C22.2341 30.0073 25.3967 32.2975 29.5875 32.2975C33.6694 32.2975 36.3178 30.0073 37.3928 25.8632H37.5019V31.7834ZM32.6099 26.6733C29.9615 26.6733 29.0423 25.5049 29.0423 24.0248C29.0423 22.7006 30.2731 21.7814 32.3139 21.7814H37.5174V22.498C37.5019 24.944 35.5545 26.6733 32.6099 26.6733ZM0.142578 8.10273H8.9761V31.7834H16.3295V8.10273H25.1007V1.16991H0.142578V8.10273Z" fill="black"/>
</svg>
