<svg width="118" height="12" viewBox="0 0 118 12" fill="none" xmlns="http://www.w3.org/2000/svg">
<g clip-path="url(#clip0_1595_6882)">
<path d="M0.742188 0.0342857C0.889877 0.612965 1.19067 1.1412 1.61297 1.5635C2.03528 1.9858 2.56351 2.2866 3.14219 2.43429H6.91362L7.08504 2.46857V11.9314H9.41647V2.50286L9.65647 2.4H13.4279C14.005 2.249 14.5314 1.9471 14.9532 1.52532C15.375 1.10353 15.6769 0.577066 15.8279 0L0.742188 0V0.0342857ZM82.5479 0.0342857H80.2165V11.9657H90.9136C91.4205 11.7741 91.8729 11.4615 92.2314 11.0552C92.5899 10.6489 92.8438 10.1611 92.9708 9.63429H82.5822V0L82.5479 0.0342857ZM64.6165 2.36571C65.8508 2.02286 66.8793 1.06286 67.1536 0L54.0908 0.0342857V7.09714H64.7536V9.56571H56.3879C55.7492 9.73187 55.153 10.0317 54.6388 10.4455C54.1246 10.8592 53.7041 11.3774 53.405 11.9657H67.085V4.76571H56.3879V2.36571H64.6165ZM104.456 11.9657H106.754V7.16571H115.188V11.9657H117.485V4.76571H104.456V11.9657ZM29.9879 2.4H38.9022C39.4888 2.26123 40.0261 1.96403 40.4553 1.54081C40.8846 1.11758 41.1894 0.5846 41.3365 0L27.5879 0C27.7322 0.580321 28.0318 1.11037 28.4547 1.53321C28.8775 1.95605 29.4076 2.25571 29.9879 2.4ZM29.9879 7.13143H38.9022C39.4888 6.99266 40.0261 6.69546 40.4553 6.27223C40.8846 5.84901 41.1894 5.31603 41.3365 4.73143H27.5879C27.7322 5.31175 28.0318 5.8418 28.4547 6.26464C28.8775 6.68748 29.4076 6.98714 29.9879 7.13143ZM29.9879 11.9657H38.9022C39.4888 11.8269 40.0261 11.5297 40.4553 11.1065C40.8846 10.6833 41.1894 10.1503 41.3365 9.56571H27.5879C27.7322 10.146 28.0318 10.6761 28.4547 11.0989C28.8775 11.5218 29.4076 11.8214 29.9879 11.9657ZM106.514 2.4H115.428C116.008 2.25571 116.538 1.95605 116.961 1.53321C117.384 1.11037 117.684 0.580321 117.828 0L104.114 0C104.258 0.580321 104.558 1.11037 104.98 1.53321C105.403 1.95605 105.933 2.25571 106.514 2.4Z" fill="#FCFAF2"/>
</g>
<defs>
<clipPath id="clip0_1595_6882">
<rect width="117.257" height="12" fill="white" transform="translate(0.742188)"/>
</clipPath>
</defs>
</svg>
