<svg xmlns="http://www.w3.org/2000/svg" width="50" height="12" viewBox="0 0 50 12" fill="none"><g clip-path="url(#clip0_1890_888)"><path d="M5.33645 2.48603C5.33645 2.34195 5.31651 2.30327 5.17853 2.29362L4.5556 2.22684V1.61182H7.19315V2.22684L6.53155 2.30327C6.38247 2.32269 6.37271 2.34195 6.37271 2.48603V6.17513C6.37271 7.90533 5.37983 8.68466 3.66491 8.68466C1.77851 8.68466 1.00769 7.83859 1.00769 6.1461V2.48603C1.00769 2.34195 0.987816 2.30327 0.849723 2.29362L0.230469 2.22684V1.61182H2.98608V2.22684L2.32357 2.30327C2.17556 2.32269 2.16652 2.34195 2.16652 2.48603V5.98433C2.16652 7.2059 2.60067 7.75332 3.72605 7.75332C4.85158 7.75332 5.33638 7.29818 5.33638 6.01336L5.33645 2.48603Z" fill="black"></path><path d="M10.8465 8.57048V7.96511L11.3402 7.90709C11.4782 7.88778 11.4982 7.83065 11.4982 7.71557V5.48443C11.4982 4.90817 11.4296 4.43037 10.7969 4.43037C10.2934 4.43037 9.76971 4.69999 9.44314 4.93105V7.69623C9.44314 7.84996 9.45306 7.87194 9.60187 7.88789L10.1245 7.95542V8.5704H7.67665V7.94566L8.1505 7.88748C8.28859 7.86818 8.30842 7.84016 8.30842 7.69597V4.59971C8.30842 4.49432 8.27879 4.42407 8.18025 4.39861L7.63867 4.21593L7.7381 3.60117H9.19758L9.27611 4.12824L9.31585 4.13793C9.86914 3.77346 10.4513 3.50391 11.1624 3.50391C12.2293 3.50391 12.6338 4.1572 12.6338 5.26038V7.69623C12.6338 7.85003 12.6437 7.87202 12.7925 7.88797L13.3341 7.9555V8.57055L10.8465 8.57048Z" fill="black"></path><path d="M13.7578 8.57041V7.96504L14.3508 7.8879C14.4889 7.86848 14.5088 7.84046 14.5088 7.69616V4.5999C14.5088 4.49462 14.479 4.42426 14.3797 4.39881L13.8381 4.21613L13.9363 3.60137H15.6449V7.69631C15.6449 7.85004 15.655 7.87203 15.8029 7.88798L16.3851 7.9555V8.57049L13.7578 8.57041ZM14.9529 2.65911C14.479 2.65911 14.2119 2.39559 14.2119 1.93873C14.2119 1.48173 14.4827 1.23584 14.9529 1.23584C15.4231 1.23584 15.6939 1.48538 15.6939 1.93873C15.6939 2.39209 15.4168 2.65911 14.9529 2.65911Z" fill="black"></path><path d="M23.1795 6.02288C23.0603 6.03254 23.0215 6.06071 23.0215 6.15719V8.22399C22.2706 8.57016 21.2831 8.6861 20.4636 8.6861C17.7674 8.6861 16.8379 7.13799 16.8379 5.07119C16.8379 3.00559 18.0537 1.48584 20.5385 1.48584C21.2496 1.48584 22.1685 1.66155 22.7707 2.04377V3.86009L21.6786 3.78369L21.5314 2.91868C21.5017 2.7843 21.462 2.74304 21.3726 2.72635C21.0767 2.64775 20.7716 2.60583 20.4646 2.60162C19.1901 2.60162 18.4301 3.54302 18.4301 5.05182C18.4301 6.63798 19.1215 7.57972 20.5332 7.57972C20.8082 7.57789 21.0824 7.55568 21.3538 7.51297C21.462 7.49359 21.5118 7.46463 21.5118 7.33726V6.07983H20.4142L20.5522 5.21523H23.584V5.98401L23.1795 6.02288Z" fill="black"></path><path d="M28.5208 8.19505C27.8931 8.50753 27.2003 8.67561 26.4954 8.68616C24.59 8.68616 23.9375 7.53255 23.9375 6.03248C23.9375 4.29222 25.0342 3.46582 26.3871 3.46582C27.6905 3.46582 28.5596 4.12888 28.5596 5.79173C28.5596 5.90763 28.5497 6.24341 28.5398 6.43593H25.5188C25.5684 7.11859 25.8744 7.57031 26.6841 7.57031C27.0695 7.57031 27.484 7.48258 28.1555 7.24347L28.5208 8.19505ZM27.0992 5.52281C27.0891 4.71553 26.7634 4.5039 26.3582 4.5039C25.934 4.5039 25.5883 4.73473 25.5287 5.52281H27.0992Z" fill="black"></path><path d="M31.4072 7.8327C31.4072 8.39477 30.966 8.83083 30.3887 8.83083C29.8455 8.83083 29.4609 8.49811 29.4609 8.01636C29.4609 7.45415 29.9363 7.02979 30.5927 7.02979C31.0566 7.02979 31.4072 7.37383 31.4072 7.8327Z" fill="black"></path><path d="M35.4595 1.17857C35.3575 1.1902 35.2896 1.1902 35.267 1.1902C34.8485 1.1902 34.7465 1.16732 34.7465 1.08693C34.7465 0.995144 34.7918 0.857405 34.8257 0.823045C34.8595 0.800275 34.9048 0.800275 35.2332 0.800275C35.5387 0.811604 36.7609 0.685417 36.9985 0.616511C37.157 0.582113 37.3153 0.559082 37.406 0.559082C37.4738 0.559082 37.5076 0.59374 37.5076 0.673939C37.5076 0.731219 37.4966 0.800275 37.4624 0.880436C37.3832 1.08693 37.3153 1.29328 37.2362 1.52277C36.1723 4.43639 35.8103 5.43447 35.1538 7.10967C35.0292 7.44231 34.9841 7.60278 34.9841 7.74045C34.9841 7.90111 35.097 8.01596 35.2668 8.01596C35.5272 8.01596 35.9232 7.7062 36.2401 7.27025C36.3534 7.10967 36.41 7.05224 36.4553 7.05224C36.5345 7.05224 36.704 7.22415 36.704 7.29309C36.704 7.45368 36.2401 7.95846 35.844 8.24531C35.3915 8.56644 34.8708 8.73857 34.3277 8.73857C33.694 8.73857 33.3203 8.42881 33.3203 7.88974C33.3203 7.53403 33.3658 7.40795 34.0559 5.62949C34.5767 4.29887 35.0406 3.09429 35.4479 2.02744C35.4707 1.95865 35.4934 1.87837 35.527 1.80958C35.6517 1.51129 35.7082 1.31631 35.7082 1.25888C35.7082 1.20164 35.6627 1.17861 35.5497 1.17861H35.4595V1.17857Z" fill="black"></path><path d="M39.8163 3.56493C40.0088 3.53053 40.1107 3.51902 40.1672 3.51902C40.2578 3.51902 40.3029 3.55349 40.3029 3.6108C40.3029 3.71407 40.2805 3.82874 40.2239 3.95485C40.1336 4.18438 40.0543 4.41372 39.9638 4.62026C39.6242 5.48061 39.4996 5.8017 39.228 6.45585C38.8206 7.39647 38.73 7.66025 38.73 7.86674C38.73 7.98138 38.832 8.0849 38.945 8.0849C39.194 8.0849 39.6693 7.69483 40.0767 7.17864C40.1222 7.10985 40.1672 7.08678 40.1899 7.08678C40.2692 7.08678 40.4504 7.23607 40.4504 7.29328C40.4504 7.44249 40.0089 7.92436 39.6242 8.21113C39.149 8.55507 38.6395 8.7272 38.0738 8.7272C37.4741 8.7272 37.0781 8.40607 37.0781 7.92436C37.0781 7.60308 37.2815 7.02957 37.9946 5.40033C38.0511 5.27411 38.1078 5.13641 38.153 5.01022C38.2208 4.84952 38.1984 4.91854 38.2322 4.8152C38.3 4.6775 38.3568 4.53998 38.4247 4.37936C38.4584 4.32197 38.4698 4.2761 38.4698 4.24177C38.4698 4.13851 38.4698 4.13851 37.9832 4.12707C37.7118 4.12707 37.689 4.12707 37.689 4.04675C37.689 3.81745 37.7795 3.72559 38.0171 3.72559C38.6849 3.72551 39.2053 3.67964 39.8163 3.56493ZM40.8915 1.45412C40.8915 1.93606 40.5406 2.26863 40.0429 2.26863C39.6015 2.26863 39.2733 1.95887 39.2733 1.5458C39.2733 1.10996 39.6579 0.754395 40.1446 0.754395C40.586 0.754469 40.8915 1.04131 40.8915 1.45412Z" fill="black"></path><path d="M44.661 3.74832C44.8081 3.74832 44.9664 3.74832 45.0343 3.73699C45.1476 3.72537 45.2492 3.72537 45.2947 3.72537C45.3512 3.72537 45.3739 3.74821 45.3739 3.80564C45.3739 3.89743 45.3397 4.0465 45.3173 4.09245C45.2945 4.12681 45.2606 4.13825 45.1475 4.13825C45.0906 4.13825 45.0906 4.13825 44.853 4.12673C44.7287 4.11511 44.5139 4.11511 44.2534 4.11511C44.1288 4.11511 44.1174 4.11511 44.0383 4.10374C43.0425 7.12099 42.522 8.49757 42.024 9.35799C41.1868 10.7919 40.2927 11.4113 39.0366 11.4113C38.3689 11.4113 37.916 11.0557 37.916 10.5395C37.916 10.2067 38.1425 9.97748 38.4707 9.97748C38.7536 9.97748 38.946 10.1381 38.946 10.3789C38.946 10.4592 38.946 10.4592 38.8782 10.6312C38.8668 10.6657 38.8668 10.7 38.8668 10.7344C38.8668 10.9066 39.0026 10.9981 39.2402 10.9981C39.5569 10.9981 39.874 10.7688 40.1569 10.3444C40.4169 9.95437 40.6208 9.42667 41.198 7.63714C41.707 6.06514 41.9222 5.43429 42.3861 4.11511H42.1372L41.696 4.1267L41.3902 4.13821H41.3337C41.2544 4.13821 41.2317 4.11522 41.2317 4.04642C41.2317 3.94316 41.2772 3.82841 41.3337 3.77113C41.3678 3.73677 41.4807 3.72526 41.7411 3.72526H42.5332C43.2916 1.48845 44.1856 0.559082 45.5887 0.559082C46.4035 0.559082 46.9129 0.914796 46.9129 1.47686C46.9129 1.84405 46.6639 2.11923 46.3244 2.11923C46.0526 2.11923 45.8605 1.94713 45.8605 1.71779C45.8605 1.61456 45.8943 1.53425 45.9735 1.41943C46.0416 1.31624 46.0639 1.27036 46.0639 1.21293C46.0639 1.04113 45.9055 0.903281 45.702 0.903281C45.3739 0.903281 45.1363 1.12129 44.8986 1.63744C44.7854 1.88978 44.3778 3.04822 44.1516 3.7481L44.661 3.74832Z" fill="black"></path><path d="M46.2455 7.49971C46.2455 8.02734 46.4604 8.29126 46.8907 8.29126C47.4792 8.29126 48.1693 7.86668 48.5995 7.22427C48.6561 7.14407 48.7012 7.10978 48.7353 7.10978C48.8258 7.10978 48.9729 7.23593 48.9729 7.30465C48.9729 7.45372 48.5995 7.90108 48.2259 8.19936C47.7506 8.57807 47.2073 8.7615 46.5397 8.7615C45.3743 8.7615 44.6387 8.09621 44.6387 7.05239C44.6387 6.15724 45.0574 5.27408 45.8155 4.58568C46.5738 3.8744 47.4111 3.50732 48.2486 3.50732C49.1086 3.50732 49.663 3.92028 49.663 4.56262C49.663 5.05577 49.2897 5.51479 48.656 5.81308C48.2259 6.00795 47.7393 6.09996 47.0489 6.09996C46.8791 6.09996 46.7886 6.09996 46.6075 6.07693C46.3588 6.65077 46.2455 7.07535 46.2455 7.49971ZM46.9697 5.67541C47.4223 5.67541 47.7959 5.52638 48.0902 5.22809C48.3619 4.96413 48.5426 4.58572 48.5426 4.31032C48.5426 4.09245 48.4069 3.93187 48.2145 3.93187C47.7959 3.93187 47.2754 4.53985 46.766 5.66401C46.8565 5.67541 46.9248 5.67541 46.9697 5.67541Z" fill="black"></path></g><defs><clipPath id="clip0_1890_888"><rect width="50" height="12" fill="white"></rect></clipPath></defs></svg>