<svg xmlns="http://www.w3.org/2000/svg" width="138" height="32" viewBox="0 0 138 32" fill="none"><path d="M71.5271 16.0126C71.5271 9.51377 66.3594 4.59166 60 4.08497L10.9422 0L17.5847 9.32809L0 16.0126L17.5815 22.6845L10.9422 32L60.0031 27.9087C66.3625 27.2604 71.5302 22.4831 71.5302 15.9843" fill="#989797"></path><path d="M59.1168 23.1914C54.6428 23.1914 52.3716 21.0073 52.3716 16.7052L52.2285 8.979H56.4909L56.3664 16.2835C56.3664 18.2914 57.4149 19.481 59.1666 19.481C60.9182 19.481 61.9667 18.3606 61.9667 16.3999L61.8267 8.979H66.089L65.9459 16.5888C65.9459 21.0325 63.7121 23.1977 59.1168 23.1977" fill="#F5F5F5"></path><path d="M79.3619 22.99L72.6075 14.905L73.2297 22.99H69.1758V8.979H72.7817L79.3153 16.765L78.6775 8.979H82.7438V22.99H79.3619Z" fill="#F5F5F5"></path><path d="M90.0047 9.01953H86.0254V23.0305H90.0047V9.01953Z" fill="#F5F5F5"></path><path d="M97.5373 23.0305V11.9212L93.166 12.2359V9.01953H105.891V12.2359L101.517 11.9212V23.0305H97.5373Z" fill="#F5F5F5"></path><path d="M108.848 23.0305V9.01953H120.53V12.2768L112.752 11.9621V14.656H120.014V17.2713H112.74V20.0722L120.636 19.7575V23.0305H108.848Z" fill="#F5F5F5"></path><path d="M128.786 9.01953H123.59V23.0305H128.614C133.956 23.0305 137.142 20.3775 137.142 15.9369V15.896C137.142 11.5246 134.096 9.01953 128.786 9.01953ZM133.123 16.0471C133.123 18.3728 131.62 19.6537 128.891 19.6537H127.569V12.3964H128.891C131.62 12.3964 133.123 13.6773 133.123 16.003V16.0471Z" fill="#F5F5F5"></path><path d="M25.6991 22.99L26.0103 16.9475L20.5625 8.979H25.5654L27.9268 13.3315L30.4158 8.979H35.3191L29.8526 16.957L30.1793 22.9963L25.6991 22.99Z" fill="#F5F5F5"></path><path d="M42.3659 23.251C38.144 23.251 34.8398 20.0819 34.8398 16.0315V15.9906C34.8398 11.9182 38.1626 8.72705 42.4095 8.72705C46.6563 8.72705 49.9386 11.8994 49.9386 15.9466V15.9906C49.9231 20.0567 46.5972 23.251 42.3659 23.251ZM42.3659 12.1732C40.3685 12.1732 38.8595 13.7939 38.8595 15.9497V15.9906C38.8595 18.1653 40.3841 19.8049 42.4095 19.8049C44.4349 19.8049 45.9158 18.1842 45.9158 16.0284V15.9875C45.9158 13.8128 44.3913 12.1732 42.3659 12.1732Z" fill="#F5F5F5"></path></svg>