<svg width="181" height="43" viewBox="0 0 181 43" fill="none" xmlns="http://www.w3.org/2000/svg">
<path d="M94.622 21.5165C94.622 12.9868 87.8393 6.52655 79.4927 5.86153L15.1043 0.5L23.8225 12.7431L0.742676 21.5165L23.8185 30.2734L15.1043 42.5L79.4968 37.1302C87.8434 36.2793 94.6261 30.009 94.6261 21.4793" fill="#B4B4B4"/>
<path d="M78.3328 30.9384C72.4608 30.9384 69.4798 28.0718 69.4798 22.4252L69.292 12.2846H74.8864L74.723 21.8717C74.723 24.5071 76.0992 26.0684 78.3982 26.0684C80.6972 26.0684 82.0733 24.5979 82.0733 22.0246L81.8895 12.2846H87.4839L87.2961 22.2724C87.2961 28.1048 84.3641 30.9467 78.3328 30.9467" fill="#333333"/>
<path d="M104.904 30.6741L96.0392 20.0625L96.8559 30.6741H91.5352V12.2846H96.2679L104.843 22.5037L104.006 12.2846H109.343V30.6741H104.904Z" fill="#333333"/>
<path d="M118.874 12.3383H113.651V30.7278H118.874V12.3383Z" fill="#333333"/>
<path d="M128.76 30.7278V16.1467L123.022 16.5598V12.3383H139.724V16.5598L133.983 16.1467V30.7278H128.76Z" fill="#333333"/>
<path d="M143.604 30.7278V12.3383H158.937V16.6135L148.728 16.2004V19.7362H158.259V23.1688H148.712V26.845L159.076 26.4319V30.7278H143.604Z" fill="#333333"/>
<path d="M169.774 12.3383H162.955V30.7278H169.55C176.561 30.7278 180.743 27.2457 180.743 21.4174V21.3637C180.743 15.6263 176.745 12.3383 169.774 12.3383ZM175.467 21.562C175.467 24.6145 173.495 26.2956 169.913 26.2956H168.178V16.7705H169.913C173.495 16.7705 175.467 18.4516 175.467 21.5041V21.562Z" fill="#333333"/>
<path d="M34.4723 30.6741L34.8807 22.7433L27.7305 12.2846H34.2967L37.3961 17.9972L40.6629 12.2846H47.0984L39.9238 22.7557L40.3525 30.6823L34.4723 30.6741Z" fill="#333333"/>
<path d="M56.3477 31.0169C50.8064 31.0169 46.4697 26.8574 46.4697 21.5413V21.4876C46.4697 16.1426 50.8309 11.9542 56.4048 11.9542C61.9788 11.9542 66.2869 16.1178 66.2869 21.4298V21.4876C66.2665 26.8243 61.9012 31.0169 56.3477 31.0169ZM56.3477 16.4772C53.7261 16.4772 51.7456 18.6044 51.7456 21.4339V21.4876C51.7456 24.3418 53.7465 26.4939 56.4048 26.4939C59.0632 26.4939 61.0069 24.3666 61.0069 21.5372V21.4835C61.0069 18.6292 59.006 16.4772 56.3477 16.4772Z" fill="#333333"/>
</svg>
