<svg width="28" height="28" viewBox="0 0 28 28" fill="" xmlns="http://www.w3.org/2000/svg" class="jsx-1242dec1e9969a4c hidden md:flex mr-[14px] group-hover:fill-[#fcfaf2]"><path d="M3.33268 19.3337V24.667H8.66602V27.3337H0.666016V19.3337H3.33268ZM27.3327 19.3337V27.3337H19.3327V24.667H24.666V19.3337H27.3327ZM7.99935 7.33366C7.99935 10.6474 10.6856 13.3337 13.9993 13.3337C17.3131 13.3337 19.9993 10.6474 19.9993 7.33366H22.666C22.666 10.6767 20.7732 13.5777 18.0008 15.0233L17.9993 23.3337H9.99935L9.99924 15.0239C7.22611 13.5786 5.33268 10.6772 5.33268 7.33366H7.99935ZM13.9993 4.66699C15.8403 4.66699 17.3327 6.15938 17.3327 8.00033C17.3327 9.84127 15.8403 11.3337 13.9993 11.3337C12.1584 11.3337 10.666 9.84127 10.666 8.00033C10.666 6.15938 12.1584 4.66699 13.9993 4.66699ZM8.66602 0.666992V3.33366L3.33268 3.33233V8.66699H0.666016V0.666992H8.66602ZM27.3327 0.666992V8.66699H24.666V3.33366H19.3327V0.666992H27.3327Z" class="jsx-1242dec1e9969a4c fill-[#44aa13]"></path></svg>